<svg xmlns="http://www.w3.org/2000/svg" width="26" height="26" fill="none"><g clip-path="url(#A)"><path d="M11.712 3.717a.38.38 0 0 1-.299.448c-.206.04-.406-.094-.448-.299 0-.001-.196-.846-1.019-.717-.646.104-1.114.119-1.517.009-.43-.117-.756-.363-1.094-.777a.38.38 0 0 1 .055-.534.38.38 0 0 1 .534.055c.236.289.446.455.704.525.285.078.658.059 1.199-.026 1.553-.246 1.884 1.313 1.886 1.317zM5.87 16.841a.38.38 0 0 1 .51.17.38.38 0 0 1-.17.508l-.878.439.497 3.524c.014.107-.016.213-.083.295l-1.923 2.325a.38.38 0 1 1-.586-.485l1.817-2.195-.511-3.629c-.022-.157.058-.317.207-.39l1.121-.561zm1.264-7.688a.38.38 0 1 1-.649.396L5.282 7.572a.38.38 0 0 1 .029-.436l.497-.687-1.622-1.668a.38.38 0 0 1 .546-.53l1.843 1.897c.127.128.145.334.036.485l-.547.759 1.071 1.76zm-1.17 2.032a.38.38 0 0 1 .285.456c-.049.204-.253.332-.458.285l-.996-.233-1.618 2.5a.38.38 0 0 1-.276.171l-2.479.278a.38.38 0 0 1-.419-.337.38.38 0 0 1 .335-.419l2.3-.258 1.651-2.552a.38.38 0 0 1 .419-.186l1.255.294zm13.823 6.334a.38.38 0 0 1-.17-.508.38.38 0 0 1 .51-.17l1.121.561a.38.38 0 0 1 .207.39l-.511 3.629 1.817 2.195a.38.38 0 0 1-.586.485l-1.923-2.325c-.066-.079-.099-.184-.084-.295l.497-3.524-.878-.439zm-.276-7.97c-.108.18-.343.236-.521.127a.38.38 0 0 1-.127-.523l1.071-1.76-.547-.759a.38.38 0 0 1 .036-.485l1.843-1.897a.38.38 0 0 1 .537-.007.38.38 0 0 1 .007.537l-1.621 1.668.497.687a.38.38 0 0 1 .029.436L19.51 9.549zm.695 2.378a.38.38 0 1 1-.173-.741l1.255-.294a.38.38 0 0 1 .419.186l1.651 2.552 2.303.258a.38.38 0 1 1-.083.756l-2.477-.278c-.114-.013-.217-.073-.281-.171l-1.618-2.5-.996.233zM15.03 3.866c-.042.206-.242.34-.448.299a.38.38 0 0 1-.299-.448c0-.004.332-1.563 1.884-1.317.541.085.915.104 1.2.026.258-.071.468-.236.704-.525a.38.38 0 0 1 .534-.055.38.38 0 0 1 .055.534c-.34.415-.664.661-1.094.777-.403.111-.871.095-1.517-.009-.824-.13-1.019.715-1.019.717z" fill="#463d43"/><g fill-rule="evenodd"><path d="M12.998 22.657c-4.127-.045-7.459-3.855-7.459-8.548 0-1.955.57-3.76 1.549-5.194.73-1.071 1.372-1.005 2.28-1.005h3.63 3.63c.908 0 1.55-.066 2.28 1.005.979 1.434 1.549 3.239 1.549 5.194 0 4.693-3.334 8.503-7.459 8.548z" fill="#fc636e"/><path d="M12.998 22.657l-.635-.038c3.828-.404 6.825-4.061 6.825-8.51 0-1.955-.57-3.76-1.549-5.194-.61-.897-1.16-.996-1.855-1.005h.845c.908 0 1.55-.066 2.28 1.005.979 1.434 1.549 3.239 1.549 5.194 0 4.693-3.334 8.503-7.459 8.548z" fill="#da4a54"/><path d="M12.998 22.657l-.381-.016V8.105h.381.38v14.536l-.38.016z" fill="#d94650"/><g fill="#463d43"><path d="M15.524 4.443c1.52.688 2.541 2.008 2.541 3.662H7.931c0-1.654 1.021-2.974 2.541-3.662.239-.635 1.28-1.111 2.526-1.111s2.286.476 2.526 1.111zm-2.526 8.594c.91 0 1.652-.743 1.652-1.652a1.66 1.66 0 0 0-1.652-1.654 1.66 1.66 0 0 0-1.653 1.654c0 .911.741 1.652 1.653 1.652zm4.218 2.961c.91 0 1.652-.743 1.652-1.652s-.743-1.652-1.652-1.652-1.652.741-1.652 1.652.741 1.652 1.652 1.652zm-8.436 0c.91 0 1.653-.743 1.653-1.652s-.743-1.652-1.653-1.652-1.652.741-1.652 1.652.743 1.652 1.652 1.652zm8.025 1.829c-.397-.399-1.166-.278-1.714.271s-.669 1.317-.271 1.715 1.165.276 1.713-.272.671-1.316.272-1.713zm-7.615 0c.397-.399 1.165-.278 1.713.271s.671 1.317.272 1.715-1.166.276-1.714-.272-.669-1.316-.271-1.713z"/></g><path d="M14.255 4.443c1.46.661 2.459 1.904 2.536 3.468l.004.194h1.27c0-1.654-1.021-2.974-2.541-3.662-.081-.215-.253-.41-.494-.577-.191-.131-.426-.245-.692-.331-.391-.128-.849-.203-1.34-.203a4.77 4.77 0 0 0-.635.043c.953.13 1.694.546 1.892 1.068z" fill="#40363d"/></g></g><defs><clipPath id="A"><path fill="#fff" d="M0 0h26v26H0z"/></clipPath></defs></svg>