<svg xmlns="http://www.w3.org/2000/svg" xmlns:xlink="http://www.w3.org/1999/xlink" width="26" height="26" fill="none"><g clip-path="url(#A)"><path d="M13 26c7.18 0 13-5.82 13-13S20.18 0 13 0 0 5.82 0 13s5.82 13 13 13z" fill="#ffd93b"/><path d="M26 13a13 13 0 0 1-13 13c-4.087 0-7.735-1.885-10.12-4.838a12.93 12.93 0 0 0 8.162 2.88 13 13 0 0 0 13-13 12.93 12.93 0 0 0-2.88-8.162C24.111 5.265 26 8.913 26 13z" fill="#f4c534"/><g fill="#3e4347"><path d="M18.818 17.489c0 .391-.316.707-.707.707H7.889a.71.71 0 0 1-.707-.707.71.71 0 0 1 .707-.707h10.222c.392.001.707.316.707.707z"/><use xlink:href="#B"/></g><path d="M9.946 9.529c-.168-.225-.422-.32-.568-.212s-.128.379.04.605.422.32.568.212.128-.379-.04-.604z" fill="#5a5f63"/><path d="M17.136 12.453c1.07 0 1.937-.867 1.937-1.937s-.867-1.937-1.937-1.937-1.937.867-1.937 1.937.867 1.937 1.937 1.937z" fill="#3e4347"/><path d="M18.22 9.531c-.168-.225-.422-.32-.568-.212s-.128.379.04.604.422.32.568.212.128-.379-.04-.604z" fill="#5a5f63"/></g><defs><clipPath id="A"><path fill="#fff" d="M0 0h26v26H0z"/></clipPath><path id="B" d="M8.862 12.453c1.07 0 1.937-.867 1.937-1.937s-.867-1.937-1.937-1.937-1.937.867-1.937 1.937.867 1.937 1.937 1.937z"/></defs></svg>