<svg xmlns="http://www.w3.org/2000/svg" width="26" height="26" fill="none"><g clip-path="url(#A)"><path d="M13 26c7.18 0 13-5.82 13-13S20.18 0 13 0 0 5.82 0 13s5.82 13 13 13z" fill="#e7e7e7"/><path d="M26 13a13 13 0 0 1-13 13c-4.087 0-7.735-1.885-10.12-4.838a12.93 12.93 0 0 0 8.162 2.88 13 13 0 0 0 13-13 12.93 12.93 0 0 0-2.88-8.162C24.111 5.265 26 8.913 26 13z" fill="#c7c7c7"/><path d="M17.782 13.496a2.04 2.04 0 1 0 0-4.08 2.04 2.04 0 1 0 0 4.08z" fill="#3e4347"/><path d="M18.523 10.187c-.312-.138-.637-.087-.726.115s.091.478.402.616.637.087.726-.115-.091-.477-.402-.616z" fill="#5a5f63"/><path d="M8.218 13.496a2.04 2.04 0 1 0 0-4.08 2.04 2.04 0 1 0 0 4.08z" fill="#3e4347"/><path d="M8.958 10.187c-.312-.138-.637-.087-.727.115s.091.477.402.616.637.087.727-.115-.091-.478-.402-.616z" fill="#5a5f63"/><path d="M7.675 18.132a.61.61 0 0 1-.026-.861.61.61 0 0 1 .861-.026 6.56 6.56 0 0 0 8.98 0 .61.61 0 0 1 .861.026.61.61 0 0 1-.026.861 7.78 7.78 0 0 1-10.65 0z" fill="#3e4347"/></g><defs><clipPath id="A"><path fill="#fff" d="M0 0h26v26H0z"/></clipPath></defs></svg>