<svg width="15" height="15" viewBox="0 0 15 15" fill="none" xmlns="http://www.w3.org/2000/svg">
<path d="M7.08779 14.1756C11.0024 14.1756 14.1756 11.0024 14.1756 7.08779C14.1756 3.1732 11.0024 0 7.08779 0C3.1732 0 0 3.1732 0 7.08779C0 11.0024 3.1732 14.1756 7.08779 14.1756Z" fill="#E7E7E7"/>
<path d="M8.47004 10.1215C8.60471 10.1215 8.73938 10.0719 8.8457 9.96559C8.94456 9.86556 9 9.73059 9 9.58994C9 9.4493 8.94456 9.31433 8.8457 9.21429L6.71936 7.08795L8.8457 4.96162C8.94456 4.86158 9 4.72661 9 4.58596C9 4.44532 8.94456 4.31035 8.8457 4.21031C8.64015 4.00477 8.29994 4.00477 8.09439 4.21031L5.5924 6.7123C5.38686 6.91785 5.38686 7.25806 5.5924 7.46361L8.09439 9.96559C8.20071 10.0719 8.33538 10.1215 8.47004 10.1215V10.1215Z" fill="#3C3C3C"/>
</svg>
