<svg xmlns="http://www.w3.org/2000/svg" width="21" height="21" fill="none"><g clip-path="url(#A)"><path d="M15.461 1.169h-.037c-2.708 0-4.222 1.982-4.924 3.324-.714-1.342-2.216-3.324-4.924-3.324h-.049C2.597 1.194.156 3.693.008 6.856c-.185 3.878 2.91 6.487 7.538 10.426l2.548 2.191.406.357.406-.357 2.548-2.191c4.628-3.939 7.722-6.549 7.538-10.426-.148-3.164-2.602-5.663-5.531-5.687z" fill="#ff3636"/><path d="M20.992 6.856c.185 3.878-2.909 6.487-7.538 10.426l-2.548 2.191-.406.357V4.493c.702-1.342 2.216-3.324 4.924-3.324h.037c2.93.025 5.384 2.523 5.531 5.687z" fill="#f40000"/></g><defs><clipPath id="A"><path fill="#fff" d="M0 0h21v21H0z"/></clipPath></defs></svg>