<svg xmlns="http://www.w3.org/2000/svg" viewBox="0 0 15 15" fill="#000"><path d="M7.397 14.176a7.09 7.09 0 0 0 7.088-7.088A7.09 7.09 0 0 0 7.397 0 7.09 7.09 0 0 0 .31 7.088a7.09 7.09 0 0 0 7.088 7.088z" fill-opacity=".1"/><path d="M6.504 10.122c-.135 0-.269-.05-.376-.156-.099-.1-.154-.235-.154-.376s.055-.276.154-.376l2.126-2.126-2.126-2.126c-.099-.1-.154-.235-.154-.376s.055-.276.154-.376c.206-.206.546-.206.751 0l2.502 2.502c.206.206.206.546 0 .751L6.88 9.966c-.106.106-.241.156-.376.156z"/></svg>
