<svg xmlns="http://www.w3.org/2000/svg" width="24" height="25" fill="none"><g filter="url(#A)"><path d="M13.493 1.53l1.88 3.76a2.35 2.35 0 0 0 1.507 1.12l3.4.56c2.173.36 2.68 1.933 1.12 3.507l-2.653 2.653c-.44.44-.693 1.307-.547 1.933l.76 3.28c.6 2.587-.787 3.6-3.067 2.24l-3.187-1.893c-.573-.347-1.533-.347-2.107 0l-3.187 1.893c-2.28 1.347-3.667.347-3.067-2.24l.76-3.28c.147-.613-.107-1.48-.547-1.933l-2.653-2.653C.346 8.917.853 7.343 3.026 6.97l3.4-.56c.573-.093 1.253-.6 1.507-1.12l1.88-3.76c1-2.04 2.653-2.04 3.68 0h0z" fill="#ffe660"/></g><defs><filter id="A" x="0" y="0" width="23.305" height="24.188" filterUnits="userSpaceOnUse" color-interpolation-filters="sRGB"><feFlood flood-opacity="0" result="A"/><feColorMatrix in="SourceAlpha" values="0 0 0 0 0 0 0 0 0 0 0 0 0 0 0 0 0 0 127 0" result="B"/><feOffset dy="2"/><feGaussianBlur stdDeviation=".5"/><feComposite in2="B" operator="out"/><feColorMatrix values="0 0 0 0 0 0 0 0 0 0 0 0 0 0 0 0 0 0 0.25 0"/><feBlend in2="A"/><feBlend in="SourceGraphic"/></filter></defs></svg>