<svg xmlns="http://www.w3.org/2000/svg" xmlns:xlink="http://www.w3.org/1999/xlink" width="21" height="21" fill="none"><g clip-path="url(#A)"><g fill-rule="evenodd"><path d="M7.469 5.287h2.949c3.838 0 6.978 3.142 6.978 6.98v.303c0 3.839-3.14 6.98-6.978 6.98H7.469 6.077c-.149 0-.133-.006-.265.062l-2.611 1.057c-.15.055-.222.013-.214-.139l-.02-2.604c.004-.024.009-.027-.006-.04-1.509-1.283-2.47-3.193-2.47-5.317v-.303c0-3.838 3.14-6.98 6.977-6.98z" fill="#8dcafc"/><path d="M7.469 5.287c2.851 0 5.316 1.733 6.396 4.198a6.91 6.91 0 0 1 .582 2.783v.303c0 3.839-3.14 6.98-6.978 6.98h2.949c3.838 0 6.978-3.141 6.978-6.98v-.303a6.91 6.91 0 0 0-.582-2.783c-1.08-2.464-3.546-4.197-6.396-4.197H7.469z" fill="#64b9fc"/><path d="M15.768 12.915a.77.77 0 0 0 .769.769h.721a.77.77 0 0 0 .769-.769v-.769l-1.129-.735-1.129.735v.769z" fill="#9c9c9c"/><path d="M15.54 10.952h1.357 1.357c0-2.181 2.11-2.463 2.108-4.809-.002-2.237-1.734-3.337-3.465-3.312-1.731-.025-3.462 1.076-3.464 3.312-.004 2.346 2.107 2.628 2.107 4.809z" fill="#fb8627"/><path d="M18.266 10.677c.169-1.935 2.099-2.292 2.096-4.534-.002-2.237-1.734-3.337-3.465-3.312-.174-.002-.349.007-.521.027 1.542.182 2.943 1.274 2.945 3.285.002 2.243-1.927 2.599-2.096 4.534h1.041z" fill="#f2671f"/><path d="M16.985 12.915a.77.77 0 0 1-.608.752.72.72 0 0 0 .16.018h.721a.77.77 0 0 0 .769-.769v-.769h-.643-.398v.769z" fill="#838383"/><path d="M15.37 12.146h.398 2.258.398c.136 0 .248-.112.248-.248v-.973c0-.136-.111-.248-.248-.248h-.159-1.369-1.074-.293-.16c-.136 0-.248.111-.248.248v.369.605c0 .136.111.248.248.248z" fill="#f8f6f6"/><path d="M17.631 10.952v.937.009c0 .136-.111.248-.248.248h.643.398c.136 0 .248-.112.248-.248v-.973c0-.136-.111-.248-.248-.248h-.158-.883c.136 0 .248.111.248.248v.006.021h0z" fill="#e2e2e2"/><path d="M17.834 7.289c0-.518-.419-.937-.937-.937-.511 0-.926.409-.937.918v.019c0 .518.419.937.937.937a.93.93 0 0 0 .465-.123c.282-.161.472-.465.472-.814z" fill="#fece85"/></g><g fill="#000"><path d="M16.9 1.53c.17 0 .308-.138.308-.308V.308c0-.17-.138-.308-.308-.308s-.308.138-.308.308v.915c0 .17.138.308.308.308zm-3.179.723c.06.06.139.09.218.09s.157-.03.217-.09c.12-.12.12-.315 0-.435l-.647-.647c-.12-.12-.315-.12-.435 0s-.12.315 0 .435l.647.647zm7.005-1.082c-.12-.12-.315-.12-.435 0l-.647.647c-.12.12-.12.315 0 .435.06.06.139.09.218.09a.31.31 0 0 0 .218-.09l.647-.647c.12-.12.12-.315 0-.435z"/><use xlink:href="#B"/><path d="M10.833 10.035H5.147c-.17 0-.308.138-.308.308s.138.308.308.308h5.686c.17 0 .308-.138.308-.308s-.138-.308-.308-.308zm1.93 4.177H5.147c-.17 0-.308.138-.308.308s.138.308.308.308h7.616c.17 0 .308-.138.308-.308s-.138-.308-.308-.308zm4.282-11.687a.31.31 0 0 0-.314.301c-.004.17.131.31.301.314 1.503.032 3.021.972 3.023 3.004.001 1.083-.491 1.676-1.012 2.305-.442.534-.898 1.084-1.047 1.922h-.792V8.495c.538-.137.937-.626.937-1.206 0-.686-.558-1.245-1.244-1.245s-1.244.558-1.244 1.245c0 .58.399 1.069.937 1.206v1.875h-.792c-.148-.838-.604-1.388-1.046-1.922-.461-.557-.9-1.086-.992-1.954a3.16 3.16 0 0 1-.019-.35l.016-.351c.114-1.194.809-2.084 1.946-2.47.161-.055.247-.229.192-.39s-.229-.247-.39-.192c-1.293.439-2.135 1.456-2.334 2.781a7.23 7.23 0 0 0-2.754-.541h-.743c-.17 0-.308.138-.308.308s.138.308.308.308h.743a6.63 6.63 0 0 1 2.708.575c.007 1.288.615 2.023 1.152 2.671.391.473.764.922.9 1.565-.211.079-.363.282-.363.52v.973c0 .306.249.555.555.555h.09v.462a1.08 1.08 0 0 0 1.076 1.077h.399c-.653 2.998-3.328 5.25-6.518 5.25h-4.37c-.16 0-.209.011-.362.09l-2.39.967-.018-2.348c.016-.116-.025-.224-.114-.3C1.66 16.377.8 14.524.8 12.57v-.303a6.68 6.68 0 0 1 6.67-6.673h.85c.17 0 .308-.137.308-.308s-.138-.308-.308-.308h-.85A7.23 7.23 0 0 0 2.324 7.12a7.24 7.24 0 0 0-2.14 5.148v.303c0 2.09.901 4.073 2.477 5.463l.019 2.492c-.009.219.086.337.167.397.055.04.135.078.246.078a.62.62 0 0 0 .215-.042l2.62-1.06a.2.2 0 0 0 .025-.012l.013-.006.043-.022h4.41c1.938 0 3.766-.76 5.146-2.14 1.048-1.048 1.738-2.355 2.01-3.773a1.08 1.08 0 0 0 .76-1.03v-.462h.09c.306 0 .555-.249.555-.555v-.973c0-.239-.151-.442-.363-.52.136-.643.508-1.092.9-1.564.541-.653 1.154-1.393 1.153-2.698-.002-2.434-1.881-3.582-3.625-3.618zm-.776 4.765a.63.63 0 0 1 .629-.629.63.63 0 0 1 .629.629.63.63 0 0 1-.629.629.63.63 0 0 1-.629-.629zm1.451 5.627a.46.46 0 0 1-.461.461h-.721a.46.46 0 0 1-.461-.461v-.461h1.628 0 .015v.461h0zm.646-1.077H15.43v-.854h2.934v.854z"/></g></g><defs><clipPath id="A"><path fill="#fff" d="M0 0h21v21H0z"/></clipPath><path id="B" d="M12.763 12.124H5.147c-.17 0-.308.138-.308.308s.138.308.308.308h7.616c.17 0 .308-.138.308-.308s-.138-.308-.308-.308z"/></defs></svg>