<svg class="button-bg" width="100%" height="100%" viewBox="0 0 79 79" version="1.1" xmlns="http://www.w3.org/2000/svg" xmlns:xlink="http://www.w3.org/1999/xlink" preserveAspectRatio="none">
	<g id="Panel-explore-3" stroke="none" stroke-width="1" fill="none" fill-rule="evenodd">
		<path d="M74.3499043,70.7611212 C80.1406584,63.8433565 80.5228925,21.774804 75.4972221,10.213292 C75.5403081,10.2043671 75.5652364,10.1985197 75.5652364,10.1985197 C75.5652364,10.1985197 74.4012997,6.89997879 70.663592,4.57333492 C63.4703896,-1.14079164 21.7702508,-1.50025196 10.2327518,3.49464619 C10.2309053,3.48572124 10.2290587,3.47864282 10.2290587,3.47864282 C10.2290587,3.47864282 7.11517427,4.57641249 4.8042276,8.0663783 C-1.14009722,14.4234095 -1.56818709,57.2201154 3.51995799,68.8265599 C3.51595715,68.8274832 3.50887874,68.829022 3.50887874,68.829022 C3.50887874,68.829022 4.63373026,72.0201556 8.22648449,74.3387978 C15.1211627,80.1541765 57.425736,80.5281014 68.8724467,75.4602648 C69.1718942,75.3476257 72.1503656,74.1639918 74.3499043,70.7611212" id="Fill-1" fill="#000000"></path>
	</g>
</svg>