<svg xmlns="http://www.w3.org/2000/svg" xmlns:xlink="http://www.w3.org/1999/xlink" width="40" height="40" fill="none" xmlns:v="https://vecta.io/nano"><g clip-path="url(#A)"><path d="M20 40c11.046 0 20-8.954 20-20S31.046 0 20 0 0 8.954 0 20s8.954 20 20 20z" fill="#e0f4ff"/><g clip-path="url(#B)"><g fill="#006bff"><path d="M24.821 23.855c-.842.732-1.889 1.643-3.796 1.643h-1.139c-1.378 0-2.632-.491-3.529-1.382-.876-.87-1.359-2.061-1.359-3.354v-1.529c0-1.293.482-2.484 1.359-3.355.897-.891 2.151-1.382 3.529-1.382h1.139c1.907 0 2.954.911 3.796 1.643.873.759 1.627 1.415 3.635 1.415a5.9 5.9 0 0 0 .916-.072l-.007-.017c-.121-.293-.262-.578-.423-.851l-1.344-2.282c-1.232-2.094-3.51-3.383-5.974-3.383h-2.686c-2.464 0-4.742 1.29-5.974 3.383l-1.344 2.282c-.605 1.025-.924 2.193-.924 3.383s.319 2.359.924 3.384l1.344 2.282c1.232 2.094 3.51 3.383 5.974 3.383h2.686c2.464 0 4.742-1.29 5.974-3.383l1.344-2.282c.161-.273.302-.558.423-.851l.007-.018c-.298-.047-.602-.071-.916-.071-2.008 0-2.762.655-3.635 1.415v-.002zm-3.796-7.974h-1.139c-2.097 0-3.476 1.47-3.476 3.351v1.529c0 1.881 1.378 3.351 3.476 3.351h1.139c3.056 0 2.817-3.057 7.432-3.057a7.29 7.29 0 0 1 1.305.117 6.63 6.63 0 0 0 0-2.351c-.43.078-.867.117-1.305.117-4.615-.001-4.375-3.058-7.431-3.058z"/><path d="M32.412 22.288c-.788-.57-1.693-.942-2.651-1.117l-.004.023a6.64 6.64 0 0 1-.386 1.317c.809.129 1.555.427 2.192.885l-.006.021c-.368 1.171-.922 2.274-1.646 3.278-.716.991-1.582 1.864-2.573 2.593-2.059 1.515-4.511 2.315-7.092 2.315a11.96 11.96 0 0 1-4.606-.911 11.81 11.81 0 0 1-3.762-2.488 11.55 11.55 0 0 1-2.536-3.69 11.35 11.35 0 0 1-.93-4.518 11.35 11.35 0 0 1 .93-4.518 11.56 11.56 0 0 1 2.536-3.69 11.81 11.81 0 0 1 3.762-2.488 11.96 11.96 0 0 1 4.606-.911c2.551-.01 5.038.802 7.092 2.315.992.729 1.857 1.602 2.573 2.593.725 1.004 1.278 2.107 1.646 3.278.003.007.005.014.006.021-.637.458-1.383.757-2.192.885a6.61 6.61 0 0 1 .386 1.318l.004.021c.959-.175 1.862-.547 2.651-1.117.756-.549.61-1.168.495-1.536C31.24 10.858 26.202 7 20.246 7 12.93 7 7 12.818 7 19.994s5.93 12.994 13.246 12.994c5.957 0 10.995-3.858 12.661-9.165.115-.365.262-.985-.495-1.534z"/></g><g fill="#0ae8f0"><use xlink:href="#C"/><use xlink:href="#C"/></g></g></g><defs><clipPath id="A"><path fill="#fff" d="M0 0h40v40H0z"/></clipPath><clipPath id="B"><path fill="#fff" transform="translate(7 7)" d="M0 0h26v26H0z"/></clipPath><path id="C" d="M29.372 17.479c-.298.047-.603.072-.916.072-2.008 0-2.762-.656-3.635-1.415-.842-.732-1.889-1.642-3.796-1.642h-1.139c-1.378 0-2.632.491-3.529 1.382-.876.87-1.359 2.061-1.359 3.354v1.529c0 1.293.482 2.484 1.359 3.355.897.891 2.151 1.382 3.529 1.382h1.139c1.907 0 2.954-.911 3.796-1.642.873-.759 1.627-1.415 3.635-1.415a5.9 5.9 0 0 1 .916.071c.174-.424.303-.866.385-1.317l.004-.023a7.3 7.3 0 0 0-1.305-.117c-4.615 0-4.375 3.057-7.431 3.057h-1.139c-2.097 0-3.476-1.47-3.476-3.351v-1.529c0-1.881 1.379-3.351 3.477-3.351h1.139c3.056 0 2.816 3.057 7.431 3.057a7.3 7.3 0 0 0 1.305-.117l-.004-.021a6.58 6.58 0 0 0-.386-1.317l-.001.001z"/></defs></svg>