<svg xmlns="http://www.w3.org/2000/svg" width="40" height="40" fill="none"><circle cx="20" cy="20" r="20" fill="#d4ecff"/><g clip-path="url(#A)"><path d="M20 33c7.18 0 13-5.82 13-13S27.18 7 20 7 7 12.82 7 20s5.82 13 13 13z" fill="#2196f3"/><path d="M26.5 22.688a8.97 8.97 0 0 1-3.973-.908c-.193-.093-.418-.107-.622-.037a.82.82 0 0 0-.466.414l-.585 1.211a11.44 11.44 0 0 1-4.22-4.22l1.212-.585c.195-.094.343-.262.414-.466a.82.82 0 0 0-.037-.622 8.94 8.94 0 0 1-.91-3.973c0-.448-.364-.812-.812-.812h-3c-.448 0-.812.364-.812.813 0 7.616 6.196 13.813 13.813 13.813.448 0 .813-.364.813-.812v-3c0-.448-.364-.812-.812-.812z" fill="#fafafa"/></g><defs><clipPath id="A"><path fill="#fff" transform="translate(7 7)" d="M0 0h26v26H0z"/></clipPath></defs></svg>