<svg xmlns="http://www.w3.org/2000/svg" width="40" height="40" fill="none"><circle cx="20" cy="20" r="20" fill="#fcd9ff"/><path d="M12.493 20.495l-.001 6.471c-.001.893.348 1.608 1.071 2.132.418.304.895.45 1.41.46l1.044.002c.565.006 1.009.455 1.005 1.013-.004.551-.45.995-1.008.998-.542.003-1.084.006-1.626-.001-1.865-.023-3.548-1.475-3.845-3.319a5.08 5.08 0 0 1-.065-.803l-.002-13.909c.001-1.769.983-3.226 2.599-3.859a3.71 3.71 0 0 1 1.354-.261l11.225.001c1.955.004 3.65 1.515 3.908 3.459a5.31 5.31 0 0 1 .046.672l.001 2.885a1 1 0 0 1-.786 1.012c-.601.146-1.215-.317-1.221-.936l-.006-2.554a2.47 2.47 0 0 0-1.114-2.096c-.409-.284-.871-.428-1.367-.429a3809.11 3809.11 0 0 0-10.141 0c-1.328.002-2.426 1.078-2.477 2.404l-.004.252v6.405zm7.558-3.021c-1.49 0-2.98.001-4.47-.001-.501 0-.874-.247-1.02-.668-.227-.657.237-1.319.943-1.344h.053 8.966c.519 0 .91.299 1.03.781a1 1 0 0 1-.915 1.228l-.674.005H20.05zm-1.521 4.028c-.992 0-1.983.002-2.975-.001-.507-.002-.897-.29-1.016-.742-.169-.642.298-1.252.976-1.267l.965-.002 5.024.001c.523.001.925.311 1.033.791.136.606-.304 1.187-.926 1.213l-.965.006H18.53zm-1.517 2.019l1.546.002c.407.008.705.21.877.576s.123.723-.121 1.044c-.197.259-.471.383-.792.385h-3.014c-.525-.004-.956-.399-1.002-.892a1 1 0 0 1 .787-1.095 1.34 1.34 0 0 1 .289-.022l1.428-.001zm14.579-1.481c-.196-1.412-1.44-2.517-2.876-2.55-.865-.02-1.612.273-2.231.875l-2.138 2.09-4.382 4.281c-.291.283-.442.601-.424 1.011l.005 1.322v1.482a1 1 0 0 0 1.029 1.023h2.977c.343-.001.618-.143.823-.417a.91.91 0 0 1 .085-.101l6.29-6.447c.699-.718.979-1.58.842-2.569zm-2.247 1.13l-.694.716-5.44 5.588c-.068.07-.134.098-.231.097l-1.268-.002h-.16l.004-1.503c0-.051.048-.111.088-.151l3.378-3.311 2.837-2.782c.305-.3.66-.412 1.073-.278.695.225.912 1.085.413 1.627z" fill="#452447"/></svg>