<svg xmlns="http://www.w3.org/2000/svg" width="40" height="40" fill="none"><circle cx="20" cy="20" r="20" fill="#d3d6ff"/><circle cx="20" cy="20" r="13" fill="#5865f2"/><path d="M26.248 14.168c-1.165-.546-2.411-.942-3.713-1.168a10.87 10.87 0 0 0-.476.988c-1.385-.208-2.756-.208-4.116 0a10.58 10.58 0 0 0-.481-.988 14.6 14.6 0 0 0-3.716 1.171c-2.35 3.554-2.987 7.02-2.669 10.437 1.559 1.165 3.069 1.873 4.555 2.336.367-.505.694-1.042.976-1.608a9.58 9.58 0 0 1-1.536-.748 7.58 7.58 0 0 0 .377-.298c2.962 1.386 6.18 1.386 9.106 0 .123.103.249.203.377.298a9.56 9.56 0 0 1-1.539.75c.282.564.607 1.103.976 1.608 1.486-.463 2.999-1.171 4.557-2.337.374-3.961-.639-7.395-2.676-10.44zm-9.238 8.339c-.889 0-1.618-.831-1.618-1.842s.713-1.844 1.618-1.844 1.634.831 1.618 1.844c.001 1.011-.713 1.842-1.618 1.842zm5.98 0c-.889 0-1.618-.831-1.618-1.842s.714-1.844 1.618-1.844 1.634.831 1.618 1.844c0 1.011-.714 1.842-1.618 1.842z" fill="#fff"/></svg>