<svg xmlns="http://www.w3.org/2000/svg" width="40" height="40" fill="none"><circle cx="20" cy="20" r="20" fill="#ffeac8"/><g fill="#ffb844"><path d="M28.829 11.171c-4.878-4.878-12.786-4.878-17.664 0-4.431 4.431-4.836 11.364-1.216 16.253l-.962 3.589 3.589-.962c4.889 3.62 11.822 3.215 16.253-1.216 4.878-4.878 4.878-12.786 0-17.664h0z"/><path d="M16.609 16.735a1.09 1.09 0 0 1-1.053-1.417 4.55 4.55 0 0 1 1.192-1.884c.914-.873 2.114-1.321 3.379-1.263 1.105.051 2.17.535 2.998 1.363s1.313 1.893 1.363 2.998c.083 1.806-.906 3.497-2.519 4.309-.596.3-.967.892-.967 1.544a1.09 1.09 0 0 1-1.089 1.089h-.004a1.09 1.09 0 0 1-1.089-1.089c0-1.481.831-2.82 2.168-3.492a2.41 2.41 0 0 0 1.32-2.26c-.053-1.162-1.12-2.229-2.282-2.283a2.38 2.38 0 0 0-2.388 1.624c-.151.446-.558.756-1.029.76h0zm3.303 11.103a1.091 1.091 0 1 0 0-2.182 1.091 1.091 0 1 0 0 2.182z"/></g><path d="M28.829 11.678a.51.51 0 0 1-.508-.508.51.51 0 0 1 .508-.508.51.51 0 0 1 .508.508.51.51 0 0 1-.508.508zM20 33a12.99 12.99 0 0 1-7.525-2.396l-3.355.899a.51.51 0 0 1-.622-.622l.899-3.355a13 13 0 0 1-2.365-8.436 12.99 12.99 0 0 1 20.33-9.8.51.51 0 0 1 .13.706.51.51 0 0 1-.706.13C22.032 6.85 15.614 7.441 11.525 11.53c-4.164 4.164-4.666 10.867-1.167 15.592a.51.51 0 0 1 .082.433l-.734 2.739 2.739-.734a.51.51 0 0 1 .434.082c4.725 3.499 11.428 2.997 15.592-1.167 4.089-4.089 4.68-10.508 1.404-15.261a.51.51 0 0 1 .13-.706.51.51 0 0 1 .706.13 12.99 12.99 0 0 1-9.8 20.331c-.304.021-.608.032-.91.032h0zm-.086-9.017a1.6 1.6 0 0 1-1.601-1.597c0-1.674.938-3.186 2.447-3.946a1.9 1.9 0 0 0 1.041-1.783c-.041-.9-.899-1.757-1.799-1.799a1.88 1.88 0 0 0-1.398.521 1.87 1.87 0 0 0-.486.758c-.222.654-.826 1.099-1.505 1.105h0c-.526 0-1.009-.245-1.311-.657s-.389-.937-.23-1.425c.257-.788.715-1.512 1.324-2.094a5.05 5.05 0 0 1 3.753-1.403c1.232.057 2.416.593 3.334 1.512s1.455 2.102 1.512 3.334a5.1 5.1 0 0 1-2.798 4.786 1.22 1.22 0 0 0-.687 1.09 1.6 1.6 0 0 1-1.596 1.596h0zm-.003-10.142l.14.003c1.433.066 2.7 1.333 2.766 2.766.053 1.147-.575 2.222-1.599 2.737-1.165.586-1.888 1.751-1.888 3.039a.58.58 0 0 0 .581.581c.325 0 .585-.261.585-.581 0-.845.477-1.61 1.246-1.997 1.435-.722 2.314-2.226 2.24-3.832-.045-.978-.476-1.924-1.215-2.662s-1.684-1.17-2.662-1.215c-1.125-.051-2.193.347-3.005 1.123a4.02 4.02 0 0 0-1.06 1.674.56.56 0 0 0 .084.51c.113.154.286.242.476.242a.6.6 0 0 0 .56-.416 2.91 2.91 0 0 1 .747-1.167 2.88 2.88 0 0 1 2.007-.805h0zm.001 14.505a1.6 1.6 0 0 1-1.599-1.599 1.6 1.6 0 0 1 1.599-1.599 1.6 1.6 0 0 1 1.599 1.599 1.6 1.6 0 0 1-1.599 1.599h0zm0-2.182c-.322 0-.583.262-.583.583s.262.583.583.583.583-.262.583-.583-.262-.583-.583-.583h0z" fill="#000"/></svg>