<svg xmlns="http://www.w3.org/2000/svg" width="40" height="40" fill="none"><circle cx="20" cy="20" r="20" fill="#efefef"/><g fill="#31aa52"><path d="M28.164 11.754l-11.435 3.047L19.775 33l7.806-10.34a9.73 9.73 0 0 0 1.969-5.884 9.73 9.73 0 0 0-1.387-5.022h0z"/><path d="M15.968 27.956L19.775 33V22.897l-3.808 5.059z"/></g><path d="M19.775 22.897l2.941-3.908-2.941-2.214-3.047 3.061 3.047 3.061z" fill="#f69411"/><g fill="#4086f4"><path d="M19.775 7l-3.047 3.35 3.047 3.35 2.505-6.375A9.79 9.79 0 0 0 19.775 7h0z"/><path d="M11.965 10.896v5.879h7.81V7a9.76 9.76 0 0 0-7.81 3.896z"/></g><path d="M11.965 10.897A9.73 9.73 0 0 0 10 16.775c0 1.836.507 3.554 1.387 5.021l6.97-6.089-6.392-4.811z" fill="#eb4132"/><g fill="#609af6"><path d="M22.281 7.325l-2.505 3.329-3.682 8.336h6.623l5.447-7.236c-1.293-2.155-3.393-3.771-5.883-4.429h0z"/><path d="M19.775 10.653l-2.942 3.908 2.942 2.214v-6.122z"/></g><g fill="#fbbd00"><path d="M16.729 16.775l3.047 6.122 2.941-3.908-5.988-2.214z"/><path d="M16.834 14.561l-5.446 7.236c.179.298.373.587.582.863l3.998 5.296 3.808-5.059v-6.122l-2.942-2.214z"/></g><g fill="#fff"><path d="M19.775 13.094l-1.841 3.682 1.841 3.682c2.033 0 3.682-1.648 3.682-3.682s-1.648-3.682-3.682-3.682z"/><path d="M16.094 16.775c0 2.033 1.648 3.682 3.682 3.682v-7.363c-2.033 0-3.682 1.648-3.682 3.682z"/></g></svg>