<svg xmlns="http://www.w3.org/2000/svg" width="40" height="40" fill="none"><circle cx="20" cy="20" r="20" fill="#FFE6DE"/><path d="M25.255 7H14.746C10.475 7 7 10.475 7 14.746v10.509C7 29.525 10.475 33 14.746 33h10.509C29.525 33 33 29.525 33 25.255V14.746C33 10.475 29.525 7 25.255 7zm5.13 18.255a5.13 5.13 0 0 1-5.13 5.13H14.746a5.13 5.13 0 0 1-5.13-5.13V14.746a5.13 5.13 0 0 1 5.13-5.13h10.509a5.13 5.13 0 0 1 5.13 5.13v10.509z" fill="url(#A)"/><path d="M20 13.276c-3.708 0-6.725 3.017-6.725 6.725s3.017 6.724 6.725 6.724 6.724-3.017 6.724-6.724-3.017-6.725-6.724-6.725zm0 10.833A4.11 4.11 0 0 1 15.891 20 4.11 4.11 0 0 1 20 15.891 4.11 4.11 0 0 1 24.109 20 4.11 4.11 0 0 1 20 24.109z" fill="url(#A)"/><path d="M26.738 14.937a1.61 1.61 0 1 0 0-3.223 1.61 1.61 0 1 0 0 3.223z" fill="url(#B)"/><defs><linearGradient id="A" x1="20" y1="32.924" x2="20" y2="7.202" gradientUnits="userSpaceOnUse"><stop stop-color="#e09b3d"/><stop offset=".3" stop-color="#c74c4d"/><stop offset=".6" stop-color="#c21975"/><stop offset="1" stop-color="#7024c4"/></linearGradient><linearGradient id="B" x1="26.738" y1="32.924" x2="26.738" y2="7.202" gradientUnits="userSpaceOnUse"><stop stop-color="#e09b3d"/><stop offset=".3" stop-color="#c74c4d"/><stop offset=".6" stop-color="#c21975"/><stop offset="1" stop-color="#7024c4"/></linearGradient></defs></svg>