<svg xmlns="http://www.w3.org/2000/svg" width="40" height="40" fill="none"><circle cx="20" cy="20" r="20" fill="#ffedc9"/><path d="M21.888 21.865v1.334a1.89 1.89 0 1 1-3.781 0v-1.334h3.781z" fill="#ff956d"/><path d="M18.109 21.866h3.78c.035-1.271.594-2.478 1.578-3.291 1.375-1.141 2.178-2.947 1.919-4.925-.318-2.433-2.312-4.39-4.753-4.661-3.286-.372-6.066 2.191-6.066 5.393a5.43 5.43 0 0 0 1.931 4.164c.989.831 1.576 2.036 1.611 3.32h0z" fill="#ffdc78"/><path d="M7.536 29.18h24.929v1.868H7.536V29.18z" fill="#ff956d"/><g fill="#fff"><path d="M20 29.18H8.635v-2.65a.68.68 0 0 1 .682-.682h7.351c1.84 0 3.332 1.492 3.332 3.332z"/><path d="M20 29.18h11.365v-2.65a.68.68 0 0 0-.682-.682h-7.351A3.33 3.33 0 0 0 20 29.18z"/></g><path d="M32.464 28.778h-.698V26.53c0-.598-.486-1.084-1.084-1.084h-7.351c-1.456 0-2.716.839-3.332 2.057-.616-1.218-1.876-2.057-3.332-2.057h-7.35c-.598 0-1.084.486-1.084 1.084v2.248h-.698c-.107 0-.209.042-.284.118s-.118.178-.118.284v1.868c0 .107.042.209.118.284s.178.118.284.118h24.929c.107 0 .209-.042.284-.118s.118-.178.118-.284V29.18c0-.107-.042-.209-.118-.284s-.178-.118-.284-.118h0zm-9.133-2.527h7.351a.28.28 0 0 1 .279.28v2.248H20.43c.197-1.426 1.423-2.527 2.902-2.527zm-14.294.28a.28.28 0 0 1 .28-.28h7.351c1.479 0 2.706 1.102 2.902 2.527H9.038V26.53zm23.025 4.116H7.938v-1.064h24.125v1.064zm-9.771-8.77c.032-1.176.554-2.266 1.433-2.993a5.84 5.84 0 0 0 2.061-5.286 5.86 5.86 0 0 0-5.107-5.009c-3.587-.404-6.513 2.41-6.513 5.793a5.84 5.84 0 0 0 2.075 4.472c.897.754 1.43 1.849 1.467 3.008l-.001.4h-.869a.4.4 0 0 0-.284.118c-.075.075-.118.178-.118.284a.4.4 0 0 0 .118.284c.076.075.178.118.284.118h.869v.133c0 1.264 1.029 2.293 2.293 2.293s2.293-1.028 2.293-2.293v-.133h.869c.107 0 .209-.042.284-.118s.118-.178.118-.284a.4.4 0 0 0-.402-.402h-.869v-.383zm-.805 1.322a1.49 1.49 0 0 1-1.489 1.489 1.49 1.49 0 0 1-1.489-1.489v-.931h2.977v.931zm.027-1.736h-3.029c-.136-1.247-.753-2.405-1.727-3.224-1.137-.96-1.789-2.366-1.789-3.857 0-2.925 2.532-5.343 5.619-4.994 2.255.251 4.106 2.065 4.399 4.314a5.04 5.04 0 0 1-1.776 4.563c-.958.792-1.564 1.942-1.697 3.198h0z" fill="#030f39"/></svg>