<svg xmlns="http://www.w3.org/2000/svg" width="40" height="40" fill="none"><circle cx="20" cy="20" r="20" fill="#d4ffd6"/><path d="M20 33c7.18 0 13-5.82 13-13S27.18 7 20 7 7 12.82 7 20s5.82 13 13 13z" fill="#4caf50"/><path d="M19.994 13.159c-2.929 0-7.216 1.693-7.216 5.835 0 4.518 4.657 5.587 6.234 5.911.913.185-.445 2.08.636 1.918 1.023-.156 6.801-3.617 7.494-7.228.682-3.536-2.993-6.436-7.147-6.436h0zm-2.71 7.58c-.052.052-.133.081-.237.081h-1.369c-.139 0-.237-.035-.295-.104s-.092-.185-.092-.341V17.62c0-.144.029-.254.087-.329s.133-.11.225-.11a.28.28 0 0 1 .231.11c.058.075.087.185.087.329v2.606h1.127c.104 0 .179.029.237.087.052.058.081.127.081.214s-.029.162-.081.214h0zm1.3-.3c0 .15-.029.26-.087.335s-.133.11-.231.11c-.093 0-.168-.035-.225-.11s-.087-.185-.087-.329v-2.82c0-.144.029-.254.087-.329s.133-.11.225-.11a.28.28 0 0 1 .231.11c.058.075.087.185.087.329v2.814zm3.322-.029c0 .312-.116.474-.341.474-.058 0-.11-.012-.15-.029-.046-.017-.087-.046-.127-.087s-.075-.087-.11-.144c-.035-.052-.069-.11-.104-.168l-1.184-2.086v2.097c0 .139-.029.243-.081.312-.058.069-.127.104-.214.104s-.162-.035-.214-.104-.081-.173-.081-.306v-2.762c0-.116.012-.208.035-.277.029-.075.069-.133.133-.179a.33.33 0 0 1 .202-.069c.058 0 .104.012.144.029a.38.38 0 0 1 .104.087.71.71 0 0 1 .092.139c.029.058.064.116.098.179l1.213 2.109v-2.132c0-.139.023-.243.075-.312s.121-.104.208-.104a.25.25 0 0 1 .214.104c.052.069.081.173.081.312v2.814h.006zm2.895.329c-.052.052-.127.081-.225.081h-1.589c-.139 0-.237-.035-.295-.104s-.092-.185-.092-.341v-2.692c0-.104.011-.191.04-.254s.069-.116.127-.144.133-.046.22-.046h1.537c.098 0 .173.023.225.075s.075.121.075.202c0 .087-.023.15-.075.202s-.121.075-.225.075H23.23v.878h1.248c.098 0 .168.023.214.075s.069.116.069.196-.023.15-.069.197c-.046.052-.121.075-.22.075h-1.248v1.017h1.34c.098 0 .173.029.225.081s.075.121.075.214a.26.26 0 0 1-.064.214h0z" fill="#fff"/></svg>