<svg xmlns="http://www.w3.org/2000/svg" width="40" height="40" fill="none"><circle cx="20" cy="20" r="20" fill="#d3f0ff"/><path d="M20 33c7.18 0 13-5.82 13-13S27.18 7 20 7 7 12.82 7 20s5.82 13 13 13z" fill="#007ab9"/><path d="M27.767 21.046v5.36H24.66v-5c0-1.256-.449-2.113-1.574-2.113-.859 0-1.369.577-1.594 1.136-.082.2-.103.477-.103.757v5.22h-3.108V17.06h3.108v1.324c-.006.01-.015.021-.021.031h.021v-.031c.413-.635 1.149-1.544 2.801-1.544 2.044 0 3.577 1.336 3.577 4.206zm-12.736-8.491c-1.063 0-1.758.698-1.758 1.615 0 .897.675 1.615 1.718 1.615h.02c1.084 0 1.758-.718 1.758-1.615-.021-.917-.674-1.615-1.737-1.615zm-1.574 13.851h3.107V17.06h-3.107v9.346z" fill="#f1f2f2"/></svg>