<svg xmlns="http://www.w3.org/2000/svg" width="40" height="40" fill="none"><circle cx="20" cy="20" r="20" fill="#d9e8ff"/><g fill-rule="evenodd"><path d="M20 7C12.677 7 7 12.364 7 19.61c0 3.79 1.553 7.065 4.083 9.327a1.04 1.04 0 0 1 .349.741l.071 2.312a1.04 1.04 0 0 0 1.459.92l2.58-1.139c.219-.096.464-.114.694-.051 1.186.326 2.448.5 3.763.5 7.323 0 13-5.364 13-12.61S27.323 7 20 7h0z" fill="url(#A)"/><path d="M12.194 23.298l3.819-6.058a1.95 1.95 0 0 1 2.82-.52l3.037 2.278a.78.78 0 0 0 .94-.003l4.102-3.113c.548-.415 1.262.24.896.821l-3.819 6.059a1.95 1.95 0 0 1-2.82.52l-3.037-2.278a.78.78 0 0 0-.94.003l-4.102 3.113c-.547.415-1.262-.24-.896-.821h0z" fill="#fff"/></g><defs><radialGradient id="A" cx="0" cy="0" r="1" gradientUnits="userSpaceOnUse" gradientTransform="translate(12.007 32.6844) scale(28.3157 28.3157)"><stop stop-color="#09f"/><stop offset=".61" stop-color="#a033ff"/><stop offset=".935" stop-color="#ff5280"/><stop offset="1" stop-color="#ff7061"/></radialGradient></defs></svg>