<svg xmlns="http://www.w3.org/2000/svg" width="40" height="40" fill="none"><circle cx="20" cy="20" r="20" fill="#ffd1d4"/><circle cx="20" cy="20" r="13" fill="#fff"/><path d="M20 7C12.828 7 7 12.818 7 19.978c0 5.325 3.183 9.89 7.8 11.904-.045-.895 0-2.014.224-2.998.269-1.074 1.659-7.071 1.659-7.071s-.404-.85-.404-2.058c0-1.924 1.121-3.356 2.51-3.356 1.166 0 1.748.895 1.748 1.969 0 1.164-.762 2.954-1.166 4.609-.314 1.387.672 2.506 2.062 2.506 2.465 0 4.124-3.177 4.124-6.892 0-2.864-1.928-4.967-5.424-4.967-3.945 0-6.41 2.954-6.41 6.22 0 1.119.314 1.924.852 2.551.224.269.269.403.179.716-.045.224-.224.806-.269 1.029-.09.313-.359.448-.672.313-1.838-.761-2.645-2.73-2.645-4.967 0-3.669 3.093-8.1 9.279-8.1 4.976 0 8.248 3.58 8.248 7.429 0 5.102-2.824 8.905-6.993 8.905-1.39 0-2.734-.761-3.183-1.611l-.897 3.58c-.269.984-.807 2.014-1.3 2.774C17.49 32.821 18.745 33 20 33c7.172 0 13-5.818 13-12.978S27.172 7 20 7z" fill="#cb1f24"/></svg>