<svg xmlns="http://www.w3.org/2000/svg" width="40" height="40" fill="none"><circle cx="20" cy="20" r="20" fill="#ebebff"/><path d="M20 9.437c-5.834.002-10.56 4.735-10.556 10.566a10.54 10.54 0 0 0 1.619 5.615l-1.016 4.333 4.333-1.016c4.936 3.108 11.458 1.627 14.566-3.309s1.627-11.456-3.309-14.564A10.54 10.54 0 0 0 20 9.437zm-6.032 20.696l-1.746.406.277 1.187 1.284-.298a12.84 12.84 0 0 0 3.089 1.198l.292-1.183a11.71 11.71 0 0 1-3.189-1.318l-.009.008zm-5.687-2.64l1.187.275.406-1.745a11.68 11.68 0 0 1-1.31-3.197l-1.183.292a12.93 12.93 0 0 0 1.198 3.089l-.298 1.286zm2.861 3.292l-2.516.588.586-2.516-1.187-.277-.586 2.516a1.22 1.22 0 0 0 .908 1.464 1.24 1.24 0 0 0 .556 0l2.514-.578-.275-1.197zM18.235 8.35a11.86 11.86 0 0 1 3.529 0l.182-1.204a13.04 13.04 0 0 0-3.895 0l.184 1.204zm12.896 4.93l-1.043.626a11.78 11.78 0 0 1 1.35 3.262l1.183-.292a12.97 12.97 0 0 0-1.49-3.597zm-20.615-.267c.703-.952 1.544-1.794 2.497-2.497l-.732-.982a13 13 0 0 0-2.746 2.746l.982.732zm16.47-2.497c.952.703 1.794 1.544 2.497 2.497l.982-.732a13 13 0 0 0-2.746-2.746l-.732.982zm2.497 16.471c-.703.952-1.544 1.793-2.497 2.494l.724.982a13.11 13.11 0 0 0 2.755-2.746l-.982-.73zm-7.719 4.661a11.86 11.86 0 0 1-3.529 0l-.182 1.206a13.06 13.06 0 0 0 3.895 0l-.184-1.206zm10.855-8.529l-1.183-.292a11.83 11.83 0 0 1-1.35 3.267l1.043.628a12.91 12.91 0 0 0 1.49-3.603zm-.838-3.121c0 .59-.045 1.181-.133 1.765l1.204.184a13.06 13.06 0 0 0 0-3.895l-1.204.182a11.73 11.73 0 0 1 .133 1.764zM26.72 31.13l-.626-1.043a11.78 11.78 0 0 1-3.263 1.35l.292 1.183a12.97 12.97 0 0 0 3.597-1.489zM8.219 19.999c0-.59.044-1.18.131-1.764l-1.204-.182a13.06 13.06 0 0 0 0 3.895l1.204-.184a11.98 11.98 0 0 1-.131-1.765zm.65-6.719a13.01 13.01 0 0 0-1.49 3.599l1.183.292a11.81 11.81 0 0 1 1.35-3.267l-1.043-.624zm14.25-5.901l-.292 1.183c1.151.283 2.252.738 3.267 1.35l.629-1.043c-1.117-.675-2.334-1.176-3.603-1.489zm-6.24 0l.292 1.183c-1.151.283-2.252.738-3.267 1.35l-.626-1.043a13.05 13.05 0 0 1 3.601-1.489z" fill="#3a76f0"/></svg>