<svg xmlns="http://www.w3.org/2000/svg" width="40" height="40" fill="none"><circle cx="20" cy="20" r="20" fill="#cdf0ff"/><path d="M32.248 22.76c.187-.847.286-1.723.286-2.624 0-6.752-5.55-12.226-12.399-12.226-.722 0-1.431.062-2.12.179A7.22 7.22 0 0 0 14.191 7C10.219 7 7 10.175 7 14.092c0 1.308.361 2.533.988 3.587a12.07 12.07 0 0 0-.251 2.457c0 6.754 5.55 12.025 12.398 12.025.776 0 1.535-.071 2.27-.205 1.013.536 2.17 1.044 3.4 1.044 3.972 0 7.19-3.174 7.19-7.091 0-1.13-.269-2.2-.747-3.149z" fill="#00aff0"/><path d="M25.79 25.127c-.478.68-1.179 1.215-2.101 1.599s-2.014.579-3.277.579c-1.515 0-2.764-.263-3.75-.79-.697-.378-1.265-.886-1.702-1.517s-.654-1.248-.654-1.847a1.18 1.18 0 0 1 .392-.89c.261-.249.595-.372.999-.372.328 0 .607.095.833.289s.422.478.581.857c.196.451.406.827.634 1.128s.546.552.957.747.954.293 1.624.293c.921 0 1.67-.197 2.247-.592s.864-.889.864-1.479c0-.468-.156-.851-.466-1.141s-.713-.516-1.205-.669-1.149-.319-1.975-.492c-1.102-.236-2.026-.516-2.769-.833s-1.335-.752-1.77-1.301-.655-1.233-.655-2.048c0-.778.23-1.468.691-2.071s1.126-1.068 2-1.393 1.899-.487 3.078-.487c.942 0 1.758.108 2.446.322s1.258.502 1.711.859.786.73.995 1.123.314.775.314 1.146c0 .34-.13.649-.392.921a1.3 1.3 0 0 1-.979.41c-.357 0-.627-.083-.812-.246s-.386-.432-.601-.805c-.28-.533-.614-.949-1.006-1.247s-1.019-.448-1.885-.448c-.802 0-1.45.161-1.942.487s-.739.715-.739 1.171a1.13 1.13 0 0 0 .252.732c.166.207.397.382.692.529a4.97 4.97 0 0 0 .889.348l1.488.366 2.35.617c.701.225 1.299.499 1.791.818s.877.73 1.152 1.222.414 1.093.414 1.806c0 .853-.24 1.621-.717 2.302z" fill="#fff"/></svg>