<svg xmlns="http://www.w3.org/2000/svg" width="40" height="40" fill="none"><circle cx="20" cy="20" r="20" fill="#efefef"/><g clip-path="url(#A)"><g fill="#e91e63"><path d="M16.58 20.705a2.73 2.73 0 0 0-2.731 2.731v6.832a2.731 2.731 0 1 0 5.462 0v-6.832c-.001-1.508-1.224-2.731-2.731-2.731zm-9.559 2.731c0 1.509 1.224 2.733 2.733 2.733s2.733-1.224 2.733-2.733v-2.733H9.756c-1.511 0-2.735 1.224-2.735 2.733h0z"/></g><g fill="#00bcd4"><path d="M16.583 6.999c-1.512 0-2.737 1.224-2.737 2.733s1.224 2.733 2.733 2.733h2.731V9.732a2.73 2.73 0 0 0-2.728-2.733h0zM9.735 19.318h6.844c1.509 0 2.733-1.224 2.733-2.733s-1.224-2.733-2.733-2.733H9.735c-1.509 0-2.733 1.224-2.733 2.733s1.224 2.733 2.733 2.733h0z"/></g><g fill="#4caf50"><path d="M30.245 13.85a2.73 2.73 0 0 0-2.728 2.728v.006 2.733h2.731c1.509 0 2.733-1.224 2.733-2.733s-1.224-2.733-2.733-2.733h-.003zm-9.551-4.118v6.852a2.731 2.731 0 1 0 5.462 0V9.732a2.731 2.731 0 1 0-5.462 0h0z"/></g><g fill="#ff9800"><path d="M26.156 30.266a2.73 2.73 0 0 0-2.731-2.731h-2.731v2.733a2.731 2.731 0 1 0 5.462-.002zm4.113-9.563h-6.844c-1.509 0-2.733 1.224-2.733 2.733s1.224 2.733 2.733 2.733h6.845c1.509 0 2.733-1.224 2.733-2.733s-1.224-2.733-2.733-2.733h0z"/></g></g><defs><clipPath id="A"><path fill="#fff" transform="translate(7 7)" d="M0 0h26v26H0z"/></clipPath></defs></svg>