<svg xmlns="http://www.w3.org/2000/svg" width="40" height="40" fill="none"><circle cx="20" cy="20" r="20" fill="#d4dbff"/><g clip-path="url(#A)"><path d="M33 20c0-7.18-5.82-13-13-13S7 12.82 7 20s5.82 13 13 13 13-5.82 13-13z" fill="#0027d9"/><path d="M24.136 14.398h-8.273c-.392 0-.768.156-1.045.433s-.433.653-.433 1.045v9.72l2.91-2.092h6.84c.392 0 .768-.156 1.045-.433s.433-.653.433-1.045v-6.145c.001-.194-.037-.387-.111-.567s-.183-.343-.32-.481-.3-.247-.48-.322-.372-.113-.567-.113h0zm-6.722 5.284a.7.7 0 0 1-.647-.432.7.7 0 0 1 .152-.763.7.7 0 0 1 .763-.152.7.7 0 0 1 .432.647.7.7 0 0 1-.7.7h0zm2.585 0a.7.7 0 0 1-.647-.432.7.7 0 0 1 .152-.763.7.7 0 0 1 .763-.152.7.7 0 0 1 .432.647.7.7 0 0 1-.7.7h0zm2.585 0a.7.7 0 0 1-.647-.432.7.7 0 0 1 .152-.763.7.7 0 0 1 .763-.152.7.7 0 0 1 .432.647.7.7 0 0 1-.7.7z" fill="#fff"/></g><defs><clipPath id="A"><path fill="#fff" transform="translate(7 7)" d="M0 0h26v26H0z"/></clipPath></defs></svg>