<svg xmlns="http://www.w3.org/2000/svg" width="40" height="40" fill="none"><circle cx="20" cy="20" r="20" fill="#fff2c8"/><path d="M20 33c7.18 0 13-5.82 13-13S27.18 7 20 7 7 12.82 7 20s5.82 13 13 13z" fill="#ffc91b"/><path d="M28.125 23.865a1.13 1.13 0 0 1-.47.906c-.174.129-.367.228-.573.296a7.2 7.2 0 0 1-.987.235c-.014.118-.038.236-.071.35a1.23 1.23 0 0 1-.702.824c-.195.075-.404.111-.613.105-.148 0-.312-.012-.482-.024l-.558-.028c-.223-.011-.447.025-.656.105-.21.098-.434.229-.671.366-.657.387-1.402.83-2.343.83s-1.686-.443-2.343-.826l-.671-.366c-.209-.08-.432-.116-.656-.105a6.95 6.95 0 0 0-.558.028l-.482.024a1.58 1.58 0 0 1-.613-.105c-.349-.151-.609-.455-.702-.824-.033-.115-.056-.232-.071-.35a7.17 7.17 0 0 1-.987-.235 2.02 2.02 0 0 1-.573-.295 1.13 1.13 0 0 1-.47-.91c.005-.395.24-.752.603-.91a3.3 3.3 0 0 1 .443-.165c.629-.202 1.559-.499 2.056-2.05l-.755-.296a1.37 1.37 0 0 1-.861-1.582 1.24 1.24 0 0 1 .443-.709 1.26 1.26 0 0 1 .768-.264c.097 0 .193.012.287.034l.254.059.018-.926a4.82 4.82 0 0 1 .389-1.887c.496-1.167 1.423-2.099 2.588-2.601A4.73 4.73 0 0 1 20 12.178a4.77 4.77 0 0 1 1.879.389c1.163.502 2.091 1.429 2.593 2.593.256.596.389 1.238.39 1.886l.018.926.254-.059a1.24 1.24 0 0 1 1.505.939c.153.671-.216 1.352-.861 1.591l-.755.295c.504 1.548 1.433 1.844 2.059 2.043a3.41 3.41 0 0 1 .443.165c.364.16.599.52.6.917h0z" fill="#fff"/><path d="M28.122 23.865a1.13 1.13 0 0 1-.47.906c-.174.129-.367.228-.573.295a7.2 7.2 0 0 1-.987.235c-.015.118-.038.235-.071.35a1.23 1.23 0 0 1-.702.824c-.195.075-.404.111-.613.105-.148 0-.312-.012-.482-.024l-.558-.028c-.223-.011-.447.025-.656.105-.21.097-.434.229-.671.366-.657.387-1.402.83-2.343.83s-1.686-.443-2.343-.826l-.671-.366c-.209-.08-.432-.115-.656-.105-.188 0-.375.013-.558.028l-.482.024a1.58 1.58 0 0 1-.613-.105c-.349-.151-.608-.456-.702-.824a2.32 2.32 0 0 1-.071-.35c-.334-.055-.664-.133-.987-.235-.206-.067-.399-.167-.573-.296a1.13 1.13 0 0 1-.47-.91c.005-.395.24-.751.603-.91.144-.066.292-.121.443-.165.629-.202 1.559-.499 2.056-2.05l-.755-.295c-.642-.239-1.009-.914-.861-1.582a1.24 1.24 0 0 1 .443-.709 1.26 1.26 0 0 1 .768-.264c.096 0 .193.012.287.034l.254.059.018-.926a4.82 4.82 0 0 1 .389-1.886c.497-1.168 1.423-2.099 2.588-2.601.597-.258 1.242-.391 1.892-.389a4.77 4.77 0 0 1 1.879.389c1.163.502 2.091 1.429 2.593 2.593a4.8 4.8 0 0 1 .39 1.886l.018.926.254-.059a1.24 1.24 0 0 1 1.505.94c.153.671-.216 1.352-.861 1.591l-.755.296c.504 1.548 1.433 1.844 2.059 2.043a3.38 3.38 0 0 1 .443.165c.364.16.599.52.6.917h0z" stroke="#000" stroke-width=".6" stroke-miterlimit="10"/></svg>