<svg xmlns="http://www.w3.org/2000/svg" width="40" height="40" fill="none"><circle cx="20" cy="20" r="20" fill="#d5f1ff"/><g clip-path="url(#A)"><path d="M20 33c7.18 0 13-5.82 13-13S27.18 7 20 7 7 12.82 7 20s5.82 13 13 13z" fill="#039be5"/><path d="M12.949 19.718l12.534-4.833c.582-.21 1.09.142.901 1.022l.001-.001-2.134 10.054c-.158.713-.582.886-1.174.55l-3.25-2.395-1.567 1.51c-.173.173-.32.319-.655.319l.231-3.307 6.023-5.442c.262-.231-.059-.361-.404-.131l-7.443 4.686-3.209-1.001c-.697-.221-.712-.697.147-1.033h0z" fill="#fff"/></g><defs><clipPath id="A"><path fill="#fff" transform="translate(7 7)" d="M0 0h26v26H0z"/></clipPath></defs></svg>