<svg xmlns="http://www.w3.org/2000/svg" width="40" height="40" fill="none"><circle cx="20" cy="20" r="20" fill="#E8E8E8"/><path d="M33.001 20c0 7.179-5.82 13-13.001 13h-.024C12.807 32.987 7 27.17 7 20S12.807 7.013 19.976 7H20c7.18 0 13.001 5.819 13.001 13z" fill="#000"/><path d="M19.976 7v26C12.807 32.987 7 27.17 7 20S12.807 7.013 19.976 7h0z" fill="#0c0c0c"/><path d="M27.074 16.401l-.016 2.663a6.42 6.42 0 0 1-1.538-.206c-.775-.202-1.506-.546-2.156-1.014l.004 1.172-.004 1.427c-.012 2.45.049 2.924-.166 3.893a5.06 5.06 0 0 1-.183.689c-.414 1.153-1.316 2.077-2.235 2.568a4.45 4.45 0 0 1-.804.331c-1.738.527-3.825.064-4.903-1.217l-.007-.008-.008-.011c-.916-1.104-1.115-2.827-1.135-3.267l-.004-.111a5.41 5.41 0 0 1 .256-1.776c.186-.593.798-1.832 2.172-2.584a4.75 4.75 0 0 1 2.802-.536l-.031 2.695c-.054-.014-1.371-.326-2.235.571-.783.812-.732 2.121-.177 2.863l.094.114c.311.347.705.477.971.568a3.21 3.21 0 0 0 1.094.16c.398-.006.784-.13 1.111-.357.903-.614 1.025-1.707 1.03-1.769l-.031-10.556V12.7l1.693-.03h.027l.245-.005c.181.651.488 1.261.903 1.794.131.167.272.325.423.474a5.44 5.44 0 0 0 2.005 1.239h.005c.261.095.527.172.799.229h0z" fill="#fd2854"/><path d="M26.308 17.606h-.005c-.912.146-1.845.075-2.725-.207a5.8 5.8 0 0 1-1.706-.89 17.27 17.27 0 0 1 0 5.638c-.366 2.194-.595 3.569-1.819 4.448l-.078.054c-1.691 1.145-4.053.577-4.919.038l-.013-.008-.024-.015c-.285-.189-.553-.403-.8-.641-.442-.429-.795-.941-1.038-1.507s-.372-1.174-.378-1.79c-.017-.638.089-1.273.312-1.871.144-.384.68-1.752 2.172-2.584a4.85 4.85 0 0 1 3.134-.53l-.012.641v.005l-.025 1.352a4.09 4.09 0 0 0-1.428-.079c-.384.047-.761.092-1.161.343a2.33 2.33 0 0 0-1.011 1.443 1.94 1.94 0 0 0-.051.888c.015.085.128.672.602 1.094.159.142.227.147.46.365.205.192.256.284.444.444l.122.094c.119.087.227.155.34.216.47.246 1.31.272 1.926-.027.853-.415 1.318-1.368 1.316-1.934l-.031-10.559h.059l2.615-.015a2.07 2.07 0 0 0 .084.603l.02.064.017.05a2.86 2.86 0 0 0 .14.311l.037.074v.006l.006.017.006.012.012.022s.008.017.013.025l.095.178a3.76 3.76 0 0 0 .074.128l.028.046.042.068.051.081c.199.315.549.844 1.045 1.245.697.563 1.498.721 2 .769l.01.473.043 1.426z" fill="#24f6fa"/><path d="M26.316 18.359c-1.32.048-2.616-.362-3.668-1.162v5.638c-.013.216-.202 2.597-2.353 3.908l-.32.179c-2.024 1.033-4.002.224-4.197.14a2.62 2.62 0 0 1-.555-.256l-.158-.106-.046-.034c-1.32-1.002-1.374-3.043-1.383-3.344-.014-.602.073-1.202.256-1.776.218-.695.868-1.867 2.172-2.584.719-.392 1.528-.59 2.347-.577v.005l-.032 2.032a2.34 2.34 0 0 0-1.807.27 2.33 2.33 0 0 0-1.011 1.443 2.08 2.08 0 0 0-.051.887 2.03 2.03 0 0 0 .499.978c.106.122.225.233.354.331a2.08 2.08 0 0 0 .34.216l.004.003a2.01 2.01 0 0 0 2.158.842 2.4 2.4 0 0 0 .543-.183 2.15 2.15 0 0 0 .568-.393c.648-.623.743-1.486.748-1.538l-.028-10.564.282-.006 1.693-.033h.024l.02.05.14.311.037.074v.006l.006.017.006.011c.003.008.007.015.012.022l.013.025.095.177.074.128.027.046.042.069.051.081c.293.458.644.877 1.045 1.245a6.31 6.31 0 0 0 2.005 1.239h.005l.024 1.425.019.759z" fill="#fff"/></svg>