<svg xmlns="http://www.w3.org/2000/svg" width="40" height="40" fill="none"><circle cx="20" cy="20" r="20" fill="#d4f2ff"/><path d="M33 11.501c-.967.424-1.997.705-3.071.842a5.3 5.3 0 0 0 2.345-2.946c-1.03.614-2.168 1.048-3.38 1.29A5.34 5.34 0 0 0 25 9a5.33 5.33 0 0 0-5.327 5.332c0 .422.036.829.123 1.216-4.431-.216-8.353-2.34-10.987-5.575-.46.798-.73 1.711-.73 2.694 0 1.846.951 3.482 2.368 4.43-.856-.016-1.696-.265-2.408-.656v.058c0 2.59 1.848 4.742 4.271 5.237-.434.119-.907.175-1.397.175-.341 0-.686-.019-1.009-.091.691 2.111 2.65 3.663 4.981 3.713a10.71 10.71 0 0 1-6.609 2.273c-.437 0-.856-.02-1.276-.073 2.361 1.523 5.159 2.392 8.177 2.392 9.808 0 15.171-8.125 15.171-15.168 0-.236-.008-.463-.02-.689 1.058-.751 1.947-1.688 2.672-2.767z" fill="#03a9f4"/></svg>