<svg xmlns="http://www.w3.org/2000/svg" width="40" height="40" fill="none"><circle cx="20" cy="20" r="20" fill="#e3e0ff"/><g clip-path="url(#A)"><path d="M20 33c7.18 0 13-5.82 13-13S27.18 7 20 7 7 12.82 7 20s5.82 13 13 13z" fill="#6f3faa"/><g fill="#fff"><path d="M27.509 15.782v-.019c-.174-.706-.629-1.436-1.226-2.05-.697-.721-1.585-1.287-2.433-1.47h-.018a20.34 20.34 0 0 0-7.655 0h-.018c-1.575.341-3.284 1.987-3.665 3.52v.019a15 15 0 0 0 0 6.454v.018c.272 1.093 1.217 2.242 2.308 2.937a4.43 4.43 0 0 0 1.151.533v1.711a.69.69 0 0 0 1.182.478l1.734-1.802 1.129.032a20.41 20.41 0 0 0 3.828-.363h.018c1.57-.343 3.281-1.988 3.659-3.522v-.018a15 15 0 0 0 .007-6.457h0zm-1.372 6.138c-.254 1-1.551 2.246-2.584 2.474a18.99 18.99 0 0 1-4.071.332c-.013-.001-.027.001-.039.006a.09.09 0 0 0-.032.023l-1.266 1.3-1.347 1.381a.15.15 0 0 1-.08.045.16.16 0 0 1-.092-.008c-.029-.012-.054-.032-.072-.058s-.027-.057-.027-.088v-2.836c0-.023-.008-.045-.023-.062s-.035-.029-.057-.034a2.5 2.5 0 0 1-.617-.236c-.878-.468-1.762-1.429-1.966-2.241a13.59 13.59 0 0 1 0-5.834c.253-.996 1.557-2.238 2.582-2.469a18.91 18.91 0 0 1 7.107 0c.569.127 1.219.56 1.727 1.092.418.433.739.932.857 1.381a13.59 13.59 0 0 1 0 5.829zm-2.547.148a2.19 2.19 0 0 1-.94 1.034 2.25 2.25 0 0 1-.406.128l-.443-.137a11.21 11.21 0 0 1-3.087-1.816 7.79 7.79 0 0 1-.773-.758c-.592-.681-1.089-1.44-1.477-2.254l-.511-1.182c-.148-.362.071-.739.295-1.009.22-.251.49-.452.793-.591a.51.51 0 0 1 .637.148 8.31 8.31 0 0 1 .993 1.378c.089.143.12.315.085.48s-.131.311-.27.406c-.074.052-.148.111-.211.168-.063.046-.117.103-.16.168-.037.061-.059.129-.066.2s.004.142.03.209c.285.784.718 1.439 1.365 1.898a3.56 3.56 0 0 0 .703.386 1.07 1.07 0 0 0 .529.13c.322-.038.428-.394.653-.578a.62.62 0 0 1 .739-.034l.7.477a7.73 7.73 0 0 1 .657.502.52.52 0 0 1 .164.644h0zm-3.166-7.079h-.189.189z"/><path d="M23.693 19.417c-.148 0-.22-.126-.23-.263l-.071-.811c-.064-.454-.222-.889-.464-1.278a3.4 3.4 0 0 0-.972-1.023c-.392-.269-.836-.453-1.303-.54-.213-.038-.43-.047-.644-.069-.136-.015-.315-.024-.344-.192-.005-.033-.002-.066.008-.098s.026-.061.047-.086.048-.045.078-.059.063-.021.096-.021a.9.9 0 0 1 .106 0c.646.005 1.28.17 1.847.479a3.93 3.93 0 0 1 1.403 1.293 3.86 3.86 0 0 1 .558 1.431c.056.319.077.647.102.972.005.032.003.064-.005.095a.23.23 0 0 1-.119.144c-.029.014-.061.022-.093.023zm-.799-.69a.57.57 0 0 1-.018.13.22.22 0 0 1-.074.108c-.035.028-.078.044-.122.046s-.089-.009-.127-.032-.067-.058-.085-.099a.63.63 0 0 1-.022-.183 2.38 2.38 0 0 0-.192-.962l-.099-.195a2.15 2.15 0 0 0-.903-.847c-.228-.107-.469-.182-.718-.222l-.328-.043c-.028-.001-.056-.009-.082-.021s-.048-.03-.067-.052a.21.21 0 0 1-.048-.159c0-.029.006-.058.018-.084s.029-.05.051-.069.047-.034.075-.043.057-.011.085-.008c.434.017.859.128 1.245.325a2.51 2.51 0 0 1 1.101 1.087 2.84 2.84 0 0 1 .272.872l.018.12.018.287.002.044h0zm-1.012-.204a.19.19 0 0 1-.056.098c-.028.026-.063.044-.101.05h-.032c-.048.003-.097-.01-.137-.036a.23.23 0 0 1-.088-.111c-.009-.024-.015-.05-.018-.075a2.12 2.12 0 0 0-.044-.295.86.86 0 0 0-.316-.495c-.078-.056-.164-.098-.255-.124-.117-.034-.239-.025-.355-.053-.057-.01-.108-.042-.141-.09a.22.22 0 0 1-.037-.163.23.23 0 0 1 .086-.137c.044-.034.099-.05.155-.046.677.049 1.182.374 1.312 1.099.013.067.023.135.028.204a.59.59 0 0 1-.002.176h0z"/></g></g><defs><clipPath id="A"><path fill="#fff" transform="translate(7 7)" d="M0 0h26v26H0z"/></clipPath></defs></svg>