<svg xmlns="http://www.w3.org/2000/svg" width="40" height="40" fill="none"><circle cx="20" cy="20" r="20" fill="#d4f4ff"/><path d="M20 33c7.18 0 13-5.82 13-13S27.18 7 20 7 7 12.82 7 20s5.82 13 13 13z" fill="#3cf"/><path fill-rule="evenodd" d="M21.035 26.713l-1.915-.001a2.34 2.34 0 0 0-2.293-1.887 2.32 2.32 0 0 0-1.974 1.075v.015a7.37 7.37 0 0 1-1.894-1.403c-.66-.669-1.018-1.281-1.182-1.668a2.29 2.29 0 0 0 1.123-.654c.404-.437.628-1.012.625-1.607v-1.398c0-1.666.553-3.293 1.574-4.606 1.459-1.877 3.618-2.927 5.937-2.927 1.997 0 3.878.783 5.296 2.207.699.697 1.253 1.526 1.631 2.438a7.49 7.49 0 0 1 .569 2.878 7.49 7.49 0 0 1-2.195 5.32c-1.383 1.388-3.28 2.219-5.299 2.219" fill="#fff"/><mask id="A" maskUnits="userSpaceOnUse" x="10" y="10" width="20" height="20" mask-type="alpha"><path d="M10.714 10.714h18.749v18.813H10.714V10.714z" fill="#fff"/></mask><g mask="url(#A)"><path fill-rule="evenodd" d="M21.035 26.713l-1.915-.001a2.34 2.34 0 0 0-2.294-1.887 2.32 2.32 0 0 0-1.974 1.074v.015a7.37 7.37 0 0 1-1.893-1.403c-.66-.669-1.018-1.281-1.182-1.668.43-.105.819-.332 1.123-.654a2.35 2.35 0 0 0 .625-1.607v-1.399c0-1.666.553-3.293 1.574-4.606 1.459-1.877 3.618-2.927 5.937-2.927 1.997 0 3.878.783 5.296 2.207.699.697 1.253 1.526 1.631 2.438a7.49 7.49 0 0 1 .569 2.878 7.49 7.49 0 0 1-2.195 5.32c-1.383 1.388-3.28 2.219-5.299 2.219m8.428-7.54a8.42 8.42 0 0 0-2.472-5.978c-1.594-1.6-3.709-2.481-5.955-2.481-2.575 0-4.975 1.152-6.613 3.213-1.185 1.495-1.83 3.347-1.829 5.255v1.403c0 .715-.561 1.418-1.51 1.42a.36.36 0 0 0-.344.256c-.176.587.538 1.881 1.551 2.909a8.23 8.23 0 0 0 2.217 1.606 2.35 2.35 0 0 0 .045 1.014c.089.33.249.638.469.9s.495.473.805.618a2.35 2.35 0 0 0 .99.221 2.33 2.33 0 0 0 1.488-.527c.42-.343.707-.822.812-1.354l1.967.001c.262 1.329 1.639 2.24 3.111 1.741.317-.109.606-.287.845-.523s.421-.522.535-.837c.22-.613.189-1.208-.011-1.718a8.5 8.5 0 0 0 1.432-1.157 8.42 8.42 0 0 0 2.468-5.981" fill="#000"/><path fill-rule="evenodd" d="M25.717 17.297a.94.94 0 0 0-.937-.94.94.94 0 0 0 0 1.881.94.94 0 0 0 .937-.941m-5.627 0a.94.94 0 0 0-.937-.94.94.94 0 0 0 0 1.881.94.94 0 0 0 .937-.941zm-.651 3.081a.47.47 0 0 0-.427-.267c-.079 0-.156.02-.225.057s-.127.092-.17.158-.067.142-.072.22.009.157.042.228a3.75 3.75 0 0 0 3.392 2.154 3.75 3.75 0 0 0 3.392-2.154c.033-.071.048-.15.042-.228a.47.47 0 0 0-.073-.22c-.042-.066-.101-.121-.17-.158s-.146-.057-.225-.057h-.012a.46.46 0 0 0-.415.267c-.229.48-.589.885-1.039 1.169s-.97.434-1.502.434-1.052-.151-1.502-.434-.809-.689-1.038-1.169z" fill="#000"/></g></svg>