<svg xmlns="http://www.w3.org/2000/svg" width="40" height="40" fill="none"><circle cx="20" cy="20" r="20" fill="#ddffd3"/><path d="M20 33c7.18 0 13-5.82 13-13S27.18 7 20 7 7 12.82 7 20s5.82 13 13 13z" fill="#2dc100"/><g fill="#fff"><path d="M25.717 18.375c-4.321-2.195-9.231 1.839-6.986 5.54 1.043 1.737 3.449 2.835 6.296 2.012.57.22 1.077.579 1.625.846l-.457-1.428c2.946-2.095 2.302-5.556-.479-6.97zm-3.449 2.497a.67.67 0 0 1-.19.27c-.085.073-.187.123-.296.146s-.223.018-.33-.014a.67.67 0 0 1-.283-.171c-.079-.08-.136-.178-.167-.285s-.034-.221-.009-.33a.67.67 0 0 1 .423-.481c.498-.21 1.071.366.852.864zm3.234.063h.009a.68.68 0 0 1-.487.356.68.68 0 0 1-.578-.173c-.12-.142-.201-.313-.232-.496.069-.312.284-.634.629-.648.476-.067.903.524.659.962h0z"/><path d="M23.664 17.471c-.295-1.451-1.309-2.675-2.585-3.382h.018c-4.532-2.561-10.174 1.011-9.084 5.222.295 1.25 1.157 2.299 2.206 2.997-.202.578-.396 1.154-.578 1.734l1.98-1.059a7.28 7.28 0 0 0 2.474.352c-1.034-2.984 1.625-6.145 5.569-5.865h0zm-4.107-1.733c.128-.046.265-.061.399-.042s.262.07.372.149.199.184.259.306.09.256.086.392v.009c0 .651-.863 1.059-1.35.617-.505-.365-.357-1.248.233-1.431h0zm-2.983.979c-.117.567-.873.841-1.316.459-.514-.363-.369-1.263.233-1.446.591-.229 1.262.374 1.083.987z"/></g></svg>