<svg xmlns="http://www.w3.org/2000/svg" width="40" height="40" fill="none"><circle cx="20" cy="20" r="20" fill="#d4ffea"/><g fill="#55cd6c"><path d="M7 33l1.793-6.5C7.628 24.483 7 22.241 7 19.91 7 12.828 12.828 7 19.955 7S33 12.828 33 19.91 27.083 33 19.955 33c-2.241 0-4.393-.717-6.321-1.793L7 33z"/><path d="M13.993 28.876l.403.224c1.659 1.031 3.586 1.659 5.603 1.659 5.872 0 10.759-4.886 10.759-10.848S25.872 9.241 19.955 9.241 9.241 13.993 9.241 19.91a10.86 10.86 0 0 0 1.659 5.783l.269.403-1.031 3.766 3.855-.986z"/></g><path d="M16.504 13.904l-.852-.045c-.269 0-.538.09-.717.269-.403.359-1.076 1.031-1.255 1.928-.314 1.345.179 2.959 1.345 4.572s3.407 4.214 7.352 5.334c1.255.359 2.241.134 3.048-.359.628-.404 1.031-1.031 1.166-1.704l.134-.628a.45.45 0 0 0-.224-.493l-2.824-1.3c-.179-.09-.403-.045-.538.135l-1.121 1.435c-.09.09-.224.134-.359.09-.762-.269-3.317-1.345-4.707-4.035-.045-.134-.045-.269.045-.359l1.076-1.21c.09-.134.134-.314.09-.448l-1.3-2.914c-.045-.134-.179-.269-.359-.269z" fill="#fefefe"/></svg>