<svg xmlns="http://www.w3.org/2000/svg" width="40" height="40" fill="none"><g clip-path="url(#A)"><path d="M20 40c11.046 0 20-8.954 20-20S31.046 0 20 0 0 8.954 0 20s8.954 20 20 20z" fill="#ffcaf5"/><path d="M30.574 13H9.426C8.086 13 7 14.086 7 15.426v7.963c0 1.34 1.086 2.426 2.426 2.426h10.065l4.461 2.592-.891-2.592h7.514c1.34 0 2.426-1.086 2.426-2.426v-7.963C33 14.086 31.914 13 30.574 13z" fill="#9c5a90"/><path d="M10.781 24.604h-.011a.89.89 0 0 1-.727-.39c-.259-.381-.639-1.259-1.281-4.698l-.606-3.596a.89.89 0 1 1 1.765-.262l.592 3.517.499 2.398 2.32-4.577a.89.89 0 0 1 .912-.5.89.89 0 0 1 .766.704 22.65 22.65 0 0 0 1.074 3.514c.201-1.899.589-4.309 1.329-5.826a.89.89 0 1 1 1.604.782c-1.177 2.412-1.353 7.907-1.354 7.962-.005.174-.061.343-.161.486s-.239.253-.401.317a.89.89 0 0 1-.96-.198c-.799-.799-1.528-2.177-2.166-4.094l-.08-.246-2.387 4.335c-.083.115-.192.209-.318.274a.89.89 0 0 1-.408.099zm13.851-7.529c-.372-.755-1.01-1.276-1.843-1.508-.951-.264-1.981.087-2.756.94-.92 1.011-1.591 2.905-.716 5.187.599 1.564 1.541 1.852 2.15 1.852l.184-.009c1.62-.154 2.981-2.298 3.243-3.768.188-1.053.101-1.96-.261-2.694zm-1.495 2.38c-.083.459-.37 1.067-.733 1.548-.373.495-.74.74-.922.756-.111.011-.317-.228-.5-.704-.366-.955-.489-2.405.37-3.349.256-.282.554-.441.81-.441.052 0 .101.006.148.02.956.266.977 1.326.827 2.17zm8.123-2.38c-.187-.377-.439-.697-.748-.95s-.679-.442-1.096-.558c-.95-.264-1.98.087-2.756.94-.919 1.011-1.59 2.905-.716 5.187.599 1.564 1.541 1.852 2.15 1.852l.185-.009c1.619-.154 2.98-2.298 3.243-3.768.189-1.053.1-1.96-.26-2.694zm-1.496 2.38c-.082.459-.37 1.067-.732 1.548-.374.495-.74.74-.923.756-.11.011-.317-.228-.5-.704-.365-.955-.488-2.405.37-3.349.257-.282.555-.441.81-.441.052 0 .101.006.149.02.956.266.976 1.326.826 2.17z" fill="#fff"/></g><defs><clipPath id="A"><path fill="#fff" d="M0 0h40v40H0z"/></clipPath></defs></svg>