<svg xmlns="http://www.w3.org/2000/svg" width="40" height="40" fill="none"><g clip-path="url(#A)"><path d="M20 40c11.046 0 20-8.954 20-20S31.046 0 20 0 0 8.954 0 20s8.954 20 20 20z" fill="#d6e6ff"/><g fill="#2c3037"><path d="M12.845 14.5a1 1 0 0 0-1 1v9a1 1 0 0 0 1 1h.656a1 1 0 0 1 1 1v.5a1 1 0 0 1-1 1H11a1 1 0 0 1-1-1V13a1 1 0 0 1 1-1h2.5a1 1 0 0 1 1 1v.5a1 1 0 0 1-1 1h-.655zm15.303 1a1 1 0 0 0-1-1H26.5a1 1 0 0 1-1-1V13a1 1 0 0 1 1-1H29a1 1 0 0 1 1 1v14a1 1 0 0 1-1 1h-2.5a1 1 0 0 1-1-1v-.5a1 1 0 0 1 1-1h.648a1 1 0 0 0 1-1v-9zm-5.87-.831c.371.234.521.699.361 1.107l-3.601 9.138a.9.9 0 0 1-1.319.447h0a.93.93 0 0 1-.375-1.113l3.603-9.141a.91.91 0 0 1 1.332-.437h0z"/></g></g><defs><clipPath id="A"><path fill="#fff" d="M0 0h40v40H0z"/></clipPath></defs></svg>