<svg xmlns="http://www.w3.org/2000/svg" width="40" height="40" fill="none"><circle cx="20" cy="20" r="20" fill="#d4f4ff"/><path d="M14.799 15.024h-1.436l3.914 11.065 2.191-6.262-1.699-4.803h-1.515V13.97h6.709v1.054h-1.571l3.914 11.065 1.407-4.021c1.846-5.152-1.513-6.756-1.513-7.906a2.08 2.08 0 0 1 2.082-2.082l.182.009A10.84 10.84 0 0 0 20 9.123c-3.777 0-7.103 1.925-9.053 4.847h3.853v1.054h0 0zM9.123 20c0 4.164 2.341 7.782 5.778 9.61L9.992 15.734A10.84 10.84 0 0 0 9.123 20h0zm20.344-5.36c.156.916.108 1.946-.13 2.979h.043l-.165.47a10.14 10.14 0 0 1-.36 1.028l-3.743 10.485c3.43-1.83 5.764-5.443 5.764-9.602 0-1.949-.513-3.778-1.411-5.36zM16.645 30.349c1.057.342 2.184.528 3.355.528 1.117 0 2.194-.168 3.208-.481l-3.182-8.994-3.381 8.947zm12.547-19.542C26.737 8.352 23.472 7 20 7s-6.737 1.352-9.192 3.808S7 16.528 7 20s1.352 6.737 3.808 9.192S16.528 33 20 33s6.737-1.352 9.192-3.808S33 23.472 33 20s-1.352-6.737-3.808-9.192h0zM20 32.083A12.1 12.1 0 0 1 7.917 20 12.1 12.1 0 0 1 20 7.917 12.1 12.1 0 0 1 32.083 20 12.1 12.1 0 0 1 20 32.083z" fill="#00769d"/></svg>