<svg xmlns="http://www.w3.org/2000/svg" width="40" height="40" fill="none"><circle cx="20" cy="20" r="20" fill="#ffdfdf"/><path d="M20 33c7.18 0 13-5.82 13-13S27.18 7 20 7 7 12.82 7 20s5.82 13 13 13z" fill="red"/><path d="M24.254 15.11h-8.508a2.59 2.59 0 0 0-1.831.759 2.59 2.59 0 0 0-.757 1.831v4.601a2.59 2.59 0 0 0 .757 1.831c.24.241.526.431.84.561a2.59 2.59 0 0 0 .991.197h8.508a2.59 2.59 0 0 0 .991-.197c.314-.13.599-.321.84-.561a2.59 2.59 0 0 0 .757-1.831v-4.601a2.59 2.59 0 0 0-.757-1.831 2.59 2.59 0 0 0-1.831-.759h0zm-6.057 6.988v-4.194L21.803 20l-3.606 2.097z" fill="#fff"/></svg>