<svg xmlns="http://www.w3.org/2000/svg" width="40" height="40" version="1.2" viewBox="0 0 654 656"><defs><clipPath id="cp1" clipPathUnits="userSpaceOnUse"><path d="M0 0h654v656H0z"/></clipPath></defs><style>.s1{fill:#141844}</style><g id="Clip-Path" clip-path="url(#cp1)"><g id="Layer"><path d="M623 419.3c-7.4 56-23.3 108.4-66.2 148.5-30.9 29-68.7 44.3-109.4 51.7-83.7 15.4-167.7 16-251.1-2.3-93.1-20.3-144.5-80.7-161.4-172.9-1.6-8.3-2.7-16.7-4-25-8.3-69.1-8.7-138.1 4-206.7 8.8-47.8 26.3-91.5 63.1-125.3 31.2-28.5 69-43.8 109.7-51.1 84.4-15.1 169-15.8 253 3.4 86.7 19.8 137.8 75.3 156.1 161.6 15.3 72.3 14.8 145.1 6.2 218.1z" style="fill:#00ffa3;stroke:#141844;stroke-width:50"/><path d="M238.5 354c-14.6 0-26.5-11.9-26.5-26.5s11.9-26.5 26.5-26.5 26.5 11.9 26.5 26.5-11.9 26.5-26.5 26.5zM414.5 354c-14.6 0-26.5-11.9-26.5-26.5s11.9-26.5 26.5-26.5 26.5 11.9 26.5 26.5-11.9 26.5-26.5 26.5zM354 327.5c0 3.5-.7 6.9-2 10.1-1.3 3.3-3.3 6.2-5.8 8.6-2.4 2.5-5.3 4.5-8.6 5.8-3.2 1.3-6.6 2-10.1 2s-6.9-.7-10.1-2c-3.3-1.3-6.2-3.3-8.6-5.8-2.5-2.4-4.5-5.3-5.8-8.6-1.3-3.2-2-6.6-2-10.1h26.5z" class="s1"/></g></g></svg>