<svg xmlns="http://www.w3.org/2000/svg" width="40" height="40" fill="none"><g clip-path="url(#A)" fill="#000"><path d="M20.091 0c-.011.011-.032.011-.064.011A19.69 19.69 0 0 0 .361 19.677a19.53 19.53 0 0 0 4.276 12.185l-2.861 6.645c-.236.547.021 1.179.557 1.404a1.09 1.09 0 0 0 .611.075l10.492-1.843a18.91 18.91 0 0 0 6.537 1.136 19.69 19.69 0 0 0 19.666-19.666C39.661 8.799 30.905.011 20.091 0zm-.107 37.146a17.2 17.2 0 0 1-6.055-1.104 1.03 1.03 0 0 0-.568-.054L4.53 37.532l2.336-5.434a1.08 1.08 0 0 0-.171-1.125c-1.265-1.468-2.272-3.14-2.979-4.951a17.43 17.43 0 0 1-1.2-6.355c0-9.667 7.866-17.523 17.523-17.523 9.635-.021 17.458 7.77 17.469 17.405v.064a17.55 17.55 0 0 1-17.523 17.533zm-.836-21.424h-5.787c-.589 0-1.072.482-1.072 1.072s.482 1.072 1.072 1.072h5.787c.59 0 1.072-.482 1.072-1.072s-.482-1.072-1.072-1.072zm7.502 5.359H13.361c-.589 0-1.072.482-1.072 1.072s.482 1.072 1.072 1.072H26.65c.59 0 1.072-.482 1.072-1.072s-.482-1.072-1.072-1.072z"/></g><defs><clipPath id="A"><path fill="#fff" d="M0 0h40v40H0z"/></clipPath></defs></svg>