<svg xmlns="http://www.w3.org/2000/svg" width="38" height="36" fill="#000"><path d="M9 35.5a1.26 1.26 0 0 1-.543-.124 1.25 1.25 0 0 1-.707-1.126V28H4C1.933 28 .25 26.318.25 24.25v-20C.25 2.183 1.933.5 4 .5h30c2.068 0 3.75 1.683 3.75 3.75v20c0 2.067-1.682 3.75-3.75 3.75H18.814l-9.032 7.226A1.25 1.25 0 0 1 9 35.5zM4 3a1.25 1.25 0 0 0-1.25 1.25v20A1.25 1.25 0 0 0 4 25.5h5a1.25 1.25 0 0 1 1.25 1.25v4.9l7.344-5.876a1.25 1.25 0 0 1 .781-.274H34a1.25 1.25 0 0 0 1.25-1.25v-20A1.25 1.25 0 0 0 34 3H4zm25 10H9a1.25 1.25 0 1 1 0-2.5h20a1.25 1.25 0 1 1 0 2.5zm-10 5H9a1.25 1.25 0 1 1 0-2.5h10a1.25 1.25 0 1 1 0 2.5z"/></svg>