<svg xmlns="http://www.w3.org/2000/svg" width="40" height="10" fill="none"><g clip-path="url(#A)" fill="#000"><path d="M.361 4.842C.361 2.316 2.409.268 4.935.268s4.574 2.048 4.574 4.574-2.048 4.574-4.574 4.574S.361 7.368.361 4.842zm30.377 0c0-2.526 2.048-4.574 4.574-4.574s4.574 2.048 4.574 4.574-2.048 4.574-4.574 4.574-4.574-2.048-4.574-4.574zm-5.868 0a4.57 4.57 0 0 1-.348 1.75 4.59 4.59 0 0 1-.991 1.484c-.424.425-.929.762-1.484.992a4.57 4.57 0 0 1-3.5 0c-.555-.23-1.059-.567-1.484-.992s-.762-.929-.991-1.484a4.59 4.59 0 0 1-.348-1.75h9.147z"/></g><defs><clipPath id="A"><path fill="#fff" d="M0 0h40v9.684H0z"/></clipPath></defs></svg>