<svg id="Сгруппировать_8948" data-name="Сгруппировать 8948" xmlns="http://www.w3.org/2000/svg" width="97.4" height="97.407" viewBox="0 0 97.4 97.407">
  <path id="Контур_6433" data-name="Контур 6433" d="M96.791,41.316a4.17,4.17,0,0,0-2.728-3.3l-7.673-2.729a39.858,39.858,0,0,0-1.539-3.745l3.492-7.349a4.176,4.176,0,0,0-.408-4.264A48.8,48.8,0,0,0,77.482,9.476a4.168,4.168,0,0,0-4.262-.4L65.875,12.56a39.782,39.782,0,0,0-3.748-1.538L59.4,3.347A4.172,4.172,0,0,0,56.1.622a44.286,44.286,0,0,0-14.79,0,4.174,4.174,0,0,0-3.3,2.726l-2.73,7.675a39.641,39.641,0,0,0-3.746,1.538L24.189,9.071a4.168,4.168,0,0,0-4.261.4A48.8,48.8,0,0,0,9.475,19.925a4.175,4.175,0,0,0-.408,4.264l3.492,7.349a39.976,39.976,0,0,0-1.539,3.745L3.346,38.014a4.173,4.173,0,0,0-2.727,3.3A48.251,48.251,0,0,0,0,48.705a48.285,48.285,0,0,0,.614,7.389,4.17,4.17,0,0,0,2.729,3.3l7.673,2.729a40.423,40.423,0,0,0,1.54,3.748L9.068,73.222a4.173,4.173,0,0,0,.406,4.261A48.8,48.8,0,0,0,19.927,87.935a4.161,4.161,0,0,0,4.262.4l7.344-3.489a39.792,39.792,0,0,0,3.748,1.538l2.73,7.675a4.172,4.172,0,0,0,3.3,2.726,48.339,48.339,0,0,0,7.395.617,48.334,48.334,0,0,0,7.395-.617,4.173,4.173,0,0,0,3.3-2.726l2.73-7.675a39.79,39.79,0,0,0,3.748-1.538l7.344,3.489a4.167,4.167,0,0,0,4.264-.4A48.8,48.8,0,0,0,87.934,77.483a4.173,4.173,0,0,0,.406-4.261l-3.492-7.346a39.971,39.971,0,0,0,1.539-3.748L94.062,59.4a4.169,4.169,0,0,0,2.729-3.3,48.283,48.283,0,0,0,.614-7.389A48.268,48.268,0,0,0,96.791,41.316ZM82.674,52.041,81.656,54.95a4.167,4.167,0,0,0-2.6,2.75,31.366,31.366,0,0,1-2.518,6.117,4.176,4.176,0,0,0-.1,3.788L70.46,66.327c-1.578,1.894.941,6.57-.957,8.146l-1.9,1.956a4.164,4.164,0,0,0-3.787.1A31.581,31.581,0,0,1,57.7,79.05a4.168,4.168,0,0,0-2.749,2.6l-2.33,1.024c-2.614.266-5.19-.758-7.8-1.024H42.459a4.175,4.175,0,0,0-2.749-2.6,31.479,31.479,0,0,1-6.123-2.517,4.15,4.15,0,0,0-3.787-.1l-.815-.366C27.09,74.485,23.232,71.9,21.652,70l-.672-2.4a4.176,4.176,0,0,0-.1-3.788,31.417,31.417,0,0,1-2.518-6.12,4.171,4.171,0,0,0-2.6-2.748l-1.4-2.566a32.261,32.261,0,0,1-.486-3.282c0-1.168.061-2.59.2-3.9l1.7-2.742a4.17,4.17,0,0,0,2.6-2.748,31.664,31.664,0,0,1,2.518-6.123,4.17,4.17,0,0,0,.1-3.786l1.394-1.287c1.58-1.9,5.915-2.241,7.81-3.817L29.8,20.98a4.164,4.164,0,0,0,3.787-.1,31.427,31.427,0,0,1,6.12-2.517,4.174,4.174,0,0,0,2.749-2.6l3.6-3.479c2.59-.269,2.9.3,5.535.566l3.354,2.913a4.175,4.175,0,0,0,2.749,2.6,31.483,31.483,0,0,1,6.123,2.517,4.15,4.15,0,0,0,3.787.1l3.208,1.7c1.894,1.576,1.108,3.939,2.688,5.836L76.429,29.8a4.17,4.17,0,0,0,.1,3.786,31.543,31.543,0,0,1,2.518,6.12,4.167,4.167,0,0,0,2.6,2.75l-.494,2.105c.136,1.31-1.492,2.559-1.492,3.727S82.809,50.731,82.674,52.041Z" transform="translate(-0.004 0)" fill="#fff"/>
  <g id="Эллипс_582" data-name="Эллипс 582" transform="translate(8.016 7.98)" fill="none" stroke="#fff" stroke-width="19">
    <ellipse cx="40.649" cy="40.649" rx="40.649" ry="40.649" stroke="none"/>
    <ellipse cx="40.649" cy="40.649" rx="31.149" ry="31.149" fill="none"/>
  </g>
</svg>
