<svg xmlns="http://www.w3.org/2000/svg" width="29.727" height="29.727" viewBox="0 0 29.727 29.727">
  <g id="dashboard" transform="translate(-2 -2)">
    <path id="Path_6875" data-name="Path 6875" d="M15.795,32.951H6.19A4.2,4.2,0,0,1,2,28.761V23.42a4.2,4.2,0,0,1,4.19-4.19h9.605a4.2,4.2,0,0,1,4.19,4.19v5.332a4.2,4.2,0,0,1-4.19,4.2ZM6.19,21.209A2.211,2.211,0,0,0,3.979,23.42v5.332A2.211,2.211,0,0,0,6.19,30.963h9.605a2.211,2.211,0,0,0,2.211-2.211V23.42a2.211,2.211,0,0,0-2.211-2.211Z" transform="translate(0 -1.224)" fill="#fff"/>
    <path id="Path_6876" data-name="Path 6876" d="M29.088,32.951H28.02a4.2,4.2,0,0,1-4.19-4.19V23.42a4.2,4.2,0,0,1,4.19-4.19h1.068a4.2,4.2,0,0,1,4.19,4.19v5.332a4.2,4.2,0,0,1-4.19,4.2ZM28.02,21.209a2.211,2.211,0,0,0-2.174,2.211v5.332a2.211,2.211,0,0,0,2.211,2.211h1.068a2.211,2.211,0,0,0,2.211-2.211V23.42a2.211,2.211,0,0,0-2.211-2.211Z" transform="translate(-1.551 -1.224)" fill="#fff"/>
    <path id="Path_6877" data-name="Path 6877" d="M28.435,15.721H18.83a4.2,4.2,0,0,1-4.19-4.19V6.19A4.2,4.2,0,0,1,18.83,2h9.605a4.2,4.2,0,0,1,4.19,4.19v5.332a4.2,4.2,0,0,1-4.19,4.2ZM18.83,3.979A2.211,2.211,0,0,0,16.619,6.19v5.332a2.211,2.211,0,0,0,2.211,2.211h9.605a2.211,2.211,0,0,0,2.211-2.211V6.19a2.211,2.211,0,0,0-2.211-2.211Z" transform="translate(-0.898)" fill="#fff"/>
    <path id="Path_6878" data-name="Path 6878" d="M7.258,15.721H6.19A4.2,4.2,0,0,1,2,11.531V6.19A4.2,4.2,0,0,1,6.19,2H7.258a4.2,4.2,0,0,1,4.19,4.19v5.332a4.2,4.2,0,0,1-4.19,4.2ZM6.19,3.979A2.211,2.211,0,0,0,3.979,6.19v5.332A2.211,2.211,0,0,0,6.19,13.733H7.258a2.211,2.211,0,0,0,2.174-2.2V6.19A2.211,2.211,0,0,0,7.258,3.979Z" fill="#fff"/>
  </g>
</svg>
