<svg xmlns="http://www.w3.org/2000/svg" width="29.293" height="29.293" viewBox="0 0 29.293 29.293">
  <g id="filter" transform="translate(-2 -2)">
    <path id="Path_6869" data-name="Path 6869" d="M20.208,24.646H9.47V22.66H20.208Zm0-12.623H9.47V10H20.208Z" transform="translate(-0.632 -0.677)" fill="#fdfcfb"/>
    <path id="Path_6870" data-name="Path 6870" d="M10.935,19.339A1.465,1.465,0,1,1,12.4,17.875,1.465,1.465,0,0,1,10.935,19.339Z" transform="translate(-0.632 -1.219)" fill="#fdfcfb"/>
    <path id="Path_6871" data-name="Path 6871" d="M24.795,12.449a1.465,1.465,0,1,1,1.465-1.465,1.465,1.465,0,0,1-1.465,1.465Z" transform="translate(-1.804 -0.636)" fill="#fdfcfb"/>
    <path id="Path_6872" data-name="Path 6872" d="M24.795,26.229a1.465,1.465,0,1,1,1.465-1.465A1.465,1.465,0,0,1,24.795,26.229Z" transform="translate(-1.804 -1.802)" fill="#fdfcfb"/>
    <path id="Path_6873" data-name="Path 6873" d="M14.8,16.94H25.538v1.95H14.8Z" transform="translate(-1.083 -1.264)" fill="#fdfcfb"/>
    <path id="Path_6874" data-name="Path 6874" d="M24.455,31.293H8.838A6.847,6.847,0,0,1,2,24.455V8.893A6.847,6.847,0,0,1,8.838,2H24.455a6.847,6.847,0,0,1,6.838,6.847V24.409a6.847,6.847,0,0,1-6.838,6.884ZM8.838,3.959A4.888,4.888,0,0,0,3.95,8.847V24.409a4.888,4.888,0,0,0,4.879,4.879H24.455a4.888,4.888,0,0,0,4.879-4.879V8.847a4.888,4.888,0,0,0-4.879-4.879Z" fill="#fdfcfb"/>
  </g>
</svg>
