<svg xmlns="http://www.w3.org/2000/svg" width="25.604" height="29.305" viewBox="0 0 25.604 29.305">
  <g id="padlock" transform="translate(-2.14 -0.273)">
    <path id="Path_6867" data-name="Path 6867" d="M26.312,13.285a4.9,4.9,0,0,0-3.482-1.441H10.019V6.921a4.928,4.928,0,0,1,9.856,0V9.045a.988.988,0,0,0,1.967,0V6.921a6.9,6.9,0,0,0-13.79,0v4.923H7.063A4.923,4.923,0,0,0,2.14,16.767v7.879a4.923,4.923,0,0,0,4.923,4.932H22.821a4.923,4.923,0,0,0,4.923-4.923V16.767a4.886,4.886,0,0,0-1.432-3.482Zm-.526,11.361A2.956,2.956,0,0,1,22.83,27.6H7.063a2.956,2.956,0,0,1-2.956-2.956V16.767a2.956,2.956,0,0,1,2.956-2.956H22.821a2.956,2.956,0,0,1,2.956,2.956Z" fill="#fdfcfb"/>
    <path id="Path_6868" data-name="Path 6868" d="M15.755,18.13a2.947,2.947,0,0,0-.988,5.727V25.03a.988.988,0,0,0,1.967,0V23.866a2.947,2.947,0,0,0-.979-5.736Zm0,3.944a.988.988,0,1,1,.988-.988A.988.988,0,0,1,15.755,22.074Z" transform="translate(-0.813 -1.363)" fill="#fdfcfb"/>
  </g>
</svg>
