<svg id="help" xmlns="http://www.w3.org/2000/svg" width="29.472" height="29.472" viewBox="0 0 29.472 29.472">
  <path id="Path_6882" data-name="Path 6882" d="M29.472,19.946a9.549,9.549,0,0,0-6.976-9.18A11.253,11.253,0,1,0,1.56,16.974L.041,22.466l5.492-1.519A11.212,11.212,0,0,0,10.765,22.5a9.53,9.53,0,0,0,14.028,5.652l4.638,1.283-1.283-4.638A9.493,9.493,0,0,0,29.472,19.946ZM5.806,19.079l-3.288.91.91-3.288-.207-.324a9.524,9.524,0,1,1,2.91,2.91Zm21.148,7.875-2.44-.675-.326.212a7.8,7.8,0,0,1-11.638-4.059,11.275,11.275,0,0,0,9.881-9.881,7.8,7.8,0,0,1,4.059,11.638l-.212.326Zm0,0" transform="translate(0 0)" fill="#fff"/>
  <path id="Path_6883" data-name="Path 6883" d="M180.5,271h1.727v1.727H180.5Zm0,0" transform="translate(-170.11 -255.4)" fill="#fff"/>
  <path id="Path_6884" data-name="Path 6884" d="M140.681,93.454a1.709,1.709,0,0,1-.562,1.275l-2.028,1.856v2.107h1.727V97.345L141.284,96a3.454,3.454,0,1,0-5.784-2.549h1.727a1.727,1.727,0,1,1,3.454,0Zm0,0" transform="translate(-127.7 -84.819)" fill="#fff"/>
</svg>
