<svg xmlns="http://www.w3.org/2000/svg" width="10" height="13" viewBox="0 0 10.116 12.45"><g transform="translate(-48)"><path d="M57.143,1.556H55V1.167A1.169,1.169,0,0,0,53.836,0H52.28a1.169,1.169,0,0,0-1.167,1.167v.389h-2.14A.974.974,0,0,0,48,2.529V3.891a.389.389,0,0,0,.389.389H48.6l.336,7.059A1.166,1.166,0,0,0,50.1,12.45h5.908a1.166,1.166,0,0,0,1.166-1.112l.336-7.059h.213a.389.389,0,0,0,.389-.389V2.529A.974.974,0,0,0,57.143,1.556Zm-5.252-.389A.39.39,0,0,1,52.28.778h1.556a.39.39,0,0,1,.389.389v.389H51.891ZM48.778,2.529a.2.2,0,0,1,.195-.195h8.17a.2.2,0,0,1,.195.195V3.5H48.778ZM56.4,11.3a.389.389,0,0,1-.389.371H50.1a.389.389,0,0,1-.389-.371L49.381,4.28h7.354Z"/><path d="M240.389,213.836a.389.389,0,0,0,.389-.389v-5.058a.389.389,0,1,0-.778,0v5.058A.389.389,0,0,0,240.389,213.836Z" transform="translate(-187.331 -202.942)"/><path d="M320.389,213.836a.389.389,0,0,0,.389-.389v-5.058a.389.389,0,0,0-.778,0v5.058A.389.389,0,0,0,320.389,213.836Z" transform="translate(-265.386 -202.942)"/><path d="M160.389,213.836a.389.389,0,0,0,.389-.389v-5.058a.389.389,0,0,0-.778,0v5.058A.389.389,0,0,0,160.389,213.836Z" transform="translate(-109.277 -202.942)"/></g></svg>