<svg xmlns="http://www.w3.org/2000/svg" width="31.928" height="31.843" viewBox="0 0 31.928 31.843"><g transform="translate(0 -0.061)"><ellipse cx="15.565" cy="15.555" rx="15.565" ry="15.555" transform="translate(0.799 0.395)" fill="#fff"/><path d="M3.733,11.612a2.161,2.161,0,0,1-.479-.8,14.061,14.061,0,0,0-.745,4.078l1.631-2.946a2.166,2.166,0,0,1-.407-.334" transform="translate(0.16 0.684)" fill="#159d8f" fill-rule="evenodd"/><path d="M5.255,8.2l.121-1.271A14.185,14.185,0,0,0,4.4,8.353,2.193,2.193,0,0,1,5.255,8.2" transform="translate(0.28 0.437)" fill="#0a8a44" fill-rule="evenodd"/><path d="M24.628,23.852a1.785,1.785,0,0,1-2.638-.2l-7.421,3.371a1.462,1.462,0,0,1-.608,1.386,13.99,13.99,0,0,0,11.877-4.127l-1.016-.649a1.745,1.745,0,0,1-.195.22" transform="translate(0.888 1.499)" fill="#253967" fill-rule="evenodd"/><path d="M23.882,21.7a1.783,1.783,0,0,1,.459,2.236l1.059.678a13.951,13.951,0,0,0,3.762-9.119,1.912,1.912,0,0,1-.894-.256L23.882,21.7" transform="translate(1.519 0.965)" fill="#582d7a" fill-rule="evenodd"/><path d="M9.635,5.28a.95.95,0,0,1,.659-.261l.974-2.278A13.948,13.948,0,0,0,7.408,4.955l2.069.528a.925.925,0,0,1,.158-.2" transform="translate(0.471 0.17)" fill="#0a8a44" fill-rule="evenodd"/><path d="M18.472,3.992a1.723,1.723,0,0,1,2.877.942L24.1,4.662a14.006,14.006,0,0,0-9.452-2.715l3.631,2.269a1.691,1.691,0,0,1,.2-.223" transform="translate(0.931 0.117)" fill="#c72254" fill-rule="evenodd"/><path d="M20.638,6.109l7.472,6.76s0-.005.006-.006a1.906,1.906,0,0,1,.857-.468,13.926,13.926,0,0,0-3.435-6.3,14.071,14.071,0,0,0-1.5-1.369l-3.044.3a1.712,1.712,0,0,1-.356,1.08" transform="translate(1.313 0.297)" fill="#db2c6f" fill-rule="evenodd"/><path d="M10.8,5.364a.942.942,0,0,1,.234.445l7.176-.574a1.722,1.722,0,0,1,.194-.791L14.462,1.982a14.05,14.05,0,0,0-3.03.684L10.386,5.113a.938.938,0,0,1,.411.251" transform="translate(0.661 0.122)" fill="#df5430" fill-rule="evenodd"/><path d="M12.646,26.467l-2.418-2.585a1.139,1.139,0,0,1-1.767-1.251L3.694,20.54a14.008,14.008,0,0,0,8.819,7.624,1.465,1.465,0,0,1,.133-1.7" transform="translate(0.235 1.303)" fill="#253967" fill-rule="evenodd"/><path d="M9.616,6.349a.951.951,0,0,1-.126-.755L7.264,5.027A14.23,14.23,0,0,0,5.622,6.671l-.16,1.683A2.15,2.15,0,0,1,6.65,8.96L9.616,6.349" transform="translate(0.347 0.316)" fill="#0a8a44" fill-rule="evenodd"/><path d="M9.686,15.125l.194-3.616L7.106,10.8a2.137,2.137,0,0,1-.491.819l2.578,3.624a1.7,1.7,0,0,1,.492-.113" transform="translate(0.421 0.683)" fill="#3bab48" fill-rule="evenodd"/><path d="M19.409,6.685l-.28,4.786a2.7,2.7,0,0,1,2.409,2.552l6.084,0a1.9,1.9,0,0,1,.4-1.04L20.55,6.219a1.712,1.712,0,0,1-1.141.466" transform="translate(1.217 0.392)" fill="#c72254" fill-rule="evenodd"/><path d="M12.766,25.928l-1.01-3.011-1.468.021a1.133,1.133,0,0,1-.261.612l2.414,2.58a1.475,1.475,0,0,1,.324-.2m2.618-3.062-1.33,3.1a1.449,1.449,0,0,1,.337.248l4.014-3.4-3.021.044" transform="translate(0.638 1.448)" fill="#276aa5" fill-rule="evenodd"/><path d="M27.55,13.811l-6.082,0a2.7,2.7,0,0,1-1.237,2.14l1.73,3.88L27.913,14.8a1.906,1.906,0,0,1-.364-.987" transform="translate(1.287 0.875)" fill="#812d7b" fill-rule="evenodd"/><path d="M18.876,22.7l2.7-.038a1.776,1.776,0,0,1,.695-1.3l-.5-1.111-2.9,2.454m-.332.281-3.882,3.287,6.943-3.153a1.788,1.788,0,0,1-.026-.178l-3.036.044" transform="translate(0.933 1.284)" fill="#1c4e71" fill-rule="evenodd"/><path d="M2.883,18.5l5.509-1.438a1.717,1.717,0,0,1,.387-1.419L6.2,12.018A2.17,2.17,0,0,1,4.381,12L2.506,15.395a14.023,14.023,0,0,0,.377,3.1" transform="translate(0.159 0.76)" fill="#159d8f" fill-rule="evenodd"/><path d="M9.528,22.047l.211-3.922a1.706,1.706,0,0,1-1.3-1.12l-5.514,1.44a13.855,13.855,0,0,0,.656,1.945L8.621,22.6a1.1,1.1,0,0,1,.906-.556" transform="translate(0.186 1.078)" fill="#349fcd" fill-rule="evenodd"/><path d="M21.968,20.025l.6,1.333a1.79,1.79,0,0,1,1.213.2L28.162,15.1a2.074,2.074,0,0,1-.182-.162l-6.013,5.088" transform="translate(1.397 0.946)" fill="#582d7a" fill-rule="evenodd"/><path d="M9.951,11.531l-.189,3.547a1.708,1.708,0,0,1,1.336.833L16.747,14.2a2.715,2.715,0,0,1,.028-.918L9.951,11.53" transform="translate(0.621 0.729)" fill="#85bf42" fill-rule="evenodd"/><path d="M17.428,15.48a2.708,2.708,0,0,1-.475-.691L11.3,16.5a1.712,1.712,0,0,1-1.04,1.663l1.674,4.991,3.247-.047,3.021-7.055a2.7,2.7,0,0,1-.777-.567" transform="translate(0.653 0.937)" fill="#38a2cf" fill-rule="evenodd"/><path d="M18.705,6.206a1.673,1.673,0,0,1-.181-.228L10.1,9.015l-.141,2.63,6.875,1.768a2.7,2.7,0,0,1,2.606-1.9l.281-4.786a1.706,1.706,0,0,1-1.011-.52m-7.917.3a.95.95,0,0,1-.571.255l-.072,1.36,7.748-2.792-6.811.546a.947.947,0,0,1-.294.631" transform="translate(0.633 0.335)" fill="#ea8a2f" fill-rule="evenodd"/><path d="M9.886,11.5l.132-2.459-2.84,1.023a2.165,2.165,0,0,1-.015.736l2.723.7M6.9,9.289l3.17-1.142.078-1.474a.947.947,0,0,1-.425-.211L6.752,9.074a2.117,2.117,0,0,1,.146.215" transform="translate(0.429 0.407)" fill="#3bab48" fill-rule="evenodd"/><path d="M11.925,22.911l.981,2.926a1.457,1.457,0,0,1,.773.026l1.283-3-3.037.043" transform="translate(0.758 1.451)" fill="#38a2cf" fill-rule="evenodd"/><path d="M18.148,16.075l-2.973,6.942,3.233-.047,3.217-2.723-1.828-4.1a2.721,2.721,0,0,1-1.651-.074" transform="translate(0.965 1.019)" fill="#276aa5" fill-rule="evenodd"/><path d="M10.057,18.04a1.723,1.723,0,0,1-.389.05L9.406,22a1.134,1.134,0,0,1,.921.97l1.375-.019-1.645-4.906" transform="translate(0.598 1.143)" fill="#276aa5" fill-rule="evenodd"/><path d="M31.855,15.984a15.539,15.539,0,0,0-1.207-5.959A15.283,15.283,0,0,0,5.609,5.35a15.279,15.279,0,0,0,21.611,21.6,15.381,15.381,0,0,0,3.427-5,15.545,15.545,0,0,0,1.207-5.96Zm0,0A15.926,15.926,0,0,1,4.823,27.4,15.914,15.914,0,0,1,16.252.065a15.935,15.935,0,0,1,15.6,15.919Z" transform="translate(0 0)" fill="#28b9e0" fill-rule="evenodd"/></g></svg>