<svg width="52" height="55" viewBox="0 0 52 55" fill="none" xmlns="http://www.w3.org/2000/svg">
<g clip-path="url(#clip0_316_204)">
<path d="M37.6536 53.6691H14.8363C6.69338 53.6691 0.119629 47.025 0.119629 38.7949V15.7764C0.119629 7.50346 6.69338 0.859375 14.8363 0.859375H37.6112C45.7542 0.859375 52.3279 7.50346 52.3279 15.7335V38.7521C52.3703 47.025 45.7966 53.6691 37.6536 53.6691Z" fill="#111E2D"/>
<path d="M32.0553 25.7212H15.3452V12.2616C15.3452 11.1899 16.1934 10.2898 17.2961 10.2898H32.0553C36.254 10.2898 39.6893 13.719 39.6893 18.0055C39.6893 22.2491 36.254 25.7212 32.0553 25.7212Z" fill="#FF4655"/>
<path d="M32.0553 44.2388H17.3452C16.2406 44.2388 15.3452 43.3433 15.3452 42.2388V28.8074H32.0129C36.2116 28.8074 39.6469 32.2366 39.6469 36.5231C39.6893 40.7667 36.254 44.2388 32.0553 44.2388Z" fill="#FF4655"/>
</g>
<defs>
<clipPath id="clip0_316_204">
<rect width="52" height="55" fill="white"/>
</clipPath>
</defs>
</svg>
