<?xml version="1.0" standalone="no"?>
<!DOCTYPE svg PUBLIC "-//W3C//DTD SVG 20010904//EN"
 "http://www.w3.org/TR/2001/REC-SVG-20010904/DTD/svg10.dtd">
<svg version="1.0" xmlns="http://www.w3.org/2000/svg"
 width="880.000000pt" height="880.000000pt" viewBox="0 0 880.000000 880.000000"
 preserveAspectRatio="xMidYMid meet">
<metadata>
Created by potrace 1.14, written by Peter Selinger 2001-2017
</metadata>
<g transform="translate(0.000000,880.000000) scale(0.100000,-0.100000)"
fill="#000000" stroke="none">
<path d="M2577 8664 c-1 -1 -51 -4 -112 -8 -60 -3 -121 -8 -135 -11 -22 -5
-63 -10 -145 -20 -11 -1 -27 -5 -35 -8 -8 -3 -44 -12 -80 -20 -111 -25 -194
-49 -207 -59 -6 -5 -23 -11 -37 -14 -33 -6 -219 -85 -227 -97 -3 -5 -8 -7 -10
-6 -5 4 -144 -67 -183 -93 -75 -51 -86 -58 -96 -58 -5 0 -10 -4 -10 -9 0 -5
-8 -12 -17 -15 -10 -3 -29 -16 -43 -29 -14 -12 -41 -34 -60 -47 -58 -41 -188
-158 -258 -233 -88 -93 -109 -119 -191 -228 -85 -116 -101 -140 -152 -231 -14
-26 -30 -53 -36 -60 -37 -50 -188 -429 -198 -498 -1 -8 -5 -22 -8 -30 -3 -8
-8 -28 -12 -45 -3 -16 -8 -39 -10 -50 -2 -11 -7 -33 -10 -50 -3 -16 -7 -39
-10 -50 -2 -11 -7 -42 -10 -70 -4 -27 -8 -61 -11 -75 -9 -53 -20 -420 -14
-455 2 -5 2 -14 1 -19 -3 -15 -4 -200 -1 -211 1 -5 2 -14 0 -20 -2 -13 -2
-128 0 -140 1 -6 2 -12 1 -15 -2 -7 -3 -303 0 -315 1 -5 1 -14 0 -19 -3 -13
-3 -209 -1 -221 1 -5 2 -14 1 -19 -3 -15 -4 -200 -1 -211 1 -5 2 -14 0 -20 -2
-13 -2 -128 0 -140 1 -6 2 -12 1 -15 -2 -7 -3 -303 0 -315 1 -5 1 -14 0 -19
-3 -13 -3 -209 -1 -221 1 -5 2 -14 1 -19 -3 -15 -4 -200 -1 -211 1 -5 2 -14 0
-20 -2 -13 -2 -128 0 -140 1 -6 2 -12 1 -15 -2 -7 -3 -303 0 -315 1 -5 1 -14
0 -19 -3 -13 -3 -209 -1 -221 1 -5 2 -14 1 -19 -3 -15 -4 -200 -1 -211 1 -5 2
-14 0 -20 -2 -13 -2 -128 0 -140 1 -6 2 -14 1 -20 -1 -5 -2 -75 -2 -155 0
-197 10 -321 36 -470 2 -14 7 -41 10 -60 28 -158 120 -432 194 -575 17 -33 31
-65 31 -72 0 -7 5 -13 10 -13 6 0 10 -5 10 -10 0 -30 178 -292 278 -410 58
-67 235 -242 299 -295 31 -26 198 -146 243 -175 49 -32 130 -78 130 -74 0 3
12 -3 28 -14 27 -18 44 -27 152 -75 58 -25 88 -38 105 -43 6 -2 50 -17 100
-34 49 -16 106 -33 125 -36 19 -4 41 -11 48 -17 6 -5 12 -7 12 -4 0 3 26 -1
58 -8 73 -17 128 -27 172 -30 19 -2 35 -4 35 -5 0 -15 4014 -22 4150 -7 126
15 218 28 226 33 4 2 24 6 44 10 48 7 58 10 125 29 30 9 60 17 65 19 28 6 151
50 160 55 6 4 28 13 50 20 69 23 315 150 315 162 0 4 10 9 23 13 12 3 31 13
43 23 11 10 32 25 47 33 121 69 502 428 515 485 2 8 7 15 11 15 4 0 30 33 57
73 27 39 52 74 57 75 4 2 7 7 7 12 0 5 16 32 35 62 30 44 148 272 150 288 0 3
8 21 18 40 21 45 80 223 106 325 21 79 21 86 21 2438 0 2136 -2 2365 -16 2421
-9 33 -18 68 -19 76 -2 8 -4 15 -5 15 -1 0 -3 7 -5 15 -5 26 -63 193 -81 235
-10 22 -17 43 -16 48 1 4 -3 7 -10 7 -6 0 -9 3 -6 6 9 8 -104 223 -163 313
-27 41 -49 76 -49 78 0 3 -70 96 -112 148 -56 70 -198 217 -275 285 -43 37
-52 45 -123 100 -25 19 -46 38 -48 42 -2 5 -9 8 -16 8 -7 0 -21 8 -32 18 -57
53 -308 188 -471 253 -13 5 -33 14 -45 19 -13 6 -45 17 -73 25 -27 7 -90 25
-140 39 -49 13 -103 27 -120 30 -16 3 -43 8 -60 12 -16 3 -46 8 -65 9 -19 2
-35 4 -35 5 0 2 -16 4 -35 5 -19 2 -35 4 -35 5 0 9 -424 12 -2033 13 -1042 1
-1894 1 -1895 1z"/>
</g>
</svg>
