<?xml version="1.0" encoding="UTF-8" standalone="no"?>
<svg
   id="Ebene_1"
   viewBox="0 0 906.09994 697.52001"
   version="1.1"
   sodipodi:docname="logo.svg"
   width="906.09998"
   height="697.52002"
   inkscape:version="1.2.2 (732a01da63, 2022-12-09)"
   xmlns:inkscape="http://www.inkscape.org/namespaces/inkscape"
   xmlns:sodipodi="http://sodipodi.sourceforge.net/DTD/sodipodi-0.dtd"
   xmlns="http://www.w3.org/2000/svg"
   xmlns:svg="http://www.w3.org/2000/svg">
  <sodipodi:namedview
     id="namedview17"
     pagecolor="#ffffff"
     bordercolor="#000000"
     borderopacity="0.25"
     inkscape:showpageshadow="2"
     inkscape:pageopacity="0.0"
     inkscape:pagecheckerboard="0"
     inkscape:deskcolor="#d1d1d1"
     showgrid="false"
     inkscape:zoom="1.0129772"
     inkscape:cx="464.96606"
     inkscape:cy="359.33683"
     inkscape:window-width="2560"
     inkscape:window-height="1377"
     inkscape:window-x="-8"
     inkscape:window-y="-8"
     inkscape:window-maximized="1"
     inkscape:current-layer="Ebene_1" />
  <defs
     id="defs4">
    <style
       id="style2">.cls-1{fill:#fff;}.cls-2{fill:#9bc0dd;}.cls-3{fill:#004467;}</style>
  </defs>
  <path
     class="cls-3"
     d="M 0,348.76 C 0,233.22 93.66,139.55 209.2,139.55 c 46.99,0 90.36,15.49 125.29,41.65 -35.1,46.65 -55.91,104.67 -55.91,167.56 0,62.89 20.81,120.9 55.91,167.55 -34.93,26.16 -78.3,41.65 -125.29,41.65 C 93.66,557.96 0,464.29 0,348.75 v 0 z"
     id="path6" />
  <path
     class="cls-2"
     d="M 320.38,92.86 C 382.59,35.23 465.85,0 557.34,0 749.95,0 906.1,156.14 906.1,348.76 c 0,192.62 -156.14,348.76 -348.76,348.76 -91.49,0 -174.75,-35.23 -236.95,-92.85 23.29,-10.13 44.92,-23.35 64.39,-39.14 47.34,37.73 107.32,60.29 172.56,60.29 153.01,0 277.05,-124.04 277.05,-277.05 0,-153.01 -124.04,-277.05 -277.05,-277.05 -65.25,0 -125.22,22.55 -172.56,60.29 C 365.31,116.22 343.68,103 320.39,92.87 v 0 z"
     id="path8" />
  <polygon
     class="cls-3"
     points="545.18,362.74 545.73,362.74 589.41,523.49 625.67,523.49 674.02,362.74 674.57,362.74 688.85,527.73 724.56,523.49 696.55,314.39 660.55,314.39 607.82,481.5 607.27,481.5 561.12,314.39 525.13,314.39 491.61,523.49 525.4,527.73 "
     id="polygon10"
     transform="translate(-130.68,-61.43)" />
  <polygon
     class="cls-3"
     points="826.09,434.66 895.6,434.66 895.87,401.42 826.64,401.42 826.92,347.63 896.7,347.63 896.97,314.39 791.76,314.39 789.84,523.49 825.82,523.49 "
     id="polygon12"
     transform="translate(-130.68,-61.43)" />
  <polygon
     class="cls-1"
     points="326.17,347.63 378.64,347.63 378.91,314.39 237.99,314.39 237.71,347.63 291.01,347.63 291.01,523.49 326.17,523.49 "
     id="polygon14"
     transform="translate(-130.68,-61.43)" />
</svg>
