<svg width="300" height="300" viewBox="0 0 300 300" fill="none" xmlns="http://www.w3.org/2000/svg">
<circle cx="150.5" cy="120.5" r="44.5" fill="#1665A9"/>
<path d="M130.897 105.885C141.225 91.0144 164.949 90.6635 172.553 105.431C170.127 106.655 167.7 107.88 165.156 109.163C161.858 105.351 157.768 103.486 152.918 103.197C143.88 102.658 136.306 109.08 135.828 118.124C135.516 124.013 135.769 129.932 135.769 135.781C142.305 135.781 149.151 135.978 155.98 135.722C161.866 135.501 165.803 131.347 167.103 124.432C162.492 124.432 157.935 124.432 153.321 124.432C154.502 118.127 157.283 115.753 163.158 115.75C167.57 115.748 171.983 115.75 176.354 115.75C178.812 130.846 169.578 146.484 152.098 144.294C143.84 143.26 135.921 144.948 127.911 146.211C127.099 146.339 126.285 146.459 125.469 146.549C125.291 146.569 125.097 146.447 124.542 146.279C125.081 143.027 125.809 139.743 126.134 136.42C126.601 131.642 127.093 126.828 126.993 122.042C126.873 116.318 127.783 110.989 130.897 105.885Z" fill="#F8FBFD"/>
<path d="M40.1192 204.943C41.844 204.324 43.4111 203.679 45.0419 203.346C46.1918 203.111 47.4302 203.345 48.6257 203.293C54.4315 203.039 53.576 204.167 52.8004 208.59C51.3342 216.952 42.6576 222.673 34.3331 220.849C31.08 220.137 28.1399 220.568 25.1163 221.48C23.588 221.942 22.0558 222.39 20 223C20.2599 221.746 20.3244 221.047 20.5512 220.405C22.0868 216.057 22.6477 211.781 21.8892 207.045C20.0294 195.432 31.7264 186.163 42.7018 190.33C44.7203 191.097 46.4822 192.64 48.1964 194.03C48.5916 194.351 48.6242 195.864 48.2516 196.207C47.7253 196.692 46.5041 196.962 45.8687 196.678C44.3957 196.02 43.1778 194.797 41.7104 194.119C37.4709 192.161 33.4754 193.064 29.9934 195.867C26.4975 198.682 24.9583 202.408 25.7965 206.984C26.3521 210.016 27.7969 213.044 25.8786 216.066C26.2459 216.309 26.4688 216.565 26.5958 216.524C29.7729 215.498 32.8064 216.293 35.9778 216.838C41.6397 217.81 46.7382 214.443 48.4583 209.278C48.9733 207.732 48.5734 206.98 46.8969 206.988C44.2022 207.001 41.5075 206.992 38.3224 206.992C39.017 206.183 39.5029 205.617 40.1192 204.943Z" fill="black"/>
<path d="M82.3447 194.745C85.4322 200.873 83.1851 205.223 75.2742 208.469C78.2157 212.771 81.1341 217.039 84.1131 221.397C81.0655 222.254 79.0431 221.647 77.5051 218.864C75.8162 215.807 73.6401 213.017 71.6531 210.128C71.2682 209.568 70.7762 209.082 70.3337 208.562C70.1346 208.628 69.9356 208.695 69.7366 208.762C69.7366 213.011 69.7366 217.259 69.7366 221.589C68.1591 221.589 66.9263 221.589 65.5884 221.589C65.5884 211.185 65.5884 200.886 65.5884 190.294C71.4656 190.489 77.7321 188.9 82.3447 194.745ZM69.8881 198.239C69.8881 200.383 69.8881 202.527 69.8881 205.238C72.3268 204.717 74.5475 204.504 76.5606 203.742C78.6365 202.956 79.4083 201.125 79.1614 198.835C78.9018 196.428 77.6221 194.951 75.3431 194.512C73.6296 194.182 71.846 194.215 69.8881 194.072C69.8881 195.439 69.8881 196.619 69.8881 198.239Z" fill="black"/>
<path d="M122.568 214.045C123.68 216.6 124.707 219.019 125.748 221.471C121.852 222.019 121.852 222.019 119.796 217.834C118.234 213.702 118.234 213.702 114.178 213.702C111.561 213.702 108.939 213.787 106.328 213.668C104.973 213.606 104.287 214.06 103.868 215.317C103.47 216.512 102.876 217.643 102.353 218.795C100.86 222.083 100.857 222.081 96.7358 221.433C101.478 210.71 106.194 200.047 111.08 189C114.985 197.532 118.734 205.721 122.568 214.045ZM111.671 199.978C111.509 199.729 111.348 199.479 111.025 198.982C109.352 202.639 107.749 206.145 106.085 209.781C109.579 209.781 112.665 209.781 115.976 209.781C114.517 206.476 113.146 203.372 111.671 199.978Z" fill="black"/>
<path d="M149.049 216.654C148.105 218.646 147.203 220.473 146.185 222.533C143.177 215.742 140.263 209.161 137.214 202.491C135.396 198.441 133.712 194.48 132.015 190.488C136.328 189.866 136.322 189.869 137.931 193.562C138.795 195.544 139.684 197.515 140.641 199.636C142.506 203.862 144.291 207.943 146.253 212.426C149.619 204.845 152.817 197.644 156.029 190.409C157.472 190.409 158.878 190.409 160.524 190.409C156.671 199.199 152.881 207.844 149.049 216.654Z" fill="black"/>
<path d="M271.703 189.214C273.139 189.5 274.378 189.733 275.592 190.058C279.034 190.982 279.03 190.997 279.108 194.661C278.73 195.118 278.308 195.381 277.606 195.498C276.058 194.937 274.815 194.416 273.521 194.125C266.118 192.464 259.568 195.65 257.311 201.953C254.315 210.686 261.509 218.698 270.616 217.959C273.291 217.742 275.899 216.702 278.597 216.024C278.597 217.158 278.597 218.665 278.597 220.186C266.086 226.824 251.46 218.176 251.761 204.468C252.322 200.036 253.896 196.292 257.224 193.44C261.35 189.904 266.107 188.494 271.703 189.214Z" fill="black"/>
<path d="M222.261 215.29C222.223 206.928 222.223 198.773 222.223 190.439C228.019 190.439 233.661 190.439 239.467 190.439C239.467 191.643 239.467 192.929 239.467 194.442C235.417 194.442 231.395 194.442 227.031 194.471C226.768 194.784 226.849 195.068 226.929 195.351C226.726 197.519 226.523 199.687 226.301 202.052C230.878 202.052 235.097 202.052 239.461 202.052C239.532 202.766 239.587 203.326 239.64 204.274C239.821 205.985 239.341 206.475 237.922 206.437C234.164 206.337 230.403 206.403 226.555 206.403C226.555 208.865 226.555 211.076 226.555 213.288C226.555 214.463 226.555 215.638 226.555 216.991C230.899 216.991 235.131 216.991 239.493 216.991C239.493 218.471 239.493 219.771 239.493 221.188C233.851 221.188 228.272 221.188 222.299 221.188C222.299 219.299 222.299 217.398 222.261 215.29Z" fill="black"/>
<path d="M201.93 221.34C200.595 221.46 199.419 221.46 198.04 221.46C198.04 212.361 198.04 203.506 198.04 194.485C195.477 194.485 193.114 194.485 190.603 194.485C190.603 193.095 190.603 191.861 190.603 190.252C195.317 190.252 200.135 190.252 205.16 190.21C206.704 190.168 208.041 190.168 209.554 190.168C209.554 191.605 209.554 192.827 209.554 194.336C207.236 194.336 204.827 194.336 202.089 194.336C202.089 203.485 202.089 212.352 201.93 221.34Z" fill="black"/>
<path d="M173.249 193.699C173.241 192.003 173.249 191.469 173.249 190.345C174.411 190.351 176.278 190.281 177.368 190.345C177.368 200.72 177.368 211.095 177.368 221.578C176.045 221.578 174.81 221.578 173.292 221.578C173.292 212.288 173.292 203.097 173.249 193.699Z" fill="black"/>
</svg>
