<svg width="300" height="300" viewBox="0 0 300 300" fill="none" xmlns="http://www.w3.org/2000/svg">
<path d="M206.27 62.6569C205.029 60.9046 202.619 60.4665 200.867 61.7077L105.73 128.369C106.46 129.391 107.556 130.048 108.943 130.048H203.13C205.248 130.048 207 128.296 207 126.179V64.8473C207 64.0441 206.781 63.314 206.27 62.6569Z" fill="#7856FF"/>
<path d="M111.133 61.7077C109.381 60.4665 106.971 60.9046 105.73 62.6569C105.292 63.314 105 64.0441 105 64.8473V126.252L150.268 89.1608L111.133 61.7077Z" fill="#7856FF"/>
<path d="M191.243 204.343C189.47 204.343 188.108 204.723 188.108 206.369V207.984C188.108 209.631 189.47 210.042 191.243 210.042C193.016 210.042 194.378 209.631 194.378 207.984V206.369C194.378 204.723 193.016 204.343 191.243 204.343Z" fill="#17274D"/>
<path d="M192.509 213.208H190.008C189.185 213.208 188.52 213.873 188.52 214.697V236.164C188.52 236.987 189.185 237.652 190.008 237.652H192.509C193.333 237.652 193.998 236.987 193.998 236.164V214.697C193.998 213.873 193.333 213.208 192.509 213.208Z" fill="#17274D"/>
<path d="M176.14 212.987C172.404 212.987 170.187 214.887 168.636 217.103V214.728C168.636 213.905 167.971 213.24 167.148 213.24H164.647C163.823 213.24 163.158 213.905 163.158 214.728V236.195C163.158 237.018 163.823 237.683 164.647 237.683H167.148C167.971 237.683 168.636 237.018 168.636 235.974V223.024C168.636 220.111 170.979 217.736 173.924 217.736C176.868 217.736 179.211 220.079 179.211 223.024V236.164C179.211 236.987 179.876 237.652 180.699 237.652H183.201C184.024 237.652 184.689 236.987 184.689 236.164V222.169C184.657 216.628 181.523 212.987 176.14 212.987Z" fill="#17274D"/>
<path d="M255.897 213.272C255.834 213.24 255.77 213.208 255.739 213.208C255.675 213.208 255.612 213.177 255.549 213.177C255.042 213.05 254.504 213.018 253.966 213.018C251.084 213.018 248.615 214.697 247.475 217.103V214.728C247.475 213.905 246.81 213.24 245.987 213.24H243.485C242.662 213.24 241.997 213.905 241.997 214.728V236.195C241.997 237.018 242.662 237.683 243.485 237.683H245.987C246.81 237.683 247.475 237.018 247.475 236.195V227.077C247.475 219.731 251.306 218.433 253.522 218.591C253.966 218.623 254.346 218.686 254.662 218.718C254.662 218.718 254.789 218.718 254.852 218.749C254.884 218.749 254.915 218.749 254.947 218.749C255.454 218.749 255.897 218.369 255.992 217.894L256.562 214.38C256.562 214.317 256.562 214.285 256.562 214.222C256.53 213.81 256.277 213.43 255.897 213.272Z" fill="#17274D"/>
<path d="M147.612 212.987C140.267 212.987 134.852 218.591 134.852 225.43V225.557C134.852 232.427 140.267 238 147.612 238C154.958 238 160.372 232.396 160.372 225.557V225.43C160.372 218.559 154.958 212.987 147.612 212.987ZM154.8 225.493V225.557C154.8 229.736 151.887 233.156 147.612 233.187C143.338 233.124 140.425 229.736 140.425 225.557V225.398C140.425 221.219 143.338 217.799 147.612 217.768C151.887 217.831 154.8 221.219 154.8 225.398V225.493Z" fill="#17274D"/>
<path d="M226.357 212.987C219.011 212.987 213.597 218.591 213.597 225.43V225.557C213.597 232.427 219.011 238 226.357 238C233.702 238 239.116 232.396 239.116 225.557V225.43C239.116 218.559 233.702 212.987 226.357 212.987ZM233.512 225.493V225.557C233.512 229.736 230.599 233.156 226.325 233.187C222.051 233.124 219.138 229.736 219.138 225.557V225.398C219.138 221.219 222.051 217.799 226.325 217.768C230.599 217.831 233.512 221.219 233.512 225.398V225.493Z" fill="#17274D"/>
<path d="M130.515 205.451H128.013C127.507 205.451 127.095 205.704 126.81 206.053L116.488 220.174L106.166 206.053C105.881 205.704 105.47 205.451 104.963 205.451H102.43C101.607 205.451 100.942 206.116 100.942 206.939V236.164C100.942 236.987 101.607 237.652 102.43 237.652H104.932C105.755 237.652 106.42 236.987 106.42 236.164V215.9L115.538 227.615C115.538 227.615 115.538 227.646 115.57 227.646L115.633 227.741C115.823 227.963 116.108 228.121 116.457 228.121C116.805 228.121 117.058 227.963 117.28 227.741L117.343 227.646C117.343 227.646 117.343 227.615 117.375 227.615L126.494 215.9V236.164C126.494 236.987 127.159 237.652 127.982 237.652H130.483C131.306 237.652 131.971 236.987 131.971 236.164V206.971C132.003 206.148 131.338 205.451 130.515 205.451Z" fill="#17274D"/>
<path d="M210.874 213.208H205.649V206.496C205.649 206.274 205.586 206.084 205.459 205.894C205.111 205.42 204.446 205.293 203.971 205.641L201.375 207.478C200.647 207.984 200.172 208.839 200.172 209.789V213.208H198.399C197.575 213.208 196.879 213.873 196.879 214.697V216.248C196.879 217.071 197.544 217.736 198.399 217.736H200.172V230.939C200.172 236.195 203.021 237.968 207.074 237.968C209.227 237.968 211.412 237.145 211.412 237.145C211.412 237.145 212.172 236.923 211.982 236.069C211.918 235.784 211.539 233.726 211.539 233.726C211.444 233.219 211.254 232.839 210.525 232.934C210.177 232.997 209.512 233.092 208.626 233.092C206.758 233.092 205.681 232.237 205.681 230.084V217.736H210.905C211.728 217.736 212.393 217.071 212.393 216.248V214.697C212.362 213.873 211.697 213.208 210.874 213.208Z" fill="#17274D"/>
<path d="M200.678 154C198.905 154 197.543 154.38 197.543 156.026V157.641C197.543 159.288 198.905 159.699 200.678 159.699C202.451 159.699 203.813 159.288 203.813 157.641V156.026C203.813 154.38 202.451 154 200.678 154Z" fill="#17274D"/>
<path d="M201.945 162.865H199.443C198.62 162.865 197.955 163.53 197.955 164.354V185.821C197.955 186.644 198.62 187.309 199.443 187.309H201.945C202.768 187.309 203.433 186.644 203.433 185.821V164.354C203.433 163.53 202.768 162.865 201.945 162.865Z" fill="#17274D"/>
<path d="M128.963 162.612C125.322 162.612 122.789 164.195 120.889 166.76C119.623 164.227 117.153 162.612 113.702 162.612C110.029 162.612 107.939 164.607 106.388 166.76V164.385C106.388 163.562 105.723 162.897 104.9 162.897H102.399C101.575 162.897 100.91 163.562 100.91 164.385V185.852C100.91 186.675 101.575 187.34 102.399 187.34H104.9C105.723 187.34 106.388 186.675 106.388 185.852V173.567C106.388 169.894 108.478 167.615 111.517 167.615C114.557 167.615 116.393 169.704 116.393 173.441V185.852C116.393 186.675 117.058 187.34 117.881 187.34H120.383C121.206 187.34 121.871 186.675 121.871 185.852V173.567C121.871 169.704 123.992 167.615 127 167.615C130.008 167.615 131.876 169.673 131.876 173.472V185.821C131.876 186.644 132.541 187.309 133.364 187.309H135.866C136.689 187.309 137.354 186.644 137.354 185.821V171.794C137.385 165.937 134.219 162.612 128.963 162.612Z" fill="#17274D"/>
<path d="M59.4011 160.364C61.7757 160.364 64.0554 161.124 65.9551 162.549C66.2084 162.739 66.5251 162.834 66.8417 162.834C67.2216 162.834 67.6016 162.675 67.8549 162.422L69.7863 160.491C70.0712 160.206 70.2296 159.794 70.1979 159.383C70.1662 158.971 69.9763 158.591 69.6596 158.338C66.7467 155.995 63.2005 154.76 59.4327 154.76C50.3773 154.76 43 162.137 43 171.193C43 180.248 50.3773 187.625 59.4327 187.625C63.2005 187.625 66.7467 186.391 69.6596 184.048C69.9763 183.794 70.1662 183.414 70.1979 183.003C70.2296 182.591 70.0712 182.179 69.7863 181.894L67.8549 179.963C67.5699 179.678 67.2216 179.551 66.8417 179.551C66.5251 179.551 66.2084 179.646 65.9551 179.836C64.0554 181.261 61.8074 182.021 59.4327 182.021C53.4485 182.021 48.6042 177.177 48.6042 171.193C48.6042 165.208 53.4169 160.364 59.4011 160.364Z" fill="#17274D"/>
<path d="M229.427 162.865H226.926C226.103 162.865 225.438 163.53 225.438 164.354V166.76C223.665 164.259 221.164 162.612 217.269 162.612C211.633 162.612 206.124 167.077 206.124 175.055V175.15C206.124 183.098 211.57 187.594 217.269 187.594C221.259 187.594 223.76 185.757 225.438 183.541L225.47 183.478V185.694C225.47 189.842 222.272 193.61 217.807 193.61C215.084 193.61 212.551 192.343 211.317 190.222C210.873 189.525 209.955 189.303 209.259 189.715L208.214 190.412C207.517 190.855 207.264 191.773 207.707 192.47C209.765 195.858 213.438 198.106 218.061 198.106C226.008 198.106 230.916 192.438 230.916 185.599V164.354C230.916 163.53 230.251 162.865 229.427 162.865ZM224.931 175.182C224.931 179.773 221.765 182.876 218.187 182.876C214.61 182.876 211.697 179.931 211.697 175.182V175.087C211.697 170.464 214.61 167.425 218.187 167.425C221.765 167.425 224.931 170.528 224.931 175.087V175.182Z" fill="#17274D"/>
<path d="M247.792 162.644C244.055 162.644 241.839 164.544 240.288 166.76V164.385C240.288 163.562 239.623 162.897 238.8 162.897H236.298C235.475 162.897 234.81 163.562 234.81 164.385V185.852C234.81 186.675 235.475 187.34 236.298 187.34H238.8C239.623 187.34 240.288 186.675 240.288 185.631V172.681C240.288 169.768 242.662 167.393 245.575 167.393C248.488 167.393 250.863 169.736 250.863 172.681V185.821C250.863 186.644 251.528 187.309 252.351 187.309H254.852C255.675 187.309 256.34 186.644 256.34 185.821V171.826C256.309 166.285 253.174 162.644 247.792 162.644Z" fill="#17274D"/>
<path d="M154.926 162.644C151.032 162.644 148.53 164.259 146.757 166.76V164.385C146.757 163.562 146.092 162.897 145.269 162.897H142.768C141.944 162.897 141.28 163.562 141.28 164.385V195.889C141.28 196.712 141.944 197.409 142.768 197.409H145.269C146.092 197.409 146.757 196.744 146.757 195.889V183.509C148.435 185.726 150.937 187.625 154.926 187.625C160.594 187.625 166.071 183.129 166.071 175.182V175.087C166.039 167.077 160.53 162.644 154.926 162.644ZM160.467 175.182C160.467 179.773 157.301 182.876 153.723 182.876C150.145 182.876 147.232 179.931 147.232 175.182V175.087C147.232 170.464 150.145 167.425 153.723 167.425C157.301 167.425 160.467 170.528 160.467 175.087V175.182Z" fill="#17274D"/>
<path d="M97.269 183.446C96.6674 183.446 96.1925 182.971 96.1925 182.401V164.354C96.1925 163.53 95.5276 162.865 94.7044 162.865H92.2031C91.3798 162.865 90.7149 163.53 90.7149 164.354V166.728C88.9419 164.227 86.4405 162.612 82.5461 162.612C76.9102 162.612 71.4326 167.077 71.4326 175.055V175.15C71.4326 183.098 76.8785 187.594 82.5461 187.594C86.6622 187.594 89.5751 185.757 90.8099 183.478C91.4432 185.694 93.4696 187.309 95.8759 187.309H97.269C97.8706 187.309 98.3455 186.834 98.3455 186.264V184.491C98.3455 183.921 97.8706 183.446 97.269 183.446ZM90.2083 175.182C90.2083 179.773 87.0421 182.876 83.4643 182.876C79.8864 182.876 76.9735 179.931 76.9735 175.182V175.087C76.9735 170.464 79.8864 167.425 83.4643 167.425C87.0421 167.425 90.2083 170.528 90.2083 175.087V175.182Z" fill="#17274D"/>
<path d="M194.251 183.446C193.681 183.446 193.206 182.971 193.206 182.401V164.354C193.206 163.53 192.541 162.865 191.718 162.865H189.216C188.393 162.865 187.728 163.53 187.728 164.354V166.728C185.955 164.227 183.454 162.612 179.559 162.612C173.924 162.612 168.414 167.077 168.414 175.055V175.15C168.414 183.098 173.86 187.594 179.559 187.594C183.676 187.594 186.588 185.757 187.823 183.478C188.457 185.694 190.483 187.309 192.889 187.309H194.282C194.852 187.309 195.327 186.834 195.327 186.264V184.491C195.327 183.921 194.852 183.446 194.251 183.446ZM187.222 175.182C187.222 179.773 184.055 182.876 180.478 182.876C176.9 182.876 173.987 179.931 173.987 175.182V175.087C173.987 170.464 176.9 167.425 180.478 167.425C184.055 167.425 187.222 170.496 187.222 175.087V175.182Z" fill="#17274D"/>
</svg>
