<svg width="300" height="300" viewBox="0 0 300 300" fill="none" xmlns="http://www.w3.org/2000/svg">
<path d="M15 193.133C15.1067 192.606 15.23 192.16 15.3176 191.704C16.0191 188.053 18.0463 185.836 21.0998 184.957C22.7888 184.471 24.5588 184.173 26.2978 184.137C32.3972 184.009 38.499 184.032 44.5999 184C44.7582 183.999 44.9166 184.02 45.1026 184.033C45.1026 186.317 45.1026 188.555 45.1026 190.896C44.8066 190.896 44.5327 190.895 44.2589 190.896C38.5326 190.908 32.8056 190.867 27.0807 190.978C26.0039 190.999 24.8603 191.449 23.882 192.012C22.5045 192.805 22.2483 194.427 22.2735 196.057C22.3116 198.518 23.5602 199.639 25.7262 200.035C26.6225 200.198 27.5508 200.151 28.4648 200.159C31.7265 200.188 34.9895 200.147 38.2496 200.24C39.8902 200.286 41.522 200.629 42.984 201.571C44.8628 202.782 45.8892 204.749 46.3572 207.1C46.9452 210.055 46.8565 213.011 46.1203 215.928C45.421 218.698 43.7666 220.386 41.4767 221.355C39.5611 222.166 37.5786 222.51 35.5489 222.513C29.2591 222.521 22.9692 222.516 16.6793 222.515C16.5661 222.515 16.4529 222.502 16.3046 222.494C16.3046 220.225 16.3046 217.989 16.3046 215.648C16.5478 215.648 16.7954 215.648 17.043 215.648C22.8868 215.643 28.7309 215.669 34.5742 215.603C35.607 215.591 36.663 215.292 37.6602 214.943C38.7349 214.566 39.2466 213.518 39.3193 212.272C39.4754 209.596 39.0327 207.465 36.3545 207.177C35.5403 207.089 34.7279 206.914 33.9135 206.904C31.0037 206.867 28.093 206.913 25.1833 206.868C23.2511 206.839 21.3635 206.466 19.5682 205.585C16.9052 204.279 15.5298 201.871 15.0464 198.619C15 196.794 15 195.002 15 193.133Z" fill="#1B3D59"/>
<path d="M234.593 190.967C233.048 191.027 231.557 190.95 230.104 191.186C228.569 191.435 227.063 192.058 226.598 194.059C225.829 197.372 226.712 199.613 230.041 200.12C230.551 200.197 231.071 200.21 231.586 200.212C235.129 200.226 238.674 200.179 242.216 200.264C243.445 200.293 244.695 200.521 245.888 200.871C248.659 201.685 250.332 203.838 251.037 206.996C251.708 210.001 251.591 212.999 250.829 215.965C250.142 218.637 248.556 220.292 246.348 221.274C244.1 222.273 241.76 222.559 239.379 222.561C233.136 222.566 226.894 222.563 220.651 222.562C220.536 222.562 220.421 222.547 220.255 222.536C220.255 220.285 220.255 218.051 220.255 215.697C220.507 215.697 220.778 215.697 221.049 215.697C227.01 215.692 232.971 215.72 238.932 215.653C240.014 215.641 241.109 215.318 242.166 214.997C242.893 214.777 243.384 214.113 243.634 213.264C244.081 211.747 243.958 210.254 243.351 208.853C242.695 207.336 241.341 207.191 240.132 207.133C236.688 206.969 233.239 206.973 229.792 206.9C227.769 206.858 225.772 206.626 223.86 205.775C221.338 204.654 219.675 202.646 219.108 199.563C218.526 196.403 218.628 193.274 219.63 190.225C220.591 187.297 222.63 185.849 225.081 184.992C227.053 184.304 229.083 184.136 231.132 184.134C236.107 184.128 241.082 184.107 246.057 184.094C247.294 184.09 248.53 184.093 249.797 184.093C249.797 186.379 249.797 188.619 249.797 190.967C244.737 190.967 239.7 190.967 234.593 190.967Z" fill="#2E6FA3"/>
<path d="M264.562 222.316C264.476 222.442 264.399 222.537 264.321 222.537C262.023 222.545 259.724 222.544 257.378 222.544C257.378 209.725 257.378 196.951 257.378 184.11C259.749 184.11 262.105 184.11 264.55 184.11C264.55 189.249 264.55 194.404 264.55 199.606C269.013 199.606 273.387 199.606 277.817 199.606C277.817 194.442 277.817 189.302 277.817 184.104C280.228 184.104 282.584 184.104 285 184.104C285 196.878 285 209.651 285 222.487C282.652 222.487 280.277 222.487 277.838 222.487C277.838 217.173 277.838 211.875 277.838 206.531C273.399 206.531 269.024 206.531 264.57 206.531C264.57 211.796 264.57 217.018 264.562 222.316Z" fill="#2E70A3"/>
<path d="M192.055 213.388C191.186 213.388 190.386 213.429 189.592 213.373C189.071 213.336 188.856 213.577 188.683 214.112C187.848 216.693 186.969 219.256 186.129 221.835C185.958 222.358 185.742 222.575 185.223 222.566C182.927 222.527 180.631 222.549 178.248 222.549C178.887 220.842 179.494 219.21 180.109 217.581C184.184 206.782 188.272 195.989 192.318 185.175C192.646 184.299 193.018 183.985 193.85 184.018C195.865 184.098 197.885 184.051 199.903 184.038C200.264 184.036 200.482 184.112 200.65 184.557C205.341 196.956 210.049 209.346 214.754 221.738C214.846 221.978 214.93 222.222 215.048 222.549C212.438 222.549 209.91 222.561 207.382 222.523C207.197 222.521 206.934 222.194 206.848 221.952C205.911 219.33 204.979 216.705 204.106 214.055C203.911 213.464 203.645 213.376 203.177 213.379C199.493 213.395 195.809 213.388 192.055 213.388ZM200.076 202.456C198.844 198.955 197.611 195.454 196.301 191.734C194.579 196.823 192.943 201.655 191.294 206.528C194.76 206.528 198.099 206.528 201.525 206.528C201.036 205.158 200.575 203.866 200.076 202.456Z" fill="#2E70A4"/>
<path d="M57.2245 205.852C57.3653 207.842 57.3789 209.778 57.6768 211.654C58.1251 214.478 59.5949 216.241 62.1569 216.679C63.9175 216.98 65.6577 216.985 67.3995 216.571C69.8361 215.992 71.0547 214.084 71.4466 211.417C71.6727 209.878 71.7754 208.299 71.7828 206.737C71.8169 199.557 71.7979 192.377 71.7979 185.197C71.7979 184.876 71.7979 184.556 71.7979 184.173C74.0904 184.173 76.326 184.173 78.6088 184.173C78.6207 184.407 78.643 184.642 78.6431 184.876C78.6449 192.815 78.6536 200.753 78.6391 208.692C78.6348 211.079 78.5032 213.471 77.7191 215.71C76.5032 219.182 74.1559 221.152 71.0855 222.102C67.9859 223.061 64.8423 223.152 61.6667 222.838C59.5716 222.631 57.5357 222.177 55.6441 221.085C52.8921 219.498 51.2603 216.899 50.7902 213.419C50.5275 211.475 50.3935 209.491 50.3814 207.523C50.3354 200.072 50.3629 192.621 50.3629 185.171C50.3629 184.852 50.3629 184.533 50.3629 184.163C52.6699 184.163 54.9085 184.163 57.2245 184.163C57.2245 191.376 57.2245 198.573 57.2245 205.852Z" fill="#1C3E5A"/>
<path d="M148.636 215.879C148.749 216 148.836 216.113 148.836 216.226C148.844 218.311 148.842 220.397 148.842 222.521C148.687 222.552 148.557 222.602 148.426 222.601C144.367 222.567 140.306 222.602 136.249 222.466C133.046 222.359 130.202 221.15 128.033 218.243C126.533 216.233 125.598 213.92 125.033 211.365C124.092 207.121 124.166 202.848 124.666 198.555C124.946 196.159 125.448 193.835 126.336 191.63C127.975 187.553 130.783 185.225 134.554 184.466C136.092 184.157 137.676 184.066 139.241 184.034C142.406 183.97 145.573 184.015 148.791 184.015C148.791 186.195 148.791 188.395 148.791 190.667C148.128 190.667 147.477 190.663 146.826 190.668C143.893 190.69 140.958 190.649 138.027 190.754C134.102 190.894 132.145 193.751 131.671 197.856C131.418 200.044 131.443 202.286 131.462 204.502C131.477 206.415 131.478 208.368 131.809 210.228C132.408 213.602 134.041 215.813 137.242 215.855C141.018 215.905 144.794 215.87 148.636 215.879Z" fill="#1C3E59"/>
<path d="M154.167 222.69C153.584 222.69 153.07 222.69 152.497 222.69C152.497 220.47 152.497 218.294 152.497 215.995C153.591 215.995 154.706 216.002 155.821 215.994C158.682 215.973 161.545 216.023 164.403 215.9C167.266 215.776 168.677 213.986 169.485 210.772C170.369 207.26 170.304 203.645 169.858 200.063C169.64 198.311 169.197 196.586 168.753 194.885C168.064 192.239 166.004 190.706 163.166 190.684C159.882 190.659 156.597 190.688 153.312 190.693C153.058 190.693 152.803 190.693 152.501 190.693C152.501 188.465 152.501 186.291 152.501 184.044C152.688 184.044 152.846 184.043 153.005 184.045C156.781 184.086 160.56 184.039 164.333 184.197C167.523 184.331 170.472 185.38 172.813 188.084C174.202 189.689 175.118 191.636 175.688 193.774C177.161 199.304 177.421 204.927 176.421 210.601C175.999 213.001 175.282 215.276 173.985 217.273C172.09 220.191 169.645 222.001 166.467 222.36C165.162 222.508 163.852 222.652 162.543 222.675C159.775 222.723 157.006 222.69 154.167 222.69Z" fill="#2E70A3"/>
<path d="M106.662 184.163C111.355 184.163 115.977 184.163 120.652 184.163C120.652 186.384 120.652 188.56 120.652 190.803C117.201 190.803 113.739 190.803 110.214 190.803C110.214 201.394 110.214 211.919 110.214 222.51C107.844 222.51 105.535 222.51 103.136 222.51C103.136 212.006 103.136 201.462 103.136 190.857C99.6305 190.857 96.2133 190.857 92.752 190.857C92.752 188.619 92.752 186.44 92.752 184.163C97.3642 184.163 101.978 184.163 106.662 184.163Z" fill="#1B3D59"/>
<path d="M89.046 184.367C89.0481 197.088 89.0481 209.735 89.0481 222.443C86.7958 222.443 84.5837 222.443 82.3286 222.443C82.3286 209.678 82.3286 196.907 82.3286 184.068C82.4982 184.046 82.6738 184.006 82.8495 184.005C84.7032 184 86.557 183.993 88.4105 184.015C88.6224 184.018 88.8328 184.196 89.046 184.367Z" fill="#1C3E5A"/>
<path d="M150.072 207.781C147.974 207.175 146.833 205.241 147.127 202.878C147.369 200.93 148.983 199.408 150.769 199.443C152.774 199.481 154.441 201.605 154.275 203.909C154.091 206.472 152.264 208.183 150.072 207.781Z" fill="#3071A4"/>
<path d="M145.81 201.59C145.749 202.899 145.692 204.142 145.63 205.476C142.351 204.858 138.91 204.208 135.469 203.559C135.474 203.511 135.478 203.463 135.482 203.415C138.769 202.735 142.055 202.052 145.343 201.386C145.489 201.356 145.657 201.475 145.81 201.59Z" fill="#20415D"/>
<circle cx="150.5" cy="120.5" r="44.5" fill="#1C3E5A"/>
<path d="M148.385 134.248C148.511 134.382 148.609 134.507 148.61 134.632C148.619 136.938 148.617 139.243 148.617 141.593C148.442 141.627 148.295 141.682 148.149 141.681C143.58 141.643 139.009 141.681 134.444 141.531C130.839 141.413 127.638 140.076 125.197 136.862C123.509 134.64 122.457 132.082 121.82 129.258C120.762 124.565 120.845 119.84 121.408 115.094C121.722 112.444 122.288 109.874 123.287 107.436C125.132 102.928 128.292 100.354 132.536 99.5158C134.267 99.1738 136.049 99.0728 137.811 99.0379C141.373 98.9674 144.937 99.0169 148.559 99.0169C148.559 101.427 148.559 103.859 148.559 106.372C147.813 106.372 147.08 106.367 146.347 106.373C143.046 106.397 139.743 106.352 136.445 106.467C132.027 106.623 129.824 109.781 129.291 114.321C129.007 116.74 129.035 119.218 129.056 121.669C129.073 123.784 129.075 125.944 129.446 127.999C130.121 131.731 131.958 134.175 135.561 134.222C139.81 134.277 144.061 134.238 148.385 134.248Z" fill="#FCFDFE"/>
<path d="M156.604 141.668C156.007 141.668 155.481 141.668 154.894 141.668C154.894 139.217 154.894 136.816 154.894 134.277C156.014 134.277 157.156 134.285 158.297 134.276C161.226 134.253 164.158 134.308 167.083 134.172C170.015 134.036 171.459 132.059 172.287 128.511C173.192 124.633 173.124 120.641 172.668 116.687C172.445 114.753 171.991 112.848 171.537 110.969C170.831 108.048 168.723 106.356 165.817 106.332C162.454 106.303 159.092 106.335 155.729 106.341C155.468 106.341 155.208 106.341 154.898 106.341C154.898 103.881 154.898 101.481 154.898 99.0007C155.089 99.0007 155.251 98.999 155.414 99.0009C159.28 99.0467 163.149 98.9946 167.012 99.1692C170.278 99.3169 173.297 100.475 175.693 103.461C177.116 105.233 178.053 107.382 178.636 109.744C180.145 115.849 180.411 122.057 179.388 128.322C178.955 130.971 178.222 133.483 176.894 135.688C174.953 138.91 172.45 140.908 169.197 141.305C167.861 141.468 166.52 141.627 165.179 141.652C162.345 141.705 159.51 141.668 156.604 141.668Z" fill="#389AE6"/>
<path d="M150.489 124.054C148.295 123.511 147.102 121.776 147.41 119.656C147.663 117.909 149.35 116.544 151.217 116.575C153.313 116.61 155.055 118.514 154.882 120.581C154.689 122.88 152.78 124.415 150.489 124.054Z" fill="#3CA2F1"/>
<path d="M146.106 119.277C146.032 120.481 145.963 121.625 145.888 122.851C141.908 122.282 137.73 121.685 133.553 121.088C133.558 121.044 133.564 121 133.569 120.955C137.558 120.33 141.547 119.702 145.539 119.089C145.716 119.062 145.92 119.171 146.106 119.277Z" fill="#A8D5FC"/>
</svg>
