<svg width="300" height="300" viewBox="0 0 300 300" fill="none" xmlns="http://www.w3.org/2000/svg">
<path fill-rule="evenodd" clip-rule="evenodd" d="M86.5001 42.8519C81.7421 45.0272 79.6101 47.2473 77.5381 52.1832C76.2101 55.3481 76.0001 64.2852 76.0001 117.637C76.0001 184.291 75.9161 183.169 81.3191 188.549C87.2371 194.44 86.5721 194.39 155.074 194.081L217.648 193.797L221.703 191.125C224.145 189.516 226.601 186.718 227.879 184.09C229.971 179.788 230 178.883 230 117.283C230 57.9714 229.905 54.6522 228.106 51.1439C225.767 46.5812 223.496 44.4866 218.746 42.5104C215.564 41.1873 206.602 40.9822 152.782 41.0011C94.4901 41.022 90.2441 41.1405 86.5001 42.8519ZM145.348 76.7476C152.292 80.0488 158.456 85.7016 156.045 86.5588C153.111 87.6031 145.269 95.8224 142.981 100.251C141.687 102.756 140.291 105.013 139.879 105.267C139.466 105.521 137.996 104.6 136.61 103.22C134.574 101.193 133.109 100.713 128.969 100.713C124.64 100.713 123.393 101.164 120.923 103.623C117.362 107.168 116.727 112.452 119.257 117.473C121.662 122.243 130.266 124.211 134.824 121.033C136.071 120.163 139.298 114.899 141.994 109.335C148.279 96.364 151.48 92.6227 159.765 88.5618C165.988 85.5114 167.163 85.2815 176.5 85.2815C185.903 85.2815 186.983 85.4975 193.459 88.6713C202.041 92.8775 208.389 99.2441 212.413 107.681C215.196 113.515 215.498 115.084 215.482 123.61C215.466 132.196 215.172 133.664 212.287 139.539C204.568 155.256 187.896 164.189 171.188 161.56L166 160.744V165.572V170.401H152H138V161.599V152.797L142.25 151.558C151.863 148.754 158.753 142.891 163.58 133.409L166.156 128.348L169.376 131.454C178.128 139.9 192.321 130.464 187.64 119.311C184.922 112.833 177.758 110.186 172.226 113.616C169.749 115.151 167.685 118.251 163.746 126.348C160.281 133.472 157.103 138.444 154.241 141.221C144.554 150.618 127.29 152.82 112.565 146.536C105.84 143.666 97.4401 135.256 93.7971 127.747C90.8631 121.699 90.5851 120.297 90.6051 111.664C90.6241 103.267 90.9651 101.479 93.6391 95.7348C98.5901 85.0993 109.529 76.0865 120.223 73.8316C127.764 72.2417 138.484 73.4851 145.348 76.7476Z" fill="#1E86B2"/>
<path fill-rule="evenodd" clip-rule="evenodd" d="M96.0241 244.783V258.566L98.7952 258.422L101.566 258.277V244.783V231.289L98.7952 231.145L96.0241 231V244.783ZM107.439 231.586C106.201 232.306 105.715 233.947 106.27 235.538C107.181 238.152 110.89 238.34 112.184 235.838C113.747 232.815 110.432 229.845 107.439 231.586ZM156.265 244.783V258.518H158.916H161.566V251.83C161.566 244.468 161.658 244.219 164.558 243.749C167.058 243.343 167.304 244.005 167.456 251.562L167.59 258.277L170.361 258.422L173.133 258.566V251.539C173.133 243.919 172.658 241.817 170.643 240.519C168.592 239.197 166.204 239.063 163.784 240.133L161.566 241.115V236.081V231.048H158.916H156.265V244.783ZM231.307 231.348C231.118 231.536 230.964 233.697 230.964 236.15V240.609L229.07 239.865C225.603 238.503 221.657 240.128 219.804 243.68C218.28 246.6 218.28 252.122 219.804 255.043C221.821 258.908 225.214 259.931 229.125 257.852C231.215 256.74 231.303 256.732 231.851 257.611C232.27 258.281 232.985 258.518 234.59 258.518H236.762L236.634 244.904L236.506 231.289L234.078 231.147C232.742 231.069 231.495 231.159 231.307 231.348ZM80.4742 232.027C74.0699 233.635 70 238.872 70 245.506C70 251.615 73.5735 256.76 78.8824 258.293C83.6631 259.674 89.2993 258.533 91.8993 255.659C92.8313 254.628 92.8294 254.619 91.3113 253.101L89.788 251.577L87.9007 252.638C85.4443 254.018 81.9137 254.054 79.7263 252.72C77.3933 251.298 76.0761 248.043 76.3976 244.496C76.5359 242.972 77.0506 241.037 77.5412 240.196C79.3754 237.054 84.4024 235.89 87.9417 237.787C90.04 238.911 90.6029 238.766 92.0318 236.728C93.2916 234.931 93.0328 234.444 90.0549 233.002C87.6708 231.848 83.0554 231.378 80.4742 232.027ZM177.47 245.243V258.564L180.482 258.421L183.494 258.277L183.632 254.13L183.771 249.982L187.431 249.672C193.293 249.177 196.699 246.648 197.386 242.28C198.002 238.359 196.4 234.978 193.105 233.25C191.5 232.408 190.139 232.227 184.337 232.087L177.47 231.921V245.243ZM190.413 238.108C191.339 239.174 191.501 239.776 191.287 241.371C190.927 244.053 189.611 245.024 186.332 245.024H183.735V241.008C183.735 238.799 183.898 236.826 184.096 236.622C184.295 236.419 185.542 236.376 186.867 236.527C188.68 236.734 189.559 237.125 190.413 238.108ZM125.406 239.673C124.735 239.889 123.693 240.368 123.091 240.737C122.123 241.331 121.939 241.311 121.516 240.566C121.172 239.961 120.43 239.723 118.892 239.723H116.747V249.12V258.518H119.639H122.53V251.799C122.53 245.401 122.582 245.043 123.601 244.329C125.027 243.33 126.539 243.381 127.516 244.46C128.176 245.189 128.313 246.475 128.313 251.93V258.518H131.248H134.183L134.019 251.146C133.843 243.237 133.517 242.074 131.008 240.43C129.587 239.499 127.024 239.153 125.406 239.673ZM143.137 239.927C138.855 241.455 136.988 244.262 136.988 249.171C136.988 254.197 139.792 258.006 144.086 258.812C146.391 259.244 150.421 258.268 152.171 256.853L153.614 255.687L152.293 254.346C150.992 253.027 150.948 253.018 149.568 253.834C147.733 254.917 145.564 254.886 144.169 253.757C143.233 253 143.019 252.294 142.858 249.45C142.681 246.314 142.762 245.953 143.901 244.814C145.317 243.399 147.387 243.2 149.474 244.278C150.753 244.94 150.898 244.905 152.11 243.639C153.378 242.316 153.382 242.29 152.452 241.448C150.243 239.449 146.285 238.803 143.137 239.927ZM203.976 240.001C202.783 240.425 201.394 241.173 200.888 241.662C200.018 242.505 200.012 242.618 200.779 243.788C201.689 245.177 203.102 245.352 204.94 244.301C206.75 243.266 208.622 243.409 209.491 244.65C211.06 246.89 210.266 247.911 206.948 247.92C204.755 247.926 200.375 249.912 199.677 251.217C199.008 252.468 199.008 255.412 199.677 256.663C200.295 257.817 202.908 259 204.842 259C205.601 259 207.241 258.484 208.487 257.853C210.671 256.747 210.769 256.739 211.236 257.613C211.585 258.265 212.255 258.518 213.631 258.518H215.542L215.54 251.41C215.538 243.679 215.118 242.176 212.47 240.441C210.723 239.296 206.563 239.08 203.976 240.001ZM106.627 249.12V258.518H109.277H111.928V249.12V239.723H109.277H106.627V249.12ZM230.442 244.253C230.801 244.686 230.952 246.462 230.863 249.188C230.726 253.363 230.695 253.461 229.317 254.12C227.209 255.128 225.576 254.365 224.749 251.985C223.91 249.571 224.387 245.818 225.697 244.507C226.792 243.413 229.619 243.262 230.442 244.253ZM210.149 252.343C210.342 254.008 208.547 255.273 206.299 255.057C204.876 254.92 204.699 254.743 204.699 253.458C204.699 252.238 204.962 251.92 206.386 251.428C208.896 250.558 209.973 250.82 210.149 252.343Z" fill="black"/>
</svg>
