<svg width="300" height="300" viewBox="0 0 300 300" fill="none" xmlns="http://www.w3.org/2000/svg">
<mask id="mask0_15_2" style="mask-type:luminance" maskUnits="userSpaceOnUse" x="25" y="110" width="64" height="64">
<path d="M56.799 110C50.5098 110 44.3618 111.861 39.1324 115.346C33.9031 118.832 29.8274 123.787 27.4206 129.583C25.0138 135.38 24.3841 141.758 25.611 147.912C26.838 154.066 29.8666 159.718 34.3137 164.155C38.7609 168.592 44.4269 171.613 50.5954 172.837C56.7638 174.061 63.1575 173.433 68.968 171.032C74.7785 168.631 79.7448 164.565 83.239 159.348C86.7331 154.131 88.5981 147.998 88.5981 141.723C88.5981 137.557 87.7755 133.432 86.1775 129.583C84.5794 125.734 82.2371 122.237 79.2843 119.292C76.3315 116.346 72.826 114.009 68.968 112.415C65.11 110.821 60.9749 110 56.799 110Z" fill="white"/>
</mask>
<g mask="url(#mask0_15_2)">
<path d="M88.5979 110H25.0022V173.444H88.5979V110Z" fill="url(#paint0_linear_15_2)"/>
</g>
<mask id="mask1_15_2" style="mask-type:luminance" maskUnits="userSpaceOnUse" x="41" y="127" width="34" height="32">
<path d="M74.8512 127.134H41.1963V158.633H74.8512V127.134Z" fill="white"/>
</mask>
<g mask="url(#mask1_15_2)">
<mask id="mask2_15_2" style="mask-type:luminance" maskUnits="userSpaceOnUse" x="41" y="127" width="34" height="32">
<path d="M74.8512 127.134H41.1963V158.633H74.8512V127.134Z" fill="white"/>
</mask>
<g mask="url(#mask2_15_2)">
<g opacity="0.7">
<mask id="mask3_15_2" style="mask-type:luminance" maskUnits="userSpaceOnUse" x="42" y="127" width="17" height="14">
<path d="M58.0845 127.314H42.2961V140.868H58.0845V127.314Z" fill="white"/>
</mask>
<g mask="url(#mask3_15_2)">
<mask id="mask4_15_2" style="mask-type:luminance" maskUnits="userSpaceOnUse" x="42" y="127" width="17" height="14">
<path d="M58.0845 134.797C57.234 136.886 56.238 138.914 55.1037 140.864C50.1872 138.694 45.8133 135.464 42.2961 131.408C44.1568 130.216 45.8957 128.845 47.4879 127.314C50.4575 130.519 54.0672 133.069 58.0845 134.797Z" fill="white"/>
</mask>
<g mask="url(#mask4_15_2)">
<path d="M44.069 122.349L38.0093 139.348L56.3093 145.841L62.369 128.842L44.069 122.349Z" fill="url(#paint1_linear_15_2)"/>
</g>
</g>
</g>
<g opacity="0.7">
<mask id="mask5_15_2" style="mask-type:luminance" maskUnits="userSpaceOnUse" x="55" y="127" width="17" height="14">
<path d="M71.6321 127.556H55.8438V140.868H71.6321V127.556Z" fill="white"/>
</mask>
<g mask="url(#mask5_15_2)">
<mask id="mask6_15_2" style="mask-type:luminance" maskUnits="userSpaceOnUse" x="55" y="127" width="17" height="14">
<path d="M71.6321 134.907C70.7812 136.965 69.7851 138.96 68.6513 140.877C63.749 138.754 59.3761 135.578 55.8438 131.577C57.7014 130.409 59.4403 129.062 61.0355 127.556C64.0179 130.714 67.6267 133.217 71.6321 134.907Z" fill="white"/>
</mask>
<g mask="url(#mask6_15_2)">
<path d="M51.5569 139.376L57.6156 122.68L75.9158 129.056L69.857 145.752L51.5569 139.376Z" fill="url(#paint2_linear_15_2)"/>
</g>
</g>
</g>
<path d="M47.5451 127.351V152.793C47.4724 154.405 46.7646 155.923 45.5755 157.016C44.3865 158.11 42.8126 158.691 41.1963 158.633V133.191C41.2689 131.579 41.9768 130.061 43.1658 128.967C44.3549 127.873 45.9288 127.292 47.5451 127.351Z" fill="white"/>
<path d="M60.9667 127.351V148.793C60.8941 150.405 60.1862 151.923 58.9972 153.016C57.8081 154.11 56.2342 154.691 54.6179 154.633V133.191C54.6906 131.579 55.3984 130.061 56.5875 128.967C57.7765 127.873 59.3504 127.292 60.9667 127.351Z" fill="white"/>
<path d="M74.8509 127.134V145.024C74.7771 146.658 74.0595 148.197 72.8543 149.306C71.649 150.415 70.0536 151.004 68.415 150.946V133.056C68.4889 131.422 69.2065 129.883 70.4117 128.774C71.6169 127.665 73.2123 127.075 74.8509 127.134Z" fill="white"/>
</g>
</g>
<mask id="mask7_15_2" style="mask-type:luminance" maskUnits="userSpaceOnUse" x="103" y="115" width="172" height="58">
<path d="M275 115.15H103.625V172.05H275V115.15Z" fill="white"/>
</mask>
<g mask="url(#mask7_15_2)">
<path d="M170.839 127.84C165.932 127.712 161.108 129.122 157.044 131.87L159.878 136.683C162.632 134.672 165.932 133.54 169.343 133.435C174.407 133.435 177 135.842 177 139.872V140.832H167.283C159.567 140.891 155.168 144.624 155.168 150.455C155.168 156.112 159.509 160.379 166.44 160.379C168.413 160.529 170.394 160.228 172.233 159.499C174.072 158.77 175.719 157.631 177.051 156.171V160.08H183.865L183.805 139.088C183.745 132.05 179.101 127.84 170.842 127.84M176.993 148.825C176.629 152.313 172.833 154.9 167.888 154.9C164.03 154.9 161.679 153.035 161.679 150.148C161.679 147.083 163.787 145.876 168.31 145.876H176.993V148.825Z" fill="black"/>
<path d="M196.713 129.232H189.842V160.077H196.713V129.232Z" fill="black"/>
<path d="M210.425 115.449H203.492V160.077H210.425V115.449Z" fill="black"/>
<path d="M223.951 129.232H217.079V160.077H223.951V129.232Z" fill="black"/>
<path d="M268.106 129.284L259.605 152.322L250.473 129.284H239.448V125.495C239.398 124.913 239.477 124.328 239.677 123.781C239.878 123.233 240.196 122.735 240.61 122.323C241.023 121.91 241.522 121.593 242.071 121.392C242.62 121.192 243.207 121.114 243.789 121.163C245.376 121.203 246.911 121.728 248.188 122.667L250.844 117.376C248.729 115.889 246.196 115.11 243.608 115.15C242.14 115.075 240.672 115.309 239.299 115.836C237.927 116.363 236.68 117.171 235.64 118.208C234.6 119.246 233.79 120.489 233.262 121.859C232.734 123.228 232.5 124.692 232.574 126.158V129.284H228.356V134.457H232.574V160.08H239.448V134.457H245.508L256.107 159.6L255.023 162.007C254.678 163.03 254.023 163.921 253.148 164.557C252.274 165.193 251.223 165.542 250.141 165.556C248.618 165.517 247.153 164.966 245.982 163.993L243.026 169.346C245.07 171.145 247.718 172.111 250.443 172.052C252.771 172.093 255.049 171.375 256.931 170.007C258.814 168.639 260.197 166.696 260.872 164.473L275 129.284H268.106Z" fill="black"/>
<path d="M193.27 117.849C192.522 117.849 191.792 118.07 191.171 118.484C190.549 118.898 190.065 119.487 189.779 120.176C189.493 120.865 189.418 121.622 189.564 122.354C189.71 123.085 190.07 123.756 190.598 124.283C191.126 124.81 191.8 125.169 192.533 125.315C193.265 125.46 194.025 125.386 194.715 125.1C195.406 124.815 195.996 124.332 196.411 123.712C196.826 123.092 197.048 122.364 197.048 121.618C197.048 120.619 196.65 119.66 195.941 118.953C195.233 118.246 194.272 117.849 193.27 117.849Z" fill="black"/>
<path d="M220.513 117.849C219.766 117.849 219.036 118.07 218.414 118.484C217.793 118.898 217.309 119.487 217.023 120.176C216.737 120.865 216.662 121.622 216.808 122.354C216.954 123.085 217.314 123.756 217.842 124.283C218.37 124.81 219.044 125.169 219.776 125.315C220.509 125.46 221.269 125.386 221.959 125.1C222.65 124.815 223.24 124.332 223.655 123.712C224.07 123.092 224.292 122.364 224.292 121.618C224.292 120.619 223.894 119.66 223.185 118.953C222.476 118.246 221.516 117.849 220.513 117.849Z" fill="black"/>
<path d="M142.144 115.906L142.014 116.167C137.306 125.479 127.19 146.208 127.19 146.208L112.172 115.906H106.336L103.625 159.757H110.579C110.579 159.757 111.521 132.96 111.53 130.24L124.558 154.761H129.937L142.628 130.578C142.694 134.713 143.638 159.755 143.638 159.755H150.594L147.882 115.906H142.144Z" fill="black"/>
</g>
<mask id="mask8_15_2" style="mask-type:luminance" maskUnits="userSpaceOnUse" x="103" y="179" width="166" height="12">
<path d="M268.053 179.351H103.625V190.569H268.053V179.351Z" fill="white"/>
</mask>
<g mask="url(#mask8_15_2)">
<mask id="mask9_15_2" style="mask-type:luminance" maskUnits="userSpaceOnUse" x="103" y="179" width="166" height="12">
<path d="M268.053 179.351H103.625V190.569H268.053V179.351Z" fill="white"/>
</mask>
<g mask="url(#mask9_15_2)">
<g opacity="0.7">
<mask id="mask10_15_2" style="mask-type:luminance" maskUnits="userSpaceOnUse" x="103" y="179" width="166" height="12">
<path d="M268.053 179.351H103.625V190.569H268.053V179.351Z" fill="white"/>
</mask>
<g mask="url(#mask10_15_2)">
<path d="M159.672 185.03V184.973C159.672 184.847 159.647 184.722 159.598 184.606C159.55 184.489 159.479 184.384 159.39 184.295C159.3 184.205 159.194 184.135 159.078 184.086C158.961 184.038 158.836 184.013 158.709 184.013H156.207C155.953 184.013 155.708 183.911 155.528 183.731C155.348 183.551 155.247 183.308 155.247 183.053V180.557C155.247 180.303 155.146 180.059 154.965 179.879C154.785 179.699 154.54 179.597 154.285 179.597C154.03 179.597 153.785 179.699 153.605 179.879C153.424 180.059 153.323 180.303 153.323 180.557V183.73C153.323 184.329 153.561 184.904 153.986 185.328C154.411 185.752 154.988 185.99 155.589 185.99H158.709C158.836 185.99 158.961 185.966 159.078 185.917C159.194 185.869 159.3 185.798 159.39 185.709C159.479 185.62 159.55 185.514 159.598 185.398C159.647 185.281 159.672 185.157 159.672 185.03Z" fill="url(#paint3_linear_15_2)"/>
<path d="M148.867 184.973V185.03C148.867 185.285 148.968 185.529 149.149 185.709C149.329 185.889 149.574 185.99 149.829 185.99H152.331C152.586 185.991 152.83 186.092 153.01 186.272C153.19 186.452 153.291 186.696 153.291 186.95V189.446C153.291 189.701 153.393 189.945 153.573 190.125C153.753 190.305 153.998 190.406 154.253 190.406C154.509 190.406 154.753 190.305 154.934 190.125C155.114 189.945 155.216 189.701 155.216 189.446V186.274C155.216 185.674 154.977 185.099 154.552 184.675C154.127 184.252 153.551 184.013 152.95 184.013H149.829C149.574 184.013 149.329 184.114 149.149 184.295C148.968 184.475 148.867 184.719 148.867 184.973Z" fill="black"/>
<path d="M212.399 184.896C212.467 184.965 212.522 185.048 212.558 185.139C212.594 185.231 212.611 185.328 212.609 185.426V188.932C212.612 189.065 212.578 189.196 212.512 189.311C212.446 189.426 212.35 189.521 212.234 189.586C211.237 190.226 210.076 190.566 208.891 190.566C207.886 190.575 206.896 190.317 206.025 189.817C205.166 189.329 204.453 188.621 203.96 187.766C203.467 186.912 203.211 185.941 203.22 184.955C203.213 183.97 203.469 183 203.962 182.146C204.456 181.292 205.168 180.585 206.027 180.098C206.897 179.6 207.883 179.342 208.886 179.351C209.393 179.349 209.898 179.406 210.392 179.522C210.853 179.625 211.296 179.799 211.704 180.036C211.819 180.1 211.916 180.191 211.986 180.301C212.049 180.405 212.081 180.523 212.08 180.644C212.082 180.844 212.004 181.036 211.865 181.179C211.801 181.251 211.723 181.309 211.635 181.349C211.548 181.388 211.452 181.408 211.356 181.408C211.212 181.411 211.071 181.373 210.948 181.298C210.303 180.997 209.599 180.84 208.886 180.841C208.169 180.834 207.464 181.019 206.844 181.379C206.225 181.738 205.713 182.257 205.365 182.882C205.004 183.518 204.819 184.238 204.826 184.969C204.818 185.697 205.004 186.415 205.365 187.049C205.714 187.667 206.22 188.183 206.833 188.544C207.456 188.915 208.17 189.107 208.895 189.099C209.271 189.097 209.645 189.055 210.011 188.973C210.359 188.905 210.698 188.795 211.019 188.646V186.157H209.115C209.017 186.16 208.919 186.142 208.828 186.106C208.737 186.07 208.654 186.016 208.584 185.947C208.51 185.882 208.452 185.801 208.412 185.711C208.373 185.621 208.353 185.524 208.355 185.426C208.353 185.325 208.372 185.225 208.412 185.133C208.451 185.04 208.51 184.957 208.584 184.889C208.654 184.82 208.737 184.766 208.828 184.73C208.92 184.694 209.017 184.676 209.115 184.678H211.865C211.963 184.677 212.061 184.697 212.151 184.736C212.241 184.776 212.322 184.834 212.387 184.907" fill="black"/>
<path d="M240.66 187.808C240.228 188.638 239.577 189.335 238.779 189.826C237.955 190.311 237.017 190.567 236.06 190.567C235.104 190.567 234.165 190.311 233.342 189.826C232.543 189.336 231.893 188.638 231.461 187.808C230.998 186.929 230.762 185.95 230.774 184.957C230.762 183.964 230.998 182.984 231.461 182.105C231.893 181.275 232.543 180.577 233.342 180.087C234.166 179.602 235.104 179.347 236.06 179.347C237.017 179.347 237.955 179.602 238.779 180.087C239.577 180.577 240.227 181.275 240.66 182.105C241.122 182.984 241.359 183.964 241.347 184.957C241.359 185.95 241.122 186.929 240.66 187.808ZM239.262 182.845C238.971 182.242 238.519 181.731 237.956 181.367C237.396 181.009 236.743 180.822 236.078 180.829C235.407 180.819 234.748 181.003 234.181 181.36C233.617 181.72 233.166 182.23 232.877 182.832C232.561 183.496 232.404 184.224 232.419 184.96C232.405 185.689 232.562 186.411 232.877 187.069C233.167 187.673 233.618 188.185 234.181 188.55C234.751 188.902 235.407 189.088 236.078 189.088C236.748 189.088 237.405 188.902 237.975 188.55C238.538 188.186 238.99 187.673 239.281 187.069C239.596 186.411 239.753 185.689 239.739 184.96C239.753 184.23 239.596 183.507 239.281 182.848" fill="black"/>
<path d="M254.707 179.7C254.839 179.848 254.909 180.04 254.902 180.237V186.221C254.914 186.993 254.727 187.756 254.357 188.434C254.006 189.074 253.484 189.605 252.849 189.968C252.19 190.341 251.444 190.532 250.686 190.521C249.921 190.533 249.167 190.342 248.5 189.968C247.862 189.607 247.338 189.076 246.986 188.434C246.616 187.756 246.428 186.993 246.441 186.221V180.24C246.439 180.139 246.458 180.039 246.498 179.947C246.537 179.854 246.596 179.771 246.67 179.703C246.745 179.632 246.833 179.577 246.929 179.541C247.025 179.505 247.128 179.488 247.231 179.492C247.329 179.494 247.426 179.515 247.515 179.554C247.605 179.593 247.686 179.65 247.753 179.721C247.827 179.788 247.885 179.87 247.924 179.962C247.964 180.053 247.983 180.152 247.982 180.251V186.221C247.975 186.731 248.105 187.234 248.358 187.677C248.595 188.096 248.94 188.443 249.357 188.683C249.765 188.92 250.228 189.044 250.7 189.042C251.187 189.046 251.666 188.922 252.091 188.683C252.516 188.446 252.87 188.098 253.115 187.677C253.373 187.236 253.505 186.732 253.497 186.221V180.24C253.49 180.043 253.557 179.851 253.685 179.703C253.75 179.632 253.83 179.576 253.919 179.54C254.008 179.503 254.105 179.487 254.201 179.492C254.298 179.488 254.395 179.505 254.486 179.541C254.576 179.577 254.658 179.632 254.725 179.703" fill="black"/>
<path d="M266.525 179.952C266.996 180.251 267.381 180.666 267.643 181.158C267.921 181.676 268.063 182.254 268.058 182.841C268.062 183.432 267.92 184.016 267.643 184.539C267.384 185.04 266.999 185.464 266.525 185.771C266.071 186.07 265.538 186.229 264.994 186.228H262.057V189.666C262.061 189.862 261.988 190.053 261.853 190.196C261.789 190.269 261.71 190.328 261.621 190.367C261.532 190.407 261.435 190.426 261.338 190.425C261.24 190.429 261.143 190.412 261.053 190.376C260.962 190.34 260.881 190.285 260.813 190.214C260.68 190.068 260.611 189.875 260.618 189.677V180.253C260.617 180.154 260.637 180.055 260.677 179.964C260.716 179.873 260.774 179.791 260.847 179.723C260.915 179.65 260.998 179.593 261.089 179.553C261.181 179.514 261.279 179.494 261.379 179.495H265.004C265.546 179.492 266.078 179.647 266.534 179.94M265.785 184.512C266.032 184.321 266.228 184.072 266.355 183.787C266.495 183.484 266.567 183.154 266.566 182.82C266.58 182.331 266.418 181.853 266.108 181.474C265.979 181.304 265.813 181.165 265.623 181.069C265.432 180.973 265.222 180.923 265.008 180.921H262.071V184.804H265.008C265.292 184.804 265.567 184.708 265.789 184.532" fill="black"/>
<path d="M109.53 179.952C110.001 180.251 110.386 180.666 110.648 181.159C110.925 181.676 111.066 182.254 111.06 182.841C111.065 183.432 110.924 184.016 110.648 184.539C110.389 185.04 110.003 185.464 109.53 185.771C109.076 186.07 108.543 186.229 107.999 186.228H105.062V189.666C105.066 189.862 104.993 190.053 104.858 190.196C104.794 190.269 104.715 190.328 104.626 190.367C104.537 190.407 104.44 190.426 104.342 190.425C104.245 190.427 104.147 190.408 104.057 190.37C103.967 190.332 103.886 190.275 103.82 190.203C103.688 190.056 103.618 189.863 103.625 189.666V180.253C103.624 180.154 103.644 180.055 103.684 179.964C103.723 179.873 103.781 179.791 103.854 179.723C103.922 179.654 104.003 179.599 104.092 179.562C104.182 179.524 104.278 179.505 104.375 179.506H107.999C108.542 179.503 109.074 179.658 109.53 179.952ZM108.78 184.523C109.027 184.335 109.224 184.089 109.353 183.808C109.493 183.505 109.565 183.175 109.564 182.841C109.576 182.351 109.411 181.873 109.099 181.495C108.97 181.324 108.804 181.186 108.614 181.09C108.423 180.994 108.213 180.943 107.999 180.941H105.062V184.804H107.999C108.283 184.804 108.558 184.708 108.78 184.532" fill="black"/>
<path d="M125.373 187.808C124.941 188.638 124.291 189.335 123.492 189.826C122.669 190.311 121.73 190.567 120.774 190.567C119.817 190.567 118.879 190.311 118.055 189.826C117.256 189.336 116.606 188.638 116.174 187.808C115.712 186.929 115.475 185.95 115.487 184.957C115.475 183.964 115.712 182.984 116.174 182.105C116.606 181.275 117.257 180.577 118.055 180.087C118.879 179.602 119.817 179.347 120.774 179.347C121.73 179.347 122.668 179.602 123.492 180.087C124.29 180.577 124.94 181.275 125.373 182.105C125.836 182.984 126.072 183.964 126.06 184.957C126.072 185.95 125.835 186.929 125.373 187.808ZM123.975 182.845C123.684 182.242 123.232 181.731 122.67 181.367C122.104 181.005 121.444 180.818 120.772 180.829C120.102 180.819 119.443 181.003 118.875 181.36C118.312 181.72 117.86 182.23 117.572 182.832C117.255 183.496 117.098 184.224 117.113 184.96C117.099 185.689 117.256 186.411 117.572 187.069C117.862 187.673 118.313 188.185 118.875 188.55C119.445 188.902 120.102 189.088 120.772 189.088C121.443 189.088 122.099 188.902 122.67 188.55C123.233 188.185 123.684 187.673 123.975 187.069C124.291 186.411 124.448 185.689 124.434 184.96C124.448 184.23 124.291 183.504 123.975 182.845Z" fill="black"/>
<path d="M132.442 190.249C131.823 190.014 131.256 189.663 130.771 189.213C130.672 189.138 130.591 189.042 130.534 188.931C130.478 188.82 130.447 188.698 130.444 188.573C130.446 188.478 130.468 188.384 130.507 188.298C130.546 188.211 130.603 188.133 130.673 188.068C130.738 187.996 130.817 187.938 130.906 187.899C130.995 187.859 131.091 187.839 131.188 187.84C131.358 187.835 131.522 187.896 131.647 188.011C132.022 188.368 132.458 188.655 132.934 188.859C133.414 189.048 133.926 189.14 134.442 189.131C135.03 189.149 135.609 188.99 136.105 188.674C136.311 188.561 136.482 188.395 136.603 188.195C136.723 187.994 136.789 187.765 136.793 187.531C136.796 187.281 136.734 187.034 136.614 186.814C136.493 186.594 136.318 186.409 136.105 186.276C135.481 185.911 134.796 185.66 134.082 185.536C133.179 185.393 132.327 185.022 131.608 184.459C131.317 184.201 131.088 183.881 130.937 183.522C130.787 183.164 130.719 182.776 130.739 182.388C130.726 181.82 130.889 181.262 131.207 180.791C131.545 180.316 132.011 179.947 132.549 179.723C133.162 179.467 133.821 179.34 134.485 179.351C135.11 179.346 135.731 179.451 136.318 179.661C136.834 179.838 137.307 180.121 137.705 180.493C137.81 180.572 137.897 180.672 137.959 180.788C138.021 180.904 138.057 181.032 138.064 181.163C138.065 181.256 138.046 181.348 138.01 181.434C137.974 181.52 137.921 181.597 137.853 181.661C137.79 181.733 137.712 181.791 137.625 181.83C137.538 181.87 137.443 181.89 137.347 181.89C137.216 181.896 137.087 181.852 136.987 181.767C136.664 181.464 136.282 181.23 135.865 181.081C135.428 180.902 134.962 180.807 134.49 180.8C133.905 180.769 133.324 180.918 132.827 181.227C132.635 181.347 132.478 181.514 132.37 181.713C132.262 181.911 132.207 182.133 132.21 182.359C132.201 182.59 132.253 182.82 132.361 183.025C132.469 183.23 132.63 183.403 132.827 183.527C133.394 183.858 134.014 184.09 134.66 184.212C135.344 184.348 136.011 184.557 136.651 184.836C137.136 185.049 137.551 185.394 137.847 185.833C138.148 186.336 138.295 186.916 138.268 187.501C138.275 188.075 138.097 188.636 137.76 189.101C137.406 189.58 136.932 189.956 136.385 190.192C135.779 190.454 135.125 190.587 134.465 190.58C133.779 190.593 133.097 190.484 132.449 190.26" fill="black"/>
<path d="M144.669 190.194C144.525 190.339 144.329 190.421 144.124 190.422C144.021 190.425 143.918 190.407 143.822 190.367C143.727 190.328 143.641 190.269 143.57 190.194C143.5 190.122 143.445 190.037 143.409 189.943C143.373 189.85 143.356 189.75 143.359 189.65V180.253C143.357 180.155 143.375 180.057 143.413 179.966C143.45 179.875 143.506 179.792 143.576 179.723C143.65 179.649 143.738 179.59 143.835 179.551C143.931 179.511 144.035 179.492 144.14 179.495C144.241 179.495 144.34 179.515 144.432 179.554C144.525 179.594 144.609 179.651 144.678 179.723C144.752 179.79 144.81 179.873 144.85 179.964C144.889 180.055 144.909 180.154 144.908 180.253V189.648C144.91 189.749 144.892 189.851 144.852 189.944C144.813 190.038 144.753 190.122 144.678 190.192" fill="black"/>
<path d="M164.69 190.194C164.545 190.339 164.349 190.421 164.144 190.422C164.041 190.425 163.938 190.407 163.843 190.367C163.747 190.328 163.661 190.269 163.59 190.194C163.52 190.122 163.466 190.037 163.429 189.943C163.393 189.85 163.376 189.75 163.379 189.65V180.253C163.377 180.155 163.395 180.057 163.433 179.966C163.47 179.875 163.526 179.792 163.597 179.723C163.67 179.649 163.758 179.59 163.855 179.551C163.952 179.511 164.056 179.492 164.16 179.495C164.261 179.495 164.36 179.515 164.453 179.554C164.545 179.594 164.629 179.651 164.699 179.723C164.772 179.79 164.83 179.873 164.87 179.964C164.909 180.055 164.929 180.154 164.928 180.253V189.648C164.931 189.749 164.912 189.851 164.872 189.944C164.833 190.038 164.774 190.122 164.699 190.192" fill="black"/>
<path d="M179.13 179.693C179.203 179.755 179.261 179.831 179.301 179.917C179.34 180.003 179.36 180.097 179.359 180.192C179.356 180.31 179.33 180.426 179.282 180.535L175.295 189.929C175.229 190.077 175.121 190.202 174.983 190.288C174.866 190.372 174.725 190.418 174.58 190.418C174.435 190.418 174.294 190.372 174.177 190.288C174.052 190.203 173.953 190.087 173.888 189.952L169.908 180.532C169.86 180.43 169.835 180.318 169.837 180.205C169.834 180.106 169.852 180.006 169.892 179.914C169.931 179.823 169.991 179.741 170.067 179.675C170.209 179.54 170.399 179.465 170.596 179.465C170.749 179.464 170.897 179.512 171.021 179.602C171.145 179.692 171.236 179.818 171.283 179.963L174.688 187.986L177.895 179.947C177.962 179.811 178.061 179.693 178.184 179.604C178.301 179.523 178.44 179.48 178.583 179.481C178.786 179.477 178.983 179.554 179.13 179.693Z" fill="black"/>
<path d="M184.263 180.253C184.263 180.154 184.283 180.056 184.322 179.964C184.362 179.873 184.419 179.791 184.492 179.723C184.56 179.654 184.641 179.599 184.73 179.562C184.819 179.525 184.915 179.506 185.012 179.506H190.449C190.548 179.503 190.646 179.519 190.739 179.554C190.831 179.589 190.916 179.642 190.988 179.709C191.058 179.778 191.113 179.861 191.149 179.952C191.186 180.044 191.202 180.141 191.198 180.24C191.202 180.334 191.185 180.428 191.148 180.515C191.112 180.602 191.057 180.681 190.988 180.745C190.84 180.877 190.647 180.947 190.449 180.939H185.809V184.119H189.743C189.842 184.115 189.94 184.131 190.033 184.165C190.125 184.2 190.21 184.252 190.282 184.32C190.351 184.386 190.405 184.466 190.442 184.555C190.478 184.643 190.495 184.738 190.493 184.834C190.498 184.93 190.482 185.026 190.445 185.115C190.409 185.204 190.353 185.283 190.282 185.348C190.133 185.477 189.94 185.544 189.743 185.536H185.809V188.98H190.449C190.547 188.978 190.644 188.996 190.734 189.032C190.825 189.068 190.908 189.121 190.977 189.189C191.047 189.257 191.102 189.339 191.14 189.428C191.178 189.518 191.198 189.614 191.198 189.712C191.202 189.806 191.185 189.9 191.148 189.987C191.112 190.074 191.057 190.153 190.988 190.217C190.841 190.35 190.648 190.421 190.449 190.413H185.012C184.913 190.414 184.814 190.394 184.722 190.355C184.631 190.315 184.549 190.257 184.481 190.185" fill="black"/>
<path d="M223.703 179.997C224.174 180.296 224.559 180.712 224.821 181.204C225.098 181.722 225.24 182.3 225.233 182.887C225.239 183.478 225.097 184.061 224.821 184.585C224.562 185.085 224.177 185.51 223.703 185.817C223.249 186.116 222.717 186.275 222.172 186.274H219.235V189.712C219.239 189.908 219.166 190.099 219.031 190.242C218.967 190.315 218.888 190.374 218.799 190.413C218.71 190.453 218.613 190.472 218.516 190.47C218.419 190.474 218.322 190.457 218.232 190.421C218.142 190.385 218.061 190.33 217.993 190.26C217.861 190.113 217.791 189.921 217.799 189.723V180.308C217.798 180.209 217.818 180.11 217.857 180.019C217.897 179.928 217.955 179.846 218.028 179.778C218.096 179.705 218.178 179.648 218.27 179.608C218.361 179.569 218.46 179.549 218.559 179.549H222.184C222.723 179.55 223.25 179.705 223.703 179.997ZM222.954 184.569C223.201 184.378 223.397 184.129 223.524 183.844C223.664 183.541 223.736 183.211 223.735 182.877C223.749 182.388 223.587 181.91 223.277 181.531C223.146 181.363 222.979 181.227 222.787 181.134C222.596 181.041 222.386 180.993 222.172 180.994H219.235V184.85H222.172C222.456 184.85 222.732 184.754 222.954 184.578" fill="black"/>
<path d="M225.142 190.384C224.968 190.456 224.772 190.457 224.597 190.387C224.422 190.316 224.282 190.179 224.207 190.006L222.534 186.178C222.471 186.006 222.476 185.816 222.548 185.648C222.62 185.479 222.754 185.344 222.923 185.271C223.091 185.198 223.281 185.192 223.454 185.254C223.627 185.317 223.769 185.443 223.852 185.606L225.524 189.435C225.601 189.609 225.604 189.807 225.535 189.984C225.465 190.161 225.328 190.303 225.153 190.379" fill="black"/>
</g>
</g>
</g>
</g>
<defs>
<linearGradient id="paint0_linear_15_2" x1="56.8001" y1="177.568" x2="56.8001" y2="103.782" gradientUnits="userSpaceOnUse">
<stop stop-color="#C12E56"/>
<stop offset="0.2" stop-color="#DE264D"/>
<stop offset="0.71" stop-color="#E5451A"/>
<stop offset="1" stop-color="#E5451A"/>
</linearGradient>
<linearGradient id="paint1_linear_15_2" x1="60.2197" y1="144.471" x2="49.1826" y2="133.493" gradientUnits="userSpaceOnUse">
<stop stop-color="white" stop-opacity="0.18"/>
<stop offset="1" stop-color="white"/>
</linearGradient>
<linearGradient id="paint2_linear_15_2" x1="73.8267" y1="144.546" x2="62.8362" y2="133.504" gradientUnits="userSpaceOnUse">
<stop stop-color="white" stop-opacity="0.18"/>
<stop offset="1" stop-color="white"/>
</linearGradient>
<linearGradient id="paint3_linear_15_2" x1="157.011" y1="182.212" x2="154.173" y2="185.069" gradientUnits="userSpaceOnUse">
<stop/>
<stop offset="1" stop-color="white" stop-opacity="0.51"/>
</linearGradient>
</defs>
</svg>
