<svg width="300" height="300" viewBox="0 0 300 300" fill="none" xmlns="http://www.w3.org/2000/svg">
<path fill-rule="evenodd" clip-rule="evenodd" d="M82.4969 159.35C80.4691 159.35 78.6069 159.004 76.9091 158.313C75.2116 157.621 73.7401 156.656 72.4958 155.418C71.2501 154.18 70.28 152.714 69.5841 151.021C68.8886 149.328 68.5406 147.462 68.5406 145.423C68.5406 143.348 68.9294 141.408 69.7081 139.606C70.4864 137.804 71.5632 136.238 72.9393 134.909C74.3146 133.58 75.9263 132.534 77.7724 131.769C79.6189 131.004 81.6092 130.622 83.746 130.622C85.3385 130.622 86.8322 130.849 88.2263 131.304C89.6192 131.76 90.8327 132.388 91.8642 133.189C92.8961 133.99 93.7111 134.946 94.3081 136.056C94.9055 137.167 95.204 138.341 95.204 139.579C95.204 140.963 94.7699 142.118 93.9013 143.047C93.032 143.976 91.9638 144.44 90.6971 144.44C89.3933 144.44 88.3075 143.985 87.439 143.074C86.5697 142.164 86.1356 141.018 86.1356 139.633C86.1356 139.234 86.1801 138.851 86.2712 138.487C86.361 138.123 86.497 137.595 86.6779 136.902C86.8592 136.284 86.9772 135.82 87.0315 135.51C87.0854 135.201 87.1128 134.864 87.1128 134.499C87.1128 133.553 86.8064 132.779 86.1959 132.178C85.5842 131.578 84.8134 131.277 83.8849 131.277C83.0628 131.277 82.3032 131.543 81.6077 132.072C80.9111 132.601 80.3036 133.322 79.7859 134.234C79.2676 135.148 78.8567 136.232 78.5529 137.493C78.2496 138.752 78.0979 140.094 78.0979 141.517C78.0979 144.839 78.9305 147.477 80.5961 149.43C82.2609 151.383 84.5063 152.359 87.33 152.359C88.9229 152.359 90.3709 152.059 91.6747 151.458C92.9773 150.857 94.2444 149.92 95.4759 148.646L96.1273 148.973C93.0496 155.892 88.5061 159.35 82.4969 159.35Z" fill="#3C3F40"/>
<path fill-rule="evenodd" clip-rule="evenodd" d="M116.863 138.845C116.698 137.054 116.47 135.61 116.176 134.512C115.883 133.489 115.426 132.694 114.803 132.127C114.18 131.561 113.428 131.277 112.549 131.277C111.632 131.277 110.854 131.561 110.213 132.127C109.572 132.694 109.123 133.489 108.866 134.512C108.573 135.682 108.354 137.153 108.208 138.927C108.061 140.7 107.988 142.72 107.988 144.986C107.988 147.253 108.061 149.282 108.208 151.073C108.354 152.864 108.573 154.326 108.866 155.46C109.123 156.483 109.572 157.278 110.213 157.845C110.854 158.411 111.632 158.695 112.549 158.695C113.428 158.695 114.188 158.411 114.83 157.845C115.47 157.278 115.919 156.483 116.176 155.46C116.799 153.084 117.111 149.593 117.111 144.986C117.111 142.684 117.028 140.636 116.863 138.845ZM126.371 150.666C125.594 152.414 124.538 153.935 123.201 155.227C121.863 156.519 120.282 157.53 118.457 158.258C116.632 158.986 114.672 159.35 112.577 159.35C110.444 159.35 108.465 158.986 106.64 158.258C104.815 157.53 103.234 156.519 101.897 155.227C100.56 153.935 99.5035 152.414 98.7264 150.666C97.9488 148.919 97.5612 147.026 97.5612 144.986C97.5612 142.947 97.9488 141.053 98.7264 139.306C99.5035 137.558 100.56 136.038 101.897 134.745C103.234 133.453 104.815 132.443 106.64 131.714C108.465 130.986 110.444 130.622 112.577 130.622C114.672 130.622 116.632 130.986 118.457 131.714C120.282 132.443 121.863 133.453 123.201 134.745C124.538 136.038 125.594 137.558 126.371 139.306C127.149 141.053 127.537 142.947 127.537 144.986C127.537 147.026 127.149 148.919 126.371 150.666Z" fill="#3C3F40"/>
<path fill-rule="evenodd" clip-rule="evenodd" d="M240.443 134.806C240.443 137.46 242.583 139.612 245.222 139.612C247.861 139.612 250 137.46 250 134.806C250 132.152 247.861 130 245.222 130C242.583 130 240.443 132.152 240.443 134.806Z" fill="#3C3F40"/>
<path fill-rule="evenodd" clip-rule="evenodd" d="M50 137.736C50 140.39 52.1394 142.542 54.7784 142.542C57.4175 142.542 59.5568 140.39 59.5568 137.736C59.5568 135.082 57.4175 132.93 54.7784 132.93C52.1394 132.93 50 135.082 50 137.736Z" fill="#FF3465"/>
<path fill-rule="evenodd" clip-rule="evenodd" d="M50 152.385C50 155.04 52.1394 157.191 54.7784 157.191C57.4175 157.191 59.5568 155.04 59.5568 152.385C59.5568 149.731 57.4175 147.579 54.7784 147.579C52.1394 147.579 50 149.731 50 152.385Z" fill="#FF3465"/>
<path fill-rule="evenodd" clip-rule="evenodd" d="M148.183 154.489C147.235 156.638 145.905 157.712 144.192 157.712C143.208 157.712 142.315 157.312 141.513 156.51V134.991C142.315 134.482 142.934 134.136 143.372 133.953C143.809 133.771 144.246 133.68 144.684 133.68C146.215 133.68 147.417 134.727 148.291 136.82C149.167 138.915 149.604 141.8 149.604 145.478C149.604 149.338 149.13 152.341 148.183 154.489ZM159.024 138.35C158.533 136.767 157.844 135.401 156.955 134.254C156.064 133.107 155.002 132.215 153.768 131.578C152.532 130.941 151.172 130.622 149.684 130.622C148.303 130.622 146.968 130.895 145.679 131.441C144.391 131.987 143.001 132.898 141.513 134.172V131.862V130.622L128.111 134.636V134.887V135.448C128.689 135.533 129.168 135.657 129.539 135.823C130.064 136.058 130.525 136.431 130.924 136.939C131.141 137.23 131.313 137.539 131.44 137.865C131.566 138.192 131.666 138.574 131.738 139.009C131.81 139.445 131.865 139.962 131.901 140.561C131.937 141.16 131.955 141.86 131.955 142.658V159.922V162.154C131.955 162.772 131.946 163.28 131.928 163.68C131.91 164.079 131.883 164.424 131.847 164.715C131.81 165.004 131.756 165.295 131.684 165.586C131.576 166.276 131.34 166.821 130.978 167.22C130.579 167.728 130.109 168.082 129.566 168.282C129.315 168.374 128.987 168.456 128.589 168.529V169.4H144.873V168.619C144.387 168.557 143.985 168.483 143.685 168.394C143.142 168.23 142.708 167.952 142.382 167.557C142.201 167.341 142.056 167.107 141.948 166.855C141.839 166.602 141.749 166.279 141.676 165.883C141.603 165.487 141.558 165.01 141.54 164.453C141.522 163.894 141.513 163.202 141.513 162.374V157.384C142.456 158.113 143.32 158.622 144.1 158.914C144.881 159.204 145.797 159.35 146.851 159.35C148.666 159.35 150.354 158.949 151.916 158.149C153.477 157.348 154.839 156.237 156.001 154.817C157.163 153.397 158.08 151.731 158.751 149.82C159.424 147.908 159.759 145.842 159.759 143.621C159.759 141.691 159.514 139.934 159.024 138.35Z" fill="#3C3F40"/>
<path fill-rule="evenodd" clip-rule="evenodd" d="M181.868 154.489C180.92 156.638 179.59 157.712 177.877 157.712C176.893 157.712 176 157.312 175.198 156.51V134.991C176 134.482 176.619 134.136 177.057 133.953C177.494 133.771 177.931 133.68 178.369 133.68C179.899 133.68 181.102 134.727 181.976 136.82C182.852 138.915 183.289 141.8 183.289 145.478C183.289 149.338 182.815 152.341 181.868 154.489ZM192.709 138.35C192.218 136.767 191.529 135.401 190.639 134.254C189.749 133.107 188.687 132.215 187.452 131.578C186.217 130.941 184.857 130.622 183.368 130.622C181.988 130.622 180.653 130.895 179.364 131.441C178.075 131.987 176.686 132.898 175.198 134.172V131.862V130.622L161.796 134.636V134.887V135.448C162.373 135.533 162.853 135.657 163.224 135.823C163.748 136.058 164.209 136.431 164.608 136.939C164.826 137.23 164.998 137.539 165.124 137.865C165.251 138.192 165.35 138.574 165.423 139.009C165.495 139.445 165.55 139.962 165.586 140.561C165.621 141.16 165.64 141.86 165.64 142.658V159.922V162.154C165.64 162.772 165.631 163.28 165.613 163.68C165.595 164.079 165.568 164.424 165.532 164.715C165.495 165.004 165.441 165.295 165.369 165.586C165.26 166.276 165.024 166.821 164.663 167.22C164.264 167.728 163.794 168.082 163.251 168.282C163 168.374 162.672 168.456 162.274 168.529V169.4H178.558V168.619C178.072 168.557 177.669 168.483 177.37 168.394C176.827 168.23 176.393 167.952 176.067 167.557C175.885 167.341 175.741 167.107 175.633 166.855C175.524 166.602 175.433 166.279 175.361 165.883C175.288 165.487 175.243 165.01 175.225 164.453C175.206 163.894 175.198 163.202 175.198 162.374V157.384C176.141 158.113 177.005 158.622 177.785 158.914C178.566 159.204 179.482 159.35 180.536 159.35C182.351 159.35 184.039 158.949 185.601 158.149C187.162 157.348 188.524 156.237 189.686 154.817C190.848 153.397 191.765 151.731 192.436 149.82C193.108 147.908 193.444 145.842 193.444 143.621C193.444 141.691 193.199 139.934 192.709 138.35Z" fill="#3C3F40"/>
<path fill-rule="evenodd" clip-rule="evenodd" d="M240.455 157.633C239.948 157.47 239.55 157.189 239.26 156.79C239.078 156.574 238.943 156.339 238.853 156.085C238.762 155.832 238.681 155.515 238.609 155.135C238.536 154.755 238.491 154.275 238.473 153.697C238.454 153.118 238.446 152.411 238.446 151.579V148.065V144.793V130.539L224.888 134.6V135.419C225.538 135.504 226.068 135.636 226.472 135.817C226.996 136.053 227.458 136.425 227.856 136.932C228.074 137.222 228.245 137.53 228.372 137.857C228.499 138.184 228.598 138.564 228.671 138.999C228.743 139.435 228.797 139.952 228.834 140.55C228.869 141.148 228.888 141.846 228.888 142.644V151.566C228.888 153.271 228.834 154.477 228.725 155.183C228.617 155.891 228.417 156.426 228.128 156.788C227.802 157.188 227.386 157.468 226.879 157.632C226.513 157.749 226.002 157.843 225.355 157.913V158.64H241.793V157.89C241.237 157.823 240.783 157.738 240.455 157.633Z" fill="#3C3F40"/>
<path fill-rule="evenodd" clip-rule="evenodd" d="M210.142 131.277C211.229 131.277 212.061 131.728 212.641 132.63C213.219 133.531 213.581 134.976 213.726 136.963C213.762 137.331 213.79 137.662 213.808 137.956C213.826 138.25 213.843 138.572 213.862 138.922C213.88 139.272 213.89 139.667 213.89 140.108V141.148H205.535C205.576 138.042 205.96 135.638 206.694 133.954C207.472 132.17 208.622 131.277 210.142 131.277ZM223.23 147.771C222.687 148.61 222.234 149.238 221.872 149.656C221.51 150.075 221.021 150.484 220.406 150.884C218.812 152.014 216.876 152.578 214.596 152.578C208.586 152.578 205.563 149.174 205.526 142.368H222.592V142.365H223.501C223.284 140.581 222.804 138.96 222.062 137.503C221.32 136.048 220.369 134.809 219.211 133.789C218.052 132.77 216.713 131.987 215.193 131.441C213.672 130.894 212.007 130.622 210.197 130.622C208.133 130.622 206.205 131.004 204.413 131.769C202.621 132.533 201.055 133.581 199.716 134.909C198.376 136.238 197.327 137.795 196.566 139.579C195.806 141.363 195.425 143.275 195.425 145.314C195.425 147.317 195.787 149.173 196.512 150.884C197.236 152.597 198.241 154.08 199.526 155.336C200.811 156.592 202.331 157.575 204.087 158.285C205.843 158.995 207.735 159.35 209.763 159.35C211.898 159.35 213.853 158.941 215.627 158.122C217.401 157.302 218.921 156.128 220.189 154.599C220.587 154.089 220.94 153.616 221.248 153.179C221.555 152.742 221.836 152.287 222.089 151.813C222.343 151.34 222.596 150.803 222.849 150.202C223.102 149.601 223.393 148.864 223.719 147.99L223.23 147.771Z" fill="#3C3F40"/>
</svg>
