<svg width="300" height="300" viewBox="0 0 300 300" fill="none" xmlns="http://www.w3.org/2000/svg">
<path d="M104.018 103.139C101.327 102.22 98.4414 101.944 95.6131 102.336H95.3906V102.147C96.8806 98.5362 99.481 95.4425 102.849 93.274C106.216 91.1056 110.192 89.9643 114.253 90.0009H121.669V97.7987H114.253C112.25 97.8006 110.28 98.2789 108.519 99.1906C106.758 100.102 105.262 101.419 104.167 103.021L104.018 103.139Z" fill="#1F62FF"/>
<path d="M164.602 149.126C162.008 149.133 159.439 148.628 157.043 147.64C154.647 146.653 152.472 145.202 150.644 143.372C148.756 141.421 147.28 139.114 146.305 136.586V136.37H146.522C149.237 136.901 152.041 136.769 154.694 135.987C155.766 137.597 157.23 138.912 158.949 139.809C160.669 140.706 162.588 141.156 164.53 141.118H171.762V149.03L164.602 149.126Z" fill="#1F62FF"/>
<path d="M145.234 103.139C144.148 101.54 142.683 100.242 140.975 99.3619C139.266 98.4822 137.366 98.0493 135.45 98.1026H128.239V90.0004H135.45C139.374 89.9767 143.213 91.1503 146.468 93.3681C149.722 95.586 152.241 98.7451 153.695 102.433V102.628H153.527C152.731 102.515 151.927 102.458 151.123 102.458C149.186 102.408 147.251 102.637 145.378 103.139H145.234Z" fill="#1F62FF"/>
<path d="M178.331 149.078V141.238H185.57C187.525 141.236 189.448 140.755 191.167 139.838C192.886 138.921 194.346 137.598 195.415 135.987C197.257 136.636 199.201 136.966 201.158 136.961C201.965 136.96 202.771 136.904 203.571 136.795H203.788V136.985C202.328 140.586 199.8 143.671 196.533 145.837C193.266 148.002 189.412 149.148 185.474 149.125L178.331 149.078Z" fill="#1F62FF"/>
<path d="M128.239 149.077V141.078H135.478C137.408 141.123 139.318 140.68 141.034 139.791C142.75 138.901 144.216 137.593 145.298 135.987C146.788 136.371 148.321 136.55 149.859 136.52H150.727C151.649 136.485 152.563 136.347 153.454 136.108H153.695V136.326C152.245 140.031 149.738 143.223 146.488 145.5C143.238 147.777 139.391 149.039 135.429 149.126L128.239 149.077Z" fill="#1F62FF"/>
<path d="M98.2649 130.238C103.934 130.238 108.53 125.643 108.53 119.973C108.53 114.304 103.934 109.709 98.2649 109.709C92.5958 109.709 88 114.304 88 119.973C88 125.643 92.5958 130.238 98.2649 130.238Z" fill="#1F62FF"/>
<path d="M113.688 149.125C109.753 149.149 105.903 148.005 102.639 145.843C99.375 143.681 96.8491 140.602 95.3906 137.007V136.817H95.6076C96.4063 136.927 97.2118 136.982 98.0183 136.983C99.9823 136.975 101.931 136.638 103.78 135.987C104.848 137.595 106.307 138.916 108.024 139.831C109.741 140.746 111.663 141.226 113.616 141.228H120.848V149.054L113.688 149.125Z" fill="#1F62FF"/>
<path d="M149.179 130.238C154.848 130.238 159.444 125.643 159.444 119.973C159.444 114.304 154.848 109.709 149.179 109.709C143.51 109.709 138.914 114.304 138.914 119.973C138.914 125.643 143.51 130.238 149.179 130.238Z" fill="#1F62FF"/>
<path d="M201.735 130.238C207.404 130.238 212 125.643 212 119.973C212 114.304 207.404 109.709 201.735 109.709C196.066 109.709 191.47 114.304 191.47 119.973C191.47 125.643 196.066 130.238 201.735 130.238Z" fill="#1F62FF"/>
<path d="M195.35 103.139C194.285 101.531 192.83 100.21 191.118 99.2948C189.406 98.3798 187.49 97.8997 185.543 97.8978H178.331V90.0003H185.543C189.466 89.9773 193.305 91.1212 196.56 93.283C199.815 95.4448 202.334 98.5241 203.788 102.119V102.309H203.572C200.821 101.915 198.015 102.192 195.399 103.115L195.35 103.139Z" fill="#1F62FF"/>
<path d="M154.598 103.139C153.037 102.677 151.419 102.435 149.79 102.421C148.693 102.421 147.598 102.525 146.521 102.732H146.305V102.517C147.267 99.987 148.73 97.6756 150.608 95.7201C152.435 93.8949 154.609 92.4494 157.002 91.4675C159.396 90.4856 161.961 89.9868 164.55 90.0003H171.762V97.8979H164.55C162.614 97.8598 160.7 98.3093 158.985 99.2046C157.271 100.1 155.811 101.412 154.742 103.019L154.598 103.139Z" fill="#1F62FF"/>
<path d="M24.9759 208.979C22.7948 208.387 20.7599 207.345 19 205.921L21.2409 200.818C22.8321 202.044 24.6194 202.99 26.5261 203.614C28.5427 204.325 30.6635 204.693 32.8008 204.702C34.8218 204.837 36.8401 204.402 38.6274 203.445C39.2057 203.109 39.684 202.625 40.0125 202.041C40.341 201.456 40.5074 200.795 40.495 200.124C40.5074 199.654 40.417 199.186 40.2298 198.755C40.0426 198.324 39.7633 197.939 39.4118 197.629C38.6195 196.931 37.6909 196.407 36.6853 196.09C35.5896 195.728 34.0895 195.309 32.1845 194.833C29.9868 194.348 27.8222 193.721 25.7043 192.957C24.0621 192.33 22.5995 191.305 21.4464 189.974C20.1646 188.439 19.4987 186.479 19.579 184.477C19.558 182.589 20.1048 180.738 21.1475 179.167C22.3418 177.482 23.9955 176.179 25.9098 175.415C28.3808 174.41 31.0324 173.931 33.6973 174.008C35.8268 174.008 37.9478 174.279 40.0094 174.815C41.9123 175.276 43.7243 176.056 45.369 177.122L43.3896 182.057C41.8849 181.164 40.2717 180.47 38.59 179.993C37.0117 179.534 35.3779 179.294 33.7346 179.28C31.7363 179.139 29.7415 179.596 28.0013 180.593C27.4202 180.963 26.9434 181.476 26.6163 182.084C26.2893 182.691 26.1233 183.373 26.1339 184.064C26.1216 184.529 26.2125 184.991 26.3997 185.416C26.5871 185.841 26.8662 186.219 27.2171 186.522C28.0158 187.202 28.9434 187.712 29.9436 188.023C31.0393 188.386 32.5394 188.805 34.4443 189.28C36.6205 189.753 38.761 190.38 40.8498 191.156C42.4931 191.791 43.96 192.814 45.1263 194.139C46.405 195.647 47.0717 197.582 46.9939 199.561C47.0142 201.437 46.4672 203.276 45.4251 204.833C44.2244 206.52 42.5643 207.823 40.6444 208.585C38.1661 209.588 35.5089 210.067 32.8382 209.992C30.1818 210.049 27.5321 209.708 24.9759 208.979Z" fill="#17274D"/>
<path d="M71.8884 184.921C72.976 186.058 73.8138 187.422 74.3449 188.922C74.8762 190.423 75.0882 192.023 74.9667 193.616V209.577H69.1419V206.324C68.3456 207.543 67.2164 208.489 65.8977 209.045C64.2892 209.717 62.5636 210.041 60.8287 209.996C59.0494 210.035 57.2828 209.678 55.6489 208.949C54.2628 208.333 53.0742 207.323 52.2203 206.039C51.4102 204.797 50.9858 203.331 51.0037 201.834C50.9684 200.71 51.1884 199.593 51.6462 198.572C52.1038 197.551 52.7865 196.655 53.6398 195.956C56.0905 194.272 59.0185 193.488 61.953 193.73H68.7732V193.33C68.822 192.52 68.6989 191.709 68.4123 190.953C68.1258 190.197 67.6827 189.515 67.1144 188.954C65.7129 187.835 63.9592 187.293 62.1926 187.432C60.7087 187.436 59.2345 187.68 57.8239 188.155C56.4878 188.539 55.2359 189.185 54.1373 190.058L51.7963 185.397C53.2967 184.252 54.9908 183.407 56.7918 182.905C58.7997 182.314 60.8787 182.019 62.9669 182.029C66.1865 181.808 69.3695 182.84 71.8884 184.921ZM66.2664 204.193C67.447 203.49 68.3482 202.378 68.8101 201.054V197.896H62.4323C58.8808 197.896 57.1052 199.101 57.1052 201.511C57.0884 202.048 57.2008 202.581 57.4323 203.062C57.6639 203.544 58.0074 203.958 58.4322 204.269C59.5229 205.01 60.8152 205.37 62.1189 205.297C63.5731 205.327 65.0075 204.945 66.2664 204.193Z" fill="#17274D"/>
<path d="M83 172H89V210H83V172Z" fill="#17274D"/>
<path d="M121.886 198.018H101.22C101.523 199.941 102.541 201.663 104.054 202.815C105.714 204.03 107.711 204.648 109.74 204.573C111.063 204.618 112.38 204.377 113.609 203.867C114.838 203.358 115.95 202.589 116.881 201.611L120.193 205.547C118.989 207.029 117.443 208.173 115.703 208.873C113.481 209.718 111.119 210.095 108.755 209.98C106.392 209.865 104.074 209.261 101.938 208.204C99.8137 207.083 98.0442 205.352 96.8409 203.216C95.6093 201.018 94.9735 198.515 95.0008 195.973C94.9941 193.451 95.6288 190.972 96.8409 188.787C97.9796 186.685 99.6626 184.957 101.699 183.799C103.842 182.584 106.25 181.966 108.691 182.002C111.094 181.956 113.466 182.562 115.574 183.761C117.572 184.917 119.212 186.641 120.304 188.73C121.467 191.004 122.05 193.551 121.997 196.126C121.984 196.597 121.948 197.228 121.886 198.018ZM103.668 188.921C102.293 190.158 101.408 191.881 101.184 193.756H116.126C115.916 191.898 115.059 190.185 113.715 188.94C112.331 187.671 110.537 186.989 108.691 187.029C106.845 186.989 105.052 187.671 103.668 188.94V188.921Z" fill="#17274D"/>
<path d="M130.073 209.1C128.269 208.661 126.555 207.919 125 206.906L127.47 202.039C128.844 202.899 130.341 203.542 131.911 203.948C133.572 204.434 135.293 204.685 137.022 204.692C140.851 204.692 142.765 203.687 142.765 201.677C142.759 201.245 142.614 200.828 142.353 200.485C142.091 200.141 141.725 199.89 141.31 199.768C139.785 199.264 138.213 198.906 136.62 198.699C134.757 198.442 132.913 198.046 131.107 197.516C129.692 197.076 128.418 196.273 127.412 195.188C126.308 193.91 125.744 192.254 125.842 190.57C125.815 189.343 126.1 188.129 126.668 187.042C127.238 185.954 128.074 185.027 129.097 184.348C131.709 182.674 134.782 181.86 137.884 182.02C139.785 182.025 141.678 182.242 143.531 182.669C145.15 182.997 146.707 183.577 148.145 184.386L145.656 189.176C143.274 187.799 140.562 187.094 137.807 187.134C136.329 187.046 134.853 187.335 133.519 187.974C133.091 188.174 132.73 188.489 132.472 188.883C132.215 189.278 132.075 189.736 132.064 190.207C132.051 190.691 132.198 191.165 132.481 191.558C132.766 191.951 133.17 192.241 133.634 192.383C135.204 192.944 136.826 193.347 138.477 193.585C140.298 193.847 142.095 194.243 143.856 194.768C145.235 195.198 146.481 195.973 147.475 197.02C148.551 198.266 149.093 199.883 148.987 201.524C149.008 202.747 148.712 203.956 148.13 205.032C147.545 206.108 146.694 207.017 145.656 207.669C142.937 209.34 139.772 210.146 136.582 209.978C134.382 209.978 132.194 209.683 130.073 209.1Z" fill="#17274D"/>
<path d="M195.996 185.033C197.057 186.267 197.868 187.708 198.378 189.27C198.889 190.833 199.088 192.486 198.965 194.13V210H192.669V194.962C192.811 193.002 192.255 191.055 191.108 189.484C190.549 188.839 189.857 188.331 189.084 187.996C188.309 187.661 187.472 187.508 186.634 187.549C185.684 187.506 184.737 187.676 183.858 188.046C182.977 188.417 182.187 188.981 181.539 189.697C180.182 191.424 179.511 193.616 179.659 195.833V209.884H173.362V194.846C173.504 192.886 172.95 190.939 171.801 189.368C171.243 188.723 170.552 188.215 169.777 187.88C169.004 187.545 168.167 187.392 167.327 187.433C166.376 187.386 165.426 187.552 164.545 187.919C163.661 188.287 162.867 188.847 162.215 189.562C160.854 191.302 160.181 193.507 160.335 195.736V209.787H154V182.323H159.997V185.846C161.008 184.599 162.299 183.623 163.757 183.001C165.353 182.326 167.068 181.991 168.793 182.014C170.642 181.977 172.474 182.374 174.151 183.175C175.707 183.917 177.015 185.116 177.911 186.62C179.052 185.15 180.524 183.988 182.197 183.233C184.021 182.404 185.995 181.988 187.988 182.014C189.45 181.939 190.914 182.168 192.289 182.687C193.665 183.206 194.925 184.003 195.996 185.033Z" fill="#17274D"/>
<path d="M225.759 184.926C226.892 186.065 227.765 187.432 228.317 188.936C228.87 190.439 229.092 192.043 228.966 193.639V209.634H222.898V206.374C222.06 207.573 220.884 208.502 219.519 209.043C217.842 209.717 216.045 210.041 214.238 209.996C212.384 210.035 210.545 209.677 208.843 208.947C207.398 208.329 206.161 207.318 205.271 206.031C204.428 204.787 203.985 203.317 204.004 201.817C203.967 200.691 204.196 199.571 204.674 198.548C205.149 197.525 205.862 196.628 206.75 195.926C209.303 194.24 212.352 193.454 215.409 193.696H222.514V193.295C222.565 192.484 222.435 191.671 222.139 190.913C221.84 190.156 221.377 189.473 220.786 188.911C219.341 187.767 217.522 187.196 215.678 187.309C214.131 187.313 212.597 187.557 211.128 188.034C209.736 188.418 208.433 189.065 207.287 189.94L204.849 185.403C206.412 184.256 208.177 183.409 210.052 182.905C212.143 182.313 214.309 182.018 216.485 182.028C219.832 181.811 223.139 182.845 225.759 184.926ZM219.903 204.238C221.131 203.534 222.07 202.419 222.552 201.093V197.928H215.909C212.209 197.928 210.359 199.135 210.359 201.55C210.342 202.089 210.46 202.623 210.701 203.105C210.942 203.588 211.3 204.003 211.742 204.315C212.879 205.057 214.223 205.418 215.582 205.344C217.091 205.371 218.578 204.989 219.883 204.238H219.903Z" fill="#17274D"/>
<path d="M253 208.188C252.199 208.814 251.275 209.271 250.287 209.532C249.188 209.836 248.052 209.987 246.909 209.98C244.389 210.14 241.908 209.315 240.002 207.683C239.146 206.794 238.484 205.738 238.062 204.584C237.643 203.43 237.47 202.202 237.554 200.979V188.112H233V183.107H237.478V177H243.835V183.107H251.102V188.112H243.835V200.848C243.761 201.923 244.107 202.986 244.803 203.817C245.167 204.173 245.604 204.449 246.085 204.626C246.565 204.803 247.08 204.878 247.592 204.845C248.874 204.892 250.135 204.503 251.159 203.743L253 208.188Z" fill="#17274D"/>
<path d="M281.882 198.018H260.452C260.765 199.941 261.821 201.663 263.391 202.815C265.11 204.03 267.182 204.648 269.288 204.573C270.658 204.618 272.025 204.377 273.3 203.867C274.572 203.358 275.728 202.589 276.691 201.611L280.126 205.547C278.877 207.029 277.276 208.173 275.471 208.873C273.166 209.718 270.717 210.095 268.266 209.98C265.814 209.865 263.412 209.261 261.196 208.204C258.993 207.083 257.156 205.352 255.909 203.216C254.633 201.018 253.973 198.515 254.001 195.973C253.994 193.451 254.652 190.972 255.909 188.787C257.09 186.685 258.836 184.957 260.948 183.799C263.17 182.584 265.668 181.966 268.2 182.002C270.692 181.956 273.151 182.562 275.338 183.761C277.41 184.917 279.11 186.641 280.24 188.73C281.449 191.004 282.054 193.551 281.996 196.126C281.984 196.597 281.945 197.228 281.882 198.018ZM262.99 188.921C261.563 190.158 260.647 191.881 260.413 193.756H275.91C275.692 191.898 274.803 190.185 273.41 188.94C271.972 187.671 270.115 186.989 268.2 187.029C266.251 186.964 264.353 187.648 262.894 188.94L262.99 188.921Z" fill="#17274D"/>
</svg>
