<svg width="300" height="300" viewBox="0 0 300 300" fill="none" xmlns="http://www.w3.org/2000/svg">
<path d="M88.5496 209.028C88.3881 208.866 88.7111 208.381 88.7111 208.381C89.5354 208.588 90.398 208.588 91.2223 208.381V208.763C91.2223 208.763 92.353 209.409 92.4852 209.938C92.6174 210.467 92.074 210.54 91.795 210.305C91.3581 209.842 90.7573 209.568 90.1209 209.542C89.552 209.568 88.9931 209.385 88.5496 209.028ZM91.3251 222.039C91.9419 222.964 95.2754 223.507 96.8026 222.67C97.7817 222.188 98.8335 221.87 99.9159 221.73C100.655 220.37 101.095 218.868 101.208 217.325C101.208 216.165 102.383 215.974 102.427 214.931C102.455 214.682 102.405 214.431 102.285 214.211C102.164 213.991 101.979 213.814 101.754 213.703C101.53 213.593 101.276 213.554 101.029 213.592C100.781 213.631 100.552 213.744 100.371 213.918C100.048 214.167 99.8571 214.358 99.2257 213.83C98.5942 213.301 98.3739 213.962 98.4914 214.211C99.2991 216.076 100.518 215.504 100.826 216.488C101.472 218.646 100.547 219.425 98.7557 220.893C97.2789 221.948 95.4636 222.419 93.66 222.215C92.823 221.936 90.6936 221.069 91.3251 221.995V222.039ZM76.2581 194.754C78.6866 194.688 81.0904 195.255 83.2336 196.398C83.9468 196.794 84.6335 197.235 85.2895 197.72C85.852 197.757 86.4015 197.907 86.9058 198.159C87.4101 198.411 87.859 198.761 88.2265 199.189C87.3691 197.795 86.386 196.482 85.2895 195.268C84.2274 194.106 82.9033 193.215 81.4273 192.668C80.4408 192.332 79.4134 192.129 78.3728 192.066C75.9318 192.898 73.6626 194.167 71.6764 195.811C73.1304 195.194 74.681 194.836 76.2581 194.754ZM70.7659 205.562C67.8336 207.544 65.4696 210.257 63.908 213.433C64.1471 217.959 65.8242 222.291 68.6953 225.798C67.0959 222.667 66.5499 219.103 67.1387 215.636C67.6587 212.847 68.8312 210.22 70.5603 207.97C70.9568 207.456 71.368 206.972 71.7939 206.502C72.1289 205.741 72.5268 205.009 72.9834 204.314C72.2131 204.672 71.4718 205.089 70.7659 205.562ZM85.172 190.994C84.7902 190.994 84.3937 190.994 84.0119 190.994C85.2174 191.749 86.2245 192.781 86.9489 194.005C87.9287 195.646 88.4368 197.527 88.4174 199.438C88.7236 199.883 88.9428 200.381 89.0636 200.907C89.4013 202.375 89.3866 202.14 91.1195 203.212C92.8523 204.284 94.6439 207.706 95.4075 208.44C96.1712 209.174 99.8865 211.245 100.753 211.95C102.031 213.022 102.838 214.138 102.618 215.063C102.398 215.988 101.517 216.635 101.458 217.104C101.446 218.007 101.323 218.905 101.091 219.777C100.684 220.673 100.369 221.608 100.151 222.567C100.048 223.595 100.591 224.667 99.9893 225.974C99.979 225.445 99.8046 224.932 99.49 224.506C99.5946 224.814 99.6317 225.142 99.5988 225.466C99.5659 225.791 99.4637 226.104 99.2991 226.385C99.2826 225.877 99.1626 225.377 98.9467 224.917C99.0211 225.555 98.8981 226.201 98.5942 226.767C98.5942 226.767 98.3739 225.827 98.1243 225.137C98.1192 225.888 97.8777 226.617 97.4341 227.222C97.4577 226.68 97.4083 226.137 97.2872 225.607C97.1423 226.124 96.8811 226.601 96.5236 227.002C96.6312 226.568 96.6312 226.115 96.5236 225.681C96.4547 225.943 96.3333 226.189 96.1667 226.404C96.0001 226.618 95.7918 226.797 95.5544 226.929C95.5544 226.929 95.7747 226.224 95.5544 225.871C95.4005 225.921 95.2633 226.013 95.1579 226.136C94.1446 225.666 93.9831 224.667 92.5439 224.315C91.3325 223.877 90.0019 223.904 88.8088 224.389C87.6157 224.875 86.6445 225.784 86.0825 226.943H85.2454C81.4408 226.941 77.7879 225.451 75.0662 222.793C72.3446 220.134 70.7698 216.517 70.6778 212.714C70.262 213.817 69.9522 214.958 69.7526 216.121C69.085 220.436 69.7511 224.852 71.6617 228.779C74.2975 230.963 77.4205 232.481 80.7666 233.204C84.1128 233.926 87.5837 233.832 90.886 232.93C94.1883 232.028 97.2248 230.344 99.7389 228.021C102.253 225.698 104.171 222.803 105.33 219.582C106.489 216.361 106.856 212.908 106.399 209.516C105.943 206.123 104.676 202.89 102.706 200.091C100.736 197.291 98.1207 195.007 95.0816 193.431C92.0425 191.856 88.6687 191.035 85.2454 191.038L85.172 190.994ZM67.6233 200.217C66.1804 202.316 65.1305 204.659 64.5247 207.133C65.7019 205.4 67.1968 203.905 68.9303 202.728C71.5222 201.076 74.4849 200.097 77.5504 199.879C78.9099 199.039 80.3983 198.429 81.956 198.073C80.145 197.49 78.2477 197.222 76.3463 197.28C73.2315 197.477 70.2234 198.49 67.6233 200.217Z" fill="black"/>
<path d="M47.2556 233.332H20V187.176H28.3118V225.798H47.2556V233.332Z" fill="black"/>
<path d="M59.65 194.651H51.3823V187.176H59.65V194.651ZM59.65 233.214H51.3823V198.175H59.65V233.214Z" fill="black"/>
<path d="M112.591 208.822C112.591 206.252 111.034 205.768 108.288 205.591V197.764C112.532 197.764 116.409 198.41 117.965 201.524C119.321 200.214 120.936 199.202 122.707 198.555C124.477 197.907 126.364 197.638 128.245 197.764C135.587 197.764 139.905 201.891 139.905 209.777V233.155H131.711V211.451C131.711 206.913 129.86 205.048 126.453 205.048C123.281 205.048 120.77 206.605 120.77 211.157V233.185H112.591V208.822Z" fill="black"/>
<path d="M162.269 187.176C173.386 187.176 177.982 191.185 177.982 200.921V219.645C177.982 229.146 173.195 233.273 162.269 233.273H146.483V187.176H162.269ZM162.269 225.681C168.246 225.681 169.729 223.581 169.729 219.219V201.347C169.729 196.942 168.775 194.71 162.387 194.71H154.677V225.681H162.269Z" fill="black"/>
<path d="M211.347 222.024C211.347 229.264 206.942 233.273 197.646 233.273C188.35 233.273 183.959 229.029 183.959 219.513V211.509C183.959 202.698 188.365 197.764 197.646 197.764C206.927 197.764 211.347 202.008 211.347 211.509V218.852H192.257V219.087C192.257 223.493 193.387 225.96 197.69 225.96C201.273 225.96 202.903 224.403 203.314 222.009L211.347 222.024ZM192.257 211.744H203.432C203.432 207.339 201.963 205.048 197.94 205.048C193.285 205.048 192.213 207.559 192.213 211.803L192.257 211.744Z" fill="black"/>
<path d="M229.159 233.331C220.788 233.331 215.634 228.779 215.634 221.965H223.946C224.136 224.418 225.869 225.974 229.82 225.974C233.109 225.974 234.489 224.3 234.489 222.567C234.489 215.988 215.546 224.036 215.546 209.777C215.546 201.832 221.42 197.764 228.983 197.764C237.412 197.764 242.801 202.786 242.801 209.835H234.489C234.489 206.663 232.698 205.048 229.1 205.048C226.001 205.048 223.843 206.252 223.843 208.763C223.843 216.106 242.801 207.618 242.801 221.319C242.787 229.029 236.751 233.331 229.159 233.331Z" fill="black"/>
<path d="M255.873 233.097H247.62V187H255.814V210.496C257.796 210.188 259.94 207.853 267.18 197.823H275.991C270.734 205.298 267.327 209.953 264.757 212.875C265.607 216.826 267.454 220.494 270.122 223.53C272.791 226.565 276.191 228.868 280 230.218L275.742 237.15C266.549 235.006 259.5 225.504 257.826 217.78C257.171 217.894 256.507 217.938 255.843 217.912L255.873 233.097Z" fill="black"/>
<path d="M158.62 97.355C158.222 96.9577 159.017 95.7658 159.017 95.7658C161.045 96.2749 163.167 96.2749 165.195 95.7658V96.7049C165.195 96.7049 167.976 98.2941 168.301 99.5944C168.626 100.895 167.29 101.075 166.603 100.497C165.529 99.3575 164.051 98.6833 162.485 98.6192C161.085 98.6833 159.711 98.2336 158.62 97.355ZM165.447 129.357C166.965 131.633 175.165 132.969 178.922 130.91C181.331 129.724 183.919 128.943 186.581 128.599C188.399 125.253 189.482 121.559 189.76 117.763C189.76 114.909 192.65 114.44 192.759 111.875C192.827 111.263 192.704 110.644 192.408 110.104C192.112 109.564 191.657 109.128 191.104 108.856C190.551 108.583 189.928 108.488 189.319 108.582C188.71 108.676 188.145 108.956 187.701 109.383C186.906 109.997 186.437 110.466 184.883 109.166C183.33 107.866 182.788 109.491 183.077 110.105C185.064 114.692 188.062 113.284 188.821 115.704C190.411 121.013 188.135 122.928 183.727 126.54C180.094 129.135 175.628 130.293 171.191 129.791C169.132 129.104 163.894 126.973 165.447 129.249V129.357ZM128.382 62.2466C134.356 62.0848 140.27 63.4789 145.542 66.2921C147.296 67.265 148.986 68.3509 150.6 69.5428C151.983 69.6349 153.335 70.0017 154.576 70.6218C155.816 71.242 156.921 72.1031 157.825 73.1548C155.715 69.7267 153.297 66.4986 150.6 63.5108C147.987 60.6538 144.729 58.4619 141.098 57.1176C138.671 56.2891 136.144 55.791 133.584 55.6367C127.579 57.6814 121.997 60.8025 117.111 64.8473C120.688 63.3305 124.502 62.4503 128.382 62.2466ZM114.871 88.8308C107.657 93.7054 101.842 100.379 98 108.191C98.5883 119.323 102.714 129.978 109.777 138.604C105.842 130.902 104.499 122.135 105.948 113.609C107.227 106.748 110.111 100.288 114.365 94.7544C115.341 93.4902 116.352 92.2983 117.4 91.1424C118.224 89.2704 119.203 87.4702 120.326 85.7606C118.431 86.6419 116.607 87.6683 114.871 88.8308ZM150.311 53C149.371 53 148.396 53 147.457 53C150.422 54.8555 152.9 57.3946 154.682 60.4045C157.092 64.4425 158.342 69.0667 158.294 73.7688C159.048 74.8617 159.587 76.0873 159.884 77.3808C160.715 80.9928 160.679 80.4149 164.942 83.0516C169.205 85.6883 173.612 94.1042 175.49 95.9102C177.369 97.7162 186.509 102.809 188.64 104.543C191.783 107.18 193.77 109.925 193.228 112.2C192.686 114.476 190.519 116.065 190.374 117.221C190.345 119.441 190.042 121.649 189.471 123.795C188.47 125.998 187.695 128.297 187.159 130.657C186.906 133.186 188.243 135.823 186.762 139.037C186.737 137.735 186.307 136.473 185.534 135.425C185.791 136.185 185.882 136.99 185.801 137.788C185.72 138.586 185.469 139.356 185.064 140.049C185.023 138.798 184.728 137.569 184.197 136.437C184.38 138.007 184.077 139.595 183.33 140.988C183.33 140.988 182.788 138.676 182.174 136.978C182.161 138.824 181.567 140.619 180.476 142.107C180.534 140.773 180.412 139.436 180.115 138.134C179.758 139.406 179.116 140.58 178.236 141.566C178.501 140.498 178.501 139.382 178.236 138.315C178.066 138.961 177.768 139.566 177.358 140.094C176.948 140.621 176.436 141.061 175.852 141.385C175.852 141.385 176.394 139.651 175.852 138.784C175.473 138.907 175.136 139.132 174.876 139.434C172.384 138.279 171.986 135.823 168.446 134.956C165.466 133.88 162.192 133.945 159.257 135.139C156.322 136.332 153.933 138.57 152.55 141.421H150.491C141.132 141.414 132.145 137.751 125.45 131.212C118.755 124.673 114.88 115.776 114.654 106.421C113.631 109.136 112.869 111.942 112.378 114.801C110.736 125.415 112.374 136.278 117.075 145.936C123.559 151.309 131.242 155.041 139.473 156.818C147.705 158.596 156.243 158.365 164.367 156.146C172.491 153.928 179.961 149.786 186.146 144.072C192.331 138.357 197.049 131.238 199.9 123.315C202.752 115.393 203.655 106.9 202.531 98.5557C201.407 90.2111 198.29 82.2597 193.444 75.3737C188.598 68.4876 182.165 62.8694 174.689 58.9939C167.212 55.1185 158.913 53.0997 150.491 53.1084L150.311 53ZM107.14 75.6832C103.59 80.846 101.007 86.6103 99.5173 92.6956C102.413 88.4318 106.091 84.7551 110.355 81.8597C116.731 77.798 124.02 75.3897 131.561 74.8524C134.906 72.7873 138.567 71.2863 142.399 70.4097C137.944 68.9769 133.276 68.3172 128.599 68.4592C120.936 68.9461 113.536 71.4372 107.14 75.6832Z" fill="#0644AB"/>
</svg>
