<svg xmlns="http://www.w3.org/2000/svg" data-name="Layer 1" viewBox="0 0 600 600"><path fill="#a7aaad" d="M522.81 5H77.19A72.19 72.19 0 0 0 5 77.19v445.62A72.19 72.19 0 0 0 77.19 595h445.62A72.19 72.19 0 0 0 595 522.81V77.19A72.19 72.19 0 0 0 522.81 5Zm-80.4 228.31a1.43 1.43 0 0 1-1.42 1.42H401.3a1.42 1.42 0 0 1-1.42-1.42v-23.78a1.41 1.41 0 0 1 1.42-1.42H441a1.42 1.42 0 0 1 1.42 1.42Zm0-55.15a1.43 1.43 0 0 1-1.42 1.42h-41.11l-176.28-.08q-19 0-19 23v49.62q0 23 24.37 23L398.5 275a1.42 1.42 0 0 1 1.43 1.42v-17.84a1.42 1.42 0 0 1 1.42-1.42H441a1.43 1.43 0 0 1 1.42 1.42v199.05a1.42 1.42 0 0 1-1.42 1.42h-39.7a1.41 1.41 0 0 1-1.42-1.42V312.26a1.43 1.43 0 0 1-1.43 1.42l-173.07.05q-25.26 0-25.26 22.6v70.44q0 13.74 16.84 13.74l140.84.13a1.43 1.43 0 0 1 1.42 1.42v35.57a1.42 1.42 0 0 1-1.42 1.42H205.88q-48.28 0-48.29-47.4V331.9q0-26.19 34-36a1.41 1.41 0 0 0-.1-2.74Q162 286.64 162 259.68v-61.14Q162 141 218.73 141H441a1.42 1.42 0 0 1 1.42 1.42Z"/></svg>